<svg width="18" height="21" viewBox="0 0 18 21" fill="none" xmlns="http://www.w3.org/2000/svg">
  <path fill-rule="evenodd" clip-rule="evenodd"
    d="M0.5 8.78748C0.5 4.18762 4.34388 0.469727 8.99345 0.469727C13.6561 0.469727 17.5 4.18762 17.5 8.78748C17.5 11.1054 16.657 13.2574 15.2695 15.0813C13.7388 17.0932 11.8522 18.8462 9.72854 20.2222C9.24251 20.5401 8.80387 20.5641 8.27045 20.2222C6.13474 18.8462 4.24809 17.0932 2.7305 15.0813C1.34198 13.2574 0.5 11.1054 0.5 8.78748ZM6.19423 9.04648C6.19423 10.5874 7.45166 11.7994 8.99345 11.7994C10.5362 11.7994 11.8058 10.5874 11.8058 9.04648C11.8058 7.51752 10.5362 6.24656 8.99345 6.24656C7.45166 6.24656 6.19423 7.51752 6.19423 9.04648Z"
    fill="#fff" />
</svg>