<svg width="374" height="286" viewBox="0 0 374 286" fill="none" xmlns="http://www.w3.org/2000/svg">
<g style="mix-blend-mode:multiply" opacity="0.3">
<path d="M332.263 264.052C335.509 260.66 383.08 165.594 330.112 78.4586C277.145 -8.67662 144.131 1.49736 91.1497 35.4517C38.1686 69.406 12.226 113.534 6.81558 159.891C1.40515 206.249 37.1003 278.725 37.1003 278.725L332.263 264.052Z" fill="#E7EEF6"/>
</g>
<path d="M30.0063 129.548H71.6122C74.1871 129.548 76.2744 131.639 76.2744 134.217V155.025C76.2744 157.604 74.1871 159.695 71.6122 159.695H30.0063C27.4314 159.695 25.3441 157.604 25.3441 155.025V134.217C25.3441 131.639 27.4314 129.548 30.0063 129.548Z" fill="#68BF7B"/>
<path d="M50.8099 171.482L44.2081 155.829H57.4023L50.8099 171.482Z" fill="#68BF7B"/>
<path d="M50.959 139.447H39.0517V141.194L33.2145 137.822L39.0517 134.441V136.188H50.959V139.447Z" fill="#223A7A"/>
<path d="M33.2145 146.303H45.1219V144.557L50.959 147.928L45.1219 151.3V149.553H33.2145V146.303Z" fill="white"/>
<path d="M58.2694 149.375L58.8382 149.581C59.9245 148.305 60.8283 146.884 61.5236 145.359C62.104 143.791 62.4191 142.137 62.4561 140.466L62.0458 140.297L64.5634 134.255C65.0539 134.638 65.4683 135.11 65.7849 135.646C67.2115 138.056 67.0623 141.764 65.6357 145.378C64.2091 148.992 62.6705 152.224 59.8732 154.25C59.2957 154.724 58.6294 155.077 57.9136 155.289C57.1977 155.5 56.4469 155.566 55.7051 155.483L58.2694 149.375Z" fill="#223A7A"/>
<path d="M56.4697 148.666L57.2529 148.946L54.6701 155.128C54.4 155.039 54.138 154.926 53.8868 154.792C53.5675 154.616 53.3232 154.329 53.1996 153.985C53.0761 153.641 53.0817 153.264 53.2155 152.924L54.5582 149.525C54.7021 149.16 54.9825 148.867 55.3395 148.706C55.6966 148.546 56.1021 148.531 56.4697 148.666Z" fill="#223A7A"/>
<path d="M62.6057 133.2C62.9583 133.327 63.2986 133.486 63.6221 133.676L61.0485 139.84L60.1813 139.476C59.8212 139.323 59.5345 139.036 59.3814 138.675C59.2284 138.314 59.221 137.908 59.3608 137.542L60.7128 134.068C60.855 133.706 61.1316 133.414 61.4845 133.252C61.8374 133.09 62.2393 133.071 62.6057 133.2Z" fill="#223A7A"/>
<path d="M295.978 258.56V189.002C295.978 189.002 296.743 170.258 286.906 164.841C277.068 159.424 235.621 162.329 235.621 162.329V258.523L295.978 258.56Z" fill="#68BF7B"/>
<path d="M222.632 97.2158C222.632 97.2158 225.14 118.276 226.11 120.013L227.043 121.759L231.863 125.038C231.863 125.038 222.604 138.178 211.219 140.307C199.834 142.437 200.803 135.638 200.803 135.638L202.538 131.967L200.225 111.869C200.225 111.869 220.898 102.436 222.632 97.2158Z" fill="#68BF7B"/>
<path d="M237.878 126.784L230.353 123.496C230.353 123.496 225.532 131.416 214.343 136.057C203.153 140.699 202.958 137.991 202.38 136.057C202.062 134.712 202.127 133.305 202.566 131.995L201.745 125.233L197.27 126.727L181.735 252.574L221.672 254.507L237.878 126.784Z" fill="white"/>
<path d="M201.027 125.364C201.027 125.364 198.323 131.612 195.815 146.294C193.307 160.975 190.994 185.715 190.416 202.721C189.838 219.728 189.484 258.561 189.484 258.561H139.131C138.544 258.561 135.075 239.434 135.075 239.434C135.075 239.434 157.072 220.56 158.228 217.468C159.002 215.404 158.61 177.216 161.892 159.63C165.175 142.044 169.417 138.505 178.294 134.125C187.432 129.595 201.027 125.364 201.027 125.364Z" fill="#FFA400"/>
<path d="M174.788 236.418C174.911 236.418 175.03 236.369 175.117 236.281C175.205 236.194 175.254 236.075 175.254 235.951C175.254 234.569 175.496 214.947 175.739 195.96C175.981 176.973 176.224 157.342 176.224 155.96C176.224 155.836 176.175 155.717 176.087 155.63C176 155.542 175.881 155.493 175.757 155.493C175.634 155.493 175.515 155.542 175.428 155.63C175.34 155.717 175.291 155.836 175.291 155.96C175.291 157.342 175.039 176.964 174.806 195.951C174.573 214.938 174.321 234.569 174.321 235.951C174.321 236.075 174.371 236.194 174.458 236.281C174.545 236.369 174.664 236.418 174.788 236.418Z" fill="#D89211"/>
<path d="M275.11 231.701L275.492 258.561H216.841C216.841 258.561 214.342 235.755 215.303 233.635C216.263 231.515 275.11 231.701 275.11 231.701Z" fill="#FFA400"/>
<g style="mix-blend-mode:multiply">
<g style="mix-blend-mode:multiply">
<path d="M209.839 119.433C207.344 121.317 204.577 122.806 201.633 123.851L200.253 111.897C200.253 111.897 215.76 104.79 221.019 99.4941C219.918 105.509 217.214 113.475 209.839 119.433Z" fill="#8E9BBB"/>
</g>
</g>
<path d="M182.145 57.9907C179.55 62.7799 177.913 68.0301 177.324 73.4472C176.551 81.9553 177.324 103.781 184.271 113.064C191.218 122.348 205.718 119.602 212.245 113.998C218.268 108.852 224.208 103.174 225.747 91.967C227.285 80.7599 222.464 59.513 208.776 55.0675C195.088 50.6221 182.145 57.9907 182.145 57.9907Z" fill="#FF9D8C"/>
<path d="M164.717 246.411C164.717 246.411 165.398 246.411 166.433 246.411H167.226L170.657 246.317H171.478C172.69 246.317 173.725 246.439 174.694 246.383C174.9 246.383 175.198 246.383 175.44 246.383C175.543 246.391 175.646 246.391 175.748 246.383C176.197 246.281 176.628 246.11 177.026 245.878C183.577 244.199 190.302 243.293 197.064 243.179C205.68 243.179 213.41 243.805 214.669 242.75C215.927 241.694 216.701 230.833 209.344 230.123L200.3 233.56C200.3 233.56 179.646 231.094 172.074 236.698C164.503 242.301 164.717 246.411 164.717 246.411Z" fill="#FF9D8C"/>
<path d="M174.685 246.317C174.89 246.317 175.189 246.317 175.431 246.317C175.668 245.942 175.933 245.586 176.224 245.252C178.555 242.871 184.187 241.33 186.229 240.835C186.318 240.812 186.396 240.756 186.445 240.678C186.493 240.599 186.51 240.505 186.49 240.414C186.479 240.369 186.459 240.326 186.432 240.288C186.404 240.251 186.369 240.219 186.33 240.194C186.29 240.17 186.246 240.154 186.199 240.147C186.153 240.14 186.106 240.142 186.061 240.153C183.086 240.872 176.736 242.712 174.983 245.756C174.965 245.84 174.816 246.13 174.685 246.317Z" fill="#223A7A"/>
<path d="M170.658 246.279C170.928 246.279 171.208 246.279 171.478 246.279C174.024 241.609 178.183 240.293 183.33 238.64L183.637 238.537C183.725 238.505 183.797 238.441 183.839 238.357C183.88 238.274 183.888 238.178 183.861 238.089C183.829 238.001 183.765 237.929 183.682 237.887C183.599 237.845 183.503 237.837 183.414 237.864L183.115 237.967C177.679 239.695 173.297 241.096 170.658 246.279Z" fill="#223A7A"/>
<path d="M166.433 246.383H167.226C168.628 243.866 170.549 241.677 172.861 239.96C175.172 238.244 177.822 237.039 180.634 236.427C180.68 236.419 180.724 236.402 180.764 236.377C180.803 236.352 180.837 236.32 180.864 236.282C180.891 236.244 180.91 236.201 180.92 236.155C180.93 236.109 180.931 236.062 180.923 236.016C180.905 235.925 180.852 235.845 180.775 235.792C180.699 235.74 180.605 235.72 180.513 235.736C173.557 237.034 167.934 242.731 166.433 246.383Z" fill="#223A7A"/>
<path d="M221.093 82.431C217.964 80.6399 215.443 77.9493 213.858 74.7075C212.082 71.3941 211.183 67.6805 211.247 63.9206C211.247 63.9206 205.848 63.052 197.745 65.4709C189.642 67.8898 180.028 71.1679 171.897 66.5263C163.766 61.8846 163.794 54.4506 167.748 51.3593C172.177 47.8944 180.961 50.0051 180.961 50.0051C180.961 50.0051 177.585 46.727 179.422 44.7937C181.259 42.8605 187.908 45.3728 187.908 45.3728C187.908 45.3728 196.011 38.9007 211.349 39.6665C226.688 40.4323 234.017 51.1725 234.884 63.1454C235.752 75.1184 231.416 87.11 231.416 87.11L221.093 82.431Z" fill="#1F1F37"/>
<g style="mix-blend-mode:multiply">
<g style="mix-blend-mode:multiply">
<path d="M189.978 85.3361C190.845 87.4842 190.826 90.0058 191.041 92.2565C191.209 94.0217 191.535 96.095 189.913 97.2904C189.139 97.8601 185.483 99.4011 187.367 100.653C188.23 101.012 189.178 101.119 190.099 100.961L191.796 100.867C192.402 100.821 192.99 100.634 193.596 100.634C193.671 100.637 193.744 100.664 193.803 100.711C193.862 100.758 193.904 100.823 193.924 100.896C193.944 100.969 193.94 101.046 193.913 101.116C193.885 101.187 193.837 101.247 193.773 101.288C192.679 101.848 191.467 102.136 190.239 102.128C189.234 102.237 188.219 102.059 187.311 101.614C186.98 101.496 186.683 101.296 186.449 101.034C186.214 100.771 186.049 100.454 185.968 100.111C185.967 99.6949 186.072 99.2855 186.275 98.9223C186.477 98.5591 186.77 98.2544 187.125 98.0375C187.852 97.4959 188.747 97.2437 189.484 96.7207C190.509 95.9829 190.416 94.7501 190.351 93.6107C190.174 90.865 189.549 88.1659 189.306 85.4295C189.26 85.0093 189.838 85.0093 189.978 85.3361Z" fill="#8E9BBB"/>
</g>
</g>
<path d="M182.09 91.7614C182.379 93.3957 183.563 94.5632 184.728 94.339C185.894 94.1149 186.593 92.6393 186.332 91.0142C186.071 89.3892 184.859 88.2124 183.693 88.4366C182.528 88.6607 181.8 90.1363 182.09 91.7614Z" fill="#0C0C1E"/>
<path d="M196.849 90.4724C197.111 92.2281 198.351 93.4983 199.647 93.2741C200.943 93.05 201.726 91.509 201.512 89.7532C201.297 87.9974 200.01 86.7273 198.714 86.9514C197.418 87.1756 196.588 88.7166 196.849 90.4724Z" fill="#0C0C1E"/>
<path d="M185.52 85.0464C184.617 85.115 183.712 85.1368 182.807 85.1118C182.583 85.1118 182.368 85.1118 182.154 85.1771C181.94 85.2425 182.443 85.1304 182.229 85.1771H182.089L181.744 85.2518C181.548 85.2985 181.361 85.3733 181.175 85.4106C180.996 85.4629 180.811 85.4881 180.625 85.4853H180.326H180.513C180.389 85.502 180.264 85.502 180.14 85.4853C179.891 85.4113 179.68 85.2436 179.551 85.0173C179.423 84.791 179.386 84.5237 179.45 84.2712C179.49 84.1265 179.557 83.9904 179.646 83.8696L179.767 83.7202L179.655 83.8509L179.776 83.6922C179.822 83.6043 179.894 83.5326 179.981 83.4867C180.056 83.4307 180.121 83.3653 180.196 83.3186C180.455 83.1606 180.739 83.047 181.035 82.9824C181.577 82.8409 182.135 82.7688 182.695 82.7676C183.244 82.7736 183.793 82.8173 184.336 82.8983C184.841 82.9565 185.324 83.1359 185.744 83.4213C185.899 83.5179 186.022 83.6579 186.098 83.8239C186.175 83.9899 186.2 84.1746 186.173 84.3553C186.154 84.5329 186.081 84.7005 185.965 84.8357C185.848 84.9708 185.693 85.0672 185.52 85.1118V85.0464Z" fill="#0C0C1E"/>
<path d="M195.815 82.4591L196.188 82.2723C196.299 82.2163 196.598 82.0575 196.374 82.1883L196.626 82.0482C196.998 81.8685 197.389 81.7307 197.791 81.6373C198.675 81.4165 199.59 81.3533 200.495 81.4505C201.439 81.5255 202.354 81.8128 203.172 82.291C203.294 82.3524 203.407 82.431 203.507 82.5245L203.703 82.7767L203.647 82.6926C203.776 82.78 203.882 82.8985 203.953 83.0372C204.025 83.1759 204.061 83.3303 204.057 83.4864C204.059 83.6294 204.02 83.7699 203.946 83.892C203.872 84.0141 203.765 84.1131 203.638 84.1776C203.491 84.2424 203.332 84.2759 203.172 84.2759C203.011 84.2759 202.852 84.2424 202.705 84.1776H203.19C202.951 84.229 202.703 84.229 202.463 84.1776C202.463 84.1776 202.202 84.1122 202.37 84.1776C202.538 84.2429 202.109 84.1776 202.062 84.1776C202.015 84.1776 201.717 84.1776 202.062 84.1776H201.894H201.456C200.812 84.1309 200.178 84.1028 199.591 84.0748C199.004 84.0468 198.397 84.0748 197.801 84.0748C197.549 84.0748 197.297 84.0748 197.045 84.0748C196.794 84.0748 196.961 84.0748 197.045 84.0748H196.878L196.57 84.1776C196.361 84.2367 196.137 84.2159 195.942 84.1193C195.748 84.0227 195.596 83.857 195.516 83.6545C195.439 83.4543 195.433 83.2336 195.499 83.0295C195.565 82.8254 195.7 82.6503 195.88 82.5338L195.815 82.4591Z" fill="#0C0C1E"/>
<path d="M191.237 109.328C190.279 107.553 188.737 106.163 186.873 105.397C188.495 105.228 196.123 104.519 198.062 105.621C200.216 106.844 197.661 111.766 193.204 112.018C192.768 112.042 192.33 112.017 191.899 111.943C191.865 111.035 191.639 110.143 191.237 109.328Z" fill="#8E5F67"/>
<path d="M226.492 98.9529C226.492 98.9529 225.718 101.951 221.28 105.425C217.916 107.866 214.268 109.889 210.417 111.449L209.904 109.198C209.904 109.198 216.552 106.294 219.639 103.109C222.725 99.9242 223.117 98.1777 223.117 98.1777L226.492 98.9529Z" fill="#DEE1EB"/>
<path d="M209.131 107.527C207.783 107.446 206.451 107.856 205.382 108.682C204.313 109.508 203.577 110.693 203.312 112.019C203.07 113.887 204.785 115.904 208.795 114.101C213.783 111.86 212.702 107.695 209.131 107.527Z" fill="#8E5F67"/>
<path d="M223.695 76.8287C223.695 76.8287 222.156 65.7243 214.725 58.1501C200.542 43.7489 188.485 44.6175 188.485 44.6175C188.485 44.6175 188.579 42.5909 193.148 41.0499C197.4 39.593 199.321 40.3681 199.321 40.3681C199.321 40.3681 210.985 41.3021 220.832 52.257C230.679 63.212 231.732 77.0808 231.732 77.0808L223.695 76.8287Z" fill="#DEE1EB"/>
<path d="M224.758 75.4741C234.082 73.9051 239.22 81.1804 239.612 88.5491C240.003 95.9178 234.67 101.475 227.555 100.914C211.545 99.6348 213.372 77.4073 224.758 75.4741Z" fill="white"/>
<path d="M229.383 93.7505C230.556 93.7687 231.712 93.4595 232.72 92.8575C233.727 92.2554 234.548 91.3843 235.09 90.3416C235.713 89.2151 236.017 87.9394 235.97 86.6523C235.922 85.3651 235.524 84.1155 234.819 83.0383C234.796 82.9939 234.763 82.955 234.724 82.9242C234.684 82.8933 234.639 82.8712 234.59 82.8594C234.541 82.8475 234.491 82.8461 234.441 82.8552C234.392 82.8644 234.345 82.8839 234.304 82.9125C234.263 82.9411 234.228 82.9782 234.202 83.0212C234.177 83.0642 234.16 83.1122 234.154 83.162C234.148 83.2119 234.153 83.2624 234.168 83.3103C234.183 83.3582 234.208 83.4024 234.241 83.4399C234.87 84.4055 235.223 85.5244 235.264 86.6762C235.305 87.8281 235.032 88.9694 234.474 89.9774C233.983 90.9397 233.224 91.7392 232.289 92.2794C231.355 92.8196 230.284 93.0775 229.206 93.022C228.202 93.0184 227.215 92.7668 226.332 92.2894C225.449 91.8121 224.697 91.1238 224.143 90.2856C223.491 89.2801 223.081 88.1363 222.947 86.9449C222.813 85.7535 222.957 84.5471 223.369 83.4212C223.754 82.3644 224.469 81.4601 225.408 80.8427C226.347 80.2252 227.46 79.9275 228.581 79.9937C228.672 80.0044 228.764 79.9793 228.837 79.9235C228.91 79.8678 228.959 79.7858 228.973 79.6949C228.979 79.6487 228.976 79.6017 228.964 79.5567C228.952 79.5117 228.931 79.4696 228.902 79.433C228.874 79.3964 228.838 79.3659 228.797 79.3435C228.756 79.3211 228.711 79.3072 228.665 79.3026C227.387 79.2035 226.112 79.5284 225.037 80.2272C223.962 80.926 223.146 81.9598 222.716 83.1691C222.273 84.3952 222.118 85.7072 222.264 87.003C222.409 88.2988 222.851 89.5436 223.555 90.6405C224.169 91.5675 224.999 92.3303 225.974 92.8625C226.949 93.3947 228.04 93.6803 229.15 93.6944L229.383 93.7505Z" fill="#818FB3"/>
<path d="M236.134 124.075C236.134 124.075 264.303 131.033 274.14 142.24C283.977 153.447 288.612 208.68 288.808 218.953C289.003 229.226 281.861 233.447 277.618 236.352C273.376 239.256 254.661 244.468 239.612 245.234C224.562 245.999 210.286 245.234 210.286 245.234C210.11 242.399 209.338 239.633 208.02 237.118C205.876 232.644 203.153 231.71 203.153 231.71L216.077 227.041C216.077 227.041 218.333 186.424 221.858 166.756C225.914 144.173 236.134 124.075 236.134 124.075Z" fill="#FFA400"/>
<path d="M189.455 220.578C189.52 220.575 189.583 220.559 189.641 220.531C189.754 220.48 189.841 220.387 189.885 220.271C189.929 220.156 189.925 220.028 189.875 219.915C187.236 213.956 184.504 202.245 182.965 194.036L182.835 193.373C182.368 190.954 181.79 187.946 182.947 185.901C183.534 184.846 184.867 182.548 186.154 180.298C187.441 178.047 188.737 175.843 189.091 175.189C189.772 173.928 187.627 170.566 184.532 165.943C183.692 164.692 182.975 163.608 182.555 162.88C181.445 161.012 182.182 159.219 183.03 157.192L183.32 156.492C184.093 154.624 184.97 152.691 185.818 150.888L186.807 148.619L188.178 145.574C190.867 139.247 193.921 133.082 197.325 127.11C197.358 127.059 197.38 127.001 197.39 126.94C197.4 126.88 197.398 126.818 197.383 126.758C197.368 126.699 197.341 126.643 197.304 126.594C197.267 126.546 197.22 126.505 197.166 126.475C197.06 126.413 196.933 126.394 196.813 126.424C196.692 126.454 196.589 126.529 196.523 126.634C193.119 132.633 190.062 138.823 187.366 145.173L186.005 148.217L184.97 150.468C184.121 152.336 183.236 154.204 182.462 156.137L182.173 156.828C181.305 158.892 180.41 161.031 181.744 163.365C182.182 164.122 182.909 165.233 183.758 166.475C185.371 168.885 188.737 173.947 188.271 174.769C187.926 175.404 186.676 177.571 185.343 179.84C184.01 182.109 182.723 184.36 182.135 185.444C180.811 187.816 181.427 191.047 181.921 193.578L182.051 194.232C182.611 197.22 185.576 212.537 189.026 220.326C189.066 220.405 189.127 220.471 189.203 220.515C189.279 220.56 189.367 220.582 189.455 220.578Z" fill="#D89211"/>
<path d="M216.944 222.213C217.004 222.215 217.065 222.205 217.121 222.182C217.177 222.16 217.228 222.126 217.27 222.082C219.461 219.869 230.035 201.536 230.828 198.08C231.257 196.212 230.175 191.412 229.131 186.779C228.32 183.193 227.48 179.486 227.713 178.477C228.077 176.973 230.772 174.741 233.392 172.63C236.553 170.044 239.817 167.372 240.451 164.963C241.169 162.227 240.553 145.098 240.143 133.77C239.994 129.698 239.882 126.476 239.882 125.364C239.882 125.241 239.833 125.122 239.745 125.034C239.658 124.947 239.539 124.897 239.416 124.897C239.293 124.9 239.176 124.95 239.089 125.037C239.002 125.124 238.952 125.241 238.95 125.364C238.95 126.532 239.071 129.754 239.211 133.844C239.593 144.435 240.227 162.161 239.546 164.767C238.987 166.878 235.705 169.567 232.805 171.939C229.905 174.312 227.21 176.488 226.809 178.299C226.52 179.514 227.303 182.969 228.217 187.022C229.196 191.337 230.296 196.231 229.914 197.912C229.14 201.293 218.725 219.29 216.608 221.456C216.564 221.5 216.53 221.551 216.506 221.608C216.482 221.665 216.47 221.726 216.47 221.788C216.47 221.849 216.482 221.91 216.506 221.967C216.53 222.024 216.564 222.076 216.608 222.119C216.654 222.158 216.708 222.186 216.766 222.202C216.824 222.218 216.884 222.222 216.944 222.213Z" fill="#D89211"/>
<path d="M254.876 214.199C254.999 214.183 255.11 214.119 255.185 214.021C255.26 213.923 255.293 213.799 255.277 213.676C254.932 211.248 249.58 162.871 249.338 159.163C249.329 159.039 249.272 158.924 249.178 158.842C249.084 158.761 248.962 158.72 248.839 158.729C248.715 158.737 248.6 158.795 248.519 158.889C248.437 158.982 248.397 159.104 248.405 159.228C248.648 162.964 254 211.37 254.354 213.807C254.373 213.928 254.438 214.037 254.535 214.11C254.633 214.183 254.755 214.215 254.876 214.199Z" fill="#D89211"/>
<path d="M216.459 227.358C216.518 227.372 216.578 227.372 216.637 227.358C217.821 226.882 223.061 225.108 229.691 222.866C243.081 218.346 261.394 212.154 264.909 210.333C264.98 210.311 265.044 210.272 265.097 210.22C265.149 210.167 265.188 210.103 265.21 210.032C265.232 209.962 265.236 209.887 265.223 209.814C265.21 209.741 265.179 209.672 265.133 209.614C265.105 209.559 265.066 209.51 265.018 209.471C264.971 209.431 264.916 209.401 264.857 209.383C264.798 209.365 264.736 209.359 264.675 209.364C264.613 209.37 264.554 209.389 264.499 209.418C261.077 211.192 242.027 217.627 229.42 221.886C222.772 224.136 217.522 225.911 216.31 226.397C216.197 226.444 216.107 226.534 216.06 226.648C216.013 226.762 216.012 226.89 216.058 227.004C216.08 227.097 216.13 227.182 216.202 227.246C216.274 227.31 216.364 227.349 216.459 227.358Z" fill="#D89211"/>
<path d="M222.902 246.598C234.679 246.598 257.524 244.468 274.877 238.323C274.983 238.275 275.068 238.189 275.114 238.081C275.16 237.974 275.164 237.853 275.125 237.743C275.086 237.633 275.008 237.541 274.905 237.486C274.802 237.431 274.682 237.416 274.569 237.445C252.648 245.216 221.979 246.542 216.273 245.253C216.211 245.239 216.148 245.238 216.086 245.249C216.025 245.26 215.966 245.283 215.913 245.317C215.86 245.351 215.815 245.395 215.779 245.446C215.743 245.498 215.717 245.556 215.704 245.617C215.69 245.678 215.689 245.742 215.7 245.804C215.711 245.865 215.734 245.924 215.768 245.977C215.802 246.03 215.846 246.076 215.897 246.112C215.948 246.148 216.006 246.173 216.068 246.187C218.328 246.534 220.616 246.672 222.902 246.598Z" fill="#D89211"/>
<path d="M357.763 130.593C354.108 133.816 349.473 135.88 346.266 139.606C344.998 141.072 343.86 142.632 342.694 144.163C341.837 145.284 339.561 147.143 339.188 148.553C339.03 149.169 339.058 148.329 339.188 147.712V147.628C339.505 144.827 339.739 141.922 339.841 139.064C339.944 136.206 339.757 133.33 339.934 130.481C340.186 126.456 341.445 122.562 344.727 120.04C346.331 118.807 348.392 118.06 349.874 116.687C351.357 115.314 350.714 113.886 349.874 112.457C348.984 111.16 348.307 109.728 347.87 108.217C347.685 106.426 348.145 104.627 349.166 103.145C351.077 99.9326 355.32 96.3557 359.329 96.832C362.677 97.2336 363.059 101.1 363.003 103.799C362.947 106.498 362.705 109.029 362.677 111.644C362.649 114.259 363.106 116.977 363.143 119.657C363.208 124.168 361.11 127.642 357.763 130.593Z" fill="#00CF8D"/>
<path d="M323.775 172.415C322.779 170.002 321.565 167.686 320.148 165.495C318.18 162.459 315.998 159.499 314.674 156.099C313.35 152.7 313.518 148.917 313.387 145.266C313.285 142.576 312.455 139.896 312.707 137.206C312.809 135.917 313.546 133.825 315.215 134.04C316.52 134.208 317.285 135.814 317.788 136.842C318.606 138.665 319.313 140.536 319.905 142.445C320.157 143.183 320.399 143.939 320.716 144.649C320.903 145.06 321.5 146.069 322.05 145.929C322.982 145.695 322.143 141.819 322.003 141.138C321.294 137.682 320.222 134.479 320.073 130.93C319.858 125.793 320.259 119.667 325.285 116.856C326.6 116.118 328.26 115.679 329.509 116.781C330.759 117.883 331.085 119.741 331.272 121.292C331.831 126.045 330.712 130.538 329.192 135.011C327.943 138.7 326.395 142.483 326.339 146.461C326.227 150.253 328.204 153.624 329.136 157.211C330.087 160.662 330.487 164.243 330.321 167.82C330.321 170.136 330.246 172.434 330.078 174.75C329.92 176.87 329.733 178.999 329.472 181.119C329.472 181.549 329.369 181.997 329.313 182.436C330.134 180.475 330.414 178.215 331.094 176.244C332.297 172.723 333.687 169.286 334.824 165.756C335.703 162.813 336.739 159.92 337.929 157.089C339.114 154.455 340.531 151.672 342.731 149.739C344.015 148.547 345.699 147.88 347.45 147.871C348.556 147.961 349.647 148.193 350.695 148.562C351.28 148.766 351.908 148.816 352.518 148.708C353.129 148.6 353.701 148.338 354.182 147.946C357.79 145.144 358.844 140.204 361.548 136.692C363.534 134.077 368.253 129.613 371.721 132.471C373.586 133.984 374.062 136.907 373.968 139.148C373.715 141.927 372.752 144.593 371.171 146.891C369.614 149.394 367.6 151.635 366.173 154.213C365.412 155.643 365.119 157.276 365.334 158.882C365.576 160.463 365.477 162.078 365.045 163.617C363.394 168.287 358.247 167.643 354.238 167.764C351.36 167.821 348.505 168.293 345.762 169.165C344.319 169.611 343.004 170.398 341.929 171.459C340.853 172.521 340.047 173.825 339.58 175.263C338.787 177.467 338.358 179.933 336.857 181.801C336.143 182.668 335.232 183.35 334.2 183.79C332.633 184.481 327.868 184.78 327.831 184.341C327.571 182.842 327.155 181.374 326.591 179.961C325.742 177.458 324.81 174.918 323.775 172.415Z" fill="#00CF8D"/>
<path d="M301.648 171.529C302.058 168.858 301.984 165.925 303.242 163.45C303.293 163.37 303.372 163.311 303.464 163.287C303.555 163.263 303.653 163.274 303.737 163.32C304.669 163.824 304.669 165.29 304.753 166.196C304.884 167.681 304.753 169.175 304.967 170.66C305.284 173.314 305.909 175.922 306.832 178.431C307.3 179.71 308.073 180.856 309.083 181.767C310.094 182.679 311.313 183.329 312.632 183.661C314.453 184.078 316.177 184.839 317.714 185.902C319.021 187.009 320.041 188.415 320.689 190.002C322.553 194.205 323.486 198.912 324.325 203.404C324.913 206.439 325.388 209.474 326.125 212.472C326.929 215.45 327.576 218.467 328.064 221.513C328.139 221.662 328.213 221.821 328.279 221.97C328.465 222.428 327.757 222.68 327.505 222.297C324.614 217.833 321.08 213.826 316.315 211.361C314.143 210.249 311.252 210.025 309.434 208.279C308.054 206.943 307.867 204.917 308.073 203.114C308.343 200.742 309.481 198.79 310.665 196.764C311.308 195.652 312.082 194.466 311.821 193.112C311.641 192.501 311.339 191.932 310.934 191.441C310.528 190.95 310.027 190.546 309.462 190.254C307.466 189.012 305.117 188.452 303.485 186.649C301.984 185.005 301.089 182.896 300.949 180.672C300.843 177.608 301.077 174.541 301.648 171.529Z" fill="#00CF8D"/>
<path d="M341.146 186.957C343.708 183.663 346.788 180.808 350.265 178.505C352.13 177.272 356.485 174.834 357.371 178.505C357.883 180.634 355.804 182.726 354.433 184.108C352.373 186.116 349.995 187.844 348.261 190.16C350.405 190.851 352.652 190.982 354.527 192.467C356.736 194.232 357.734 197.641 355.534 199.798C354.399 200.784 353.111 201.576 351.72 202.142C349.986 202.983 348.223 203.749 346.452 204.486C342.619 206.093 338.74 207.718 335.477 210.342C332.213 212.966 329.015 217.533 328.754 221.904C328.754 222.315 328.884 221.904 328.632 221.745C328.502 221.867 328.045 221.652 328.045 221.409C328.033 215.015 329.351 208.689 331.915 202.833C334.353 197.194 337.452 191.864 341.146 186.957Z" fill="#00CF8D"/>
<path d="M349.986 126.662C348.568 129.595 347.095 132.462 345.529 135.32C343.964 138.026 342.581 140.834 341.389 143.725C339.999 147.339 338.591 150.898 337.081 154.484C335.536 158.202 334.207 162.006 333.099 165.878C330.909 173.46 329.384 181.219 328.539 189.067C328.132 193.044 327.977 197.043 328.073 201.04C328.157 204.169 328.511 207.26 328.8 210.379C329.176 213.615 329.264 216.878 329.062 220.13C328.828 222.847 328.4 226.069 326.264 228.003C326.18 228.081 326.071 228.126 325.956 228.131C325.841 228.136 325.728 228.1 325.637 228.029C325.547 227.959 325.484 227.858 325.46 227.746C325.437 227.633 325.454 227.515 325.509 227.414C328.008 222.287 327.868 216.702 327.374 211.136C327.113 208.063 326.749 205.009 326.647 201.927C326.525 198.004 326.656 194.076 327.038 190.169C327.833 182.488 329.271 174.887 331.337 167.447C332.364 163.643 333.61 159.901 335.067 156.24C336.521 152.551 338.2 148.974 339.608 145.275C342.153 138.579 346.032 132.639 349.473 126.41C349.65 126.083 350.116 126.41 349.967 126.69L349.986 126.662Z" fill="#43588E"/>
<path d="M328.474 181.4C328.073 176.524 327.645 171.827 326.003 167.176C325.239 165.009 324.306 162.898 323.57 160.722C322.964 158.929 322.05 156.454 322.516 154.549C322.526 154.501 322.553 154.458 322.591 154.427C322.629 154.396 322.677 154.379 322.726 154.379C322.775 154.379 322.823 154.396 322.861 154.427C322.899 154.458 322.925 154.501 322.936 154.549C323.253 155.642 323.215 156.837 323.439 157.958C323.67 159.046 323.957 160.121 324.297 161.18C325.015 163.431 325.957 165.588 326.768 167.802C328.401 172.139 329.097 176.773 328.81 181.4C328.81 181.444 328.792 181.487 328.761 181.518C328.729 181.55 328.687 181.568 328.642 181.568C328.598 181.568 328.555 181.55 328.524 181.518C328.492 181.487 328.474 181.444 328.474 181.4Z" fill="#43588E"/>
<path d="M356.681 153.382C354.741 158.051 348.942 158.332 344.708 159.378C343.264 159.774 341.914 160.458 340.739 161.386C339.563 162.315 338.586 163.471 337.864 164.785C336.175 167.754 334.863 170.923 333.957 174.218C333.957 174.218 333.892 174.218 333.901 174.218C335.085 168.614 336.773 161.862 342.545 159.275C347.161 157.192 353.25 158.238 356.205 153.242C356.355 152.99 356.802 153.158 356.69 153.438L356.681 153.382Z" fill="#43588E"/>
<path d="M331.533 180.662C331.3 180.97 331.085 181.297 330.852 181.596C330.74 181.749 330.612 181.89 330.47 182.016C330.325 182.164 330.135 182.26 329.929 182.287C329.909 182.286 329.889 182.28 329.871 182.27C329.854 182.259 329.839 182.244 329.829 182.227C329.819 182.209 329.813 182.189 329.813 182.169C329.812 182.148 329.817 182.128 329.827 182.11C329.944 181.972 330.079 181.849 330.228 181.746L330.647 181.372C330.918 181.12 331.16 180.84 331.43 180.578C331.477 180.578 331.58 180.578 331.533 180.662Z" fill="#43588E"/>
<path d="M343.608 195.484C340.235 198.24 337.257 201.448 334.759 205.019C333.591 206.727 332.518 208.498 331.542 210.324C330.557 212.325 329.686 214.379 328.932 216.478C328.866 216.637 328.587 216.646 328.605 216.478C329.071 212.08 331.85 208.307 334.069 204.655C335.251 202.828 336.64 201.145 338.209 199.64C339.768 197.986 341.476 196.479 343.31 195.138C343.534 194.97 343.823 195.344 343.608 195.521V195.484Z" fill="#43588E"/>
<path d="M317.08 190.309C318.684 191.243 318.731 193.765 318.768 195.38C318.824 198.5 318.059 201.423 319.421 204.393C320.651 207.073 322.619 209.305 324.167 211.799C325.621 214.134 327.048 217.113 327.02 219.915C327.02 220.073 326.768 220.167 326.694 219.999C326.204 218.675 325.799 217.321 325.482 215.945C325.016 214.467 324.351 213.059 323.505 211.761C322.013 209.455 320.185 207.344 318.973 204.86C317.705 202.235 317.891 199.639 317.975 196.8C317.975 194.988 318.208 192.084 316.754 190.739C316.703 190.693 316.672 190.63 316.666 190.563C316.659 190.495 316.679 190.428 316.72 190.373C316.761 190.319 316.821 190.283 316.887 190.271C316.954 190.259 317.023 190.273 317.08 190.309Z" fill="#43588E"/>
<path d="M327.803 220.205C334.274 220.111 346.582 220.046 346.582 220.046L343.533 242.703C343.209 245.174 342 247.443 340.13 249.087C338.26 250.732 335.858 251.639 333.369 251.641H322.245C319.761 251.643 317.36 250.742 315.489 249.105C313.618 247.468 312.404 245.206 312.072 242.74L309.032 220.083C309.032 220.083 321.341 220.111 327.803 220.205Z" fill="#727272"/>
<path d="M15.3392 178.561L52.2176 251.734L159.738 252.509L126.562 177.533L15.3392 178.561Z" fill="#B3B3F9"/>
<path d="M231.099 252.051V246.195H161.501L129.471 175.861H18.1366L15.3393 178.56H124.081L157.361 251.986C157.361 251.986 231.099 251.855 231.099 252.051Z" fill="#7575F7"/>
<path d="M71.1837 218.953C72.3959 222.596 78.9883 225.416 85.9071 225.248C92.8259 225.08 97.4509 221.97 96.2387 218.318C95.0265 214.667 88.4247 211.856 81.506 212.024C74.5872 212.192 69.9622 215.292 71.1837 218.953Z" fill="#7575F7"/>
<path d="M157.36 252.453C157.425 252.466 157.492 252.466 157.556 252.453C157.669 252.402 157.756 252.309 157.8 252.193C157.844 252.077 157.84 251.949 157.789 251.837L124.333 178.094H15.3391C15.2154 178.094 15.0968 178.143 15.0094 178.231C14.922 178.318 14.8728 178.437 14.8728 178.561C14.8728 178.685 14.922 178.803 15.0094 178.891C15.0968 178.978 15.2154 179.028 15.3391 179.028H123.783L156.969 252.182C157.002 252.26 157.056 252.326 157.126 252.374C157.195 252.422 157.276 252.449 157.36 252.453Z" fill="#68BF7B"/>
<path d="M235.948 257.59H363.852V285.991H235.948V257.59Z" fill="#596B9B"/>
<path d="M6.54649 257.59H236.675V285.991H6.54649V257.59Z" fill="#7A89AF"/>
<g style="mix-blend-mode:multiply">
<path d="M235.948 257.59H236.675H363.852V262.811H236.675H235.948H6.54657V257.59H235.948Z" fill="#BDC4D7"/>
</g>
<path d="M230.353 251.986H370.024V258.944H230.353V251.986Z" fill="#6F7FA9"/>
<path d="M0.951691 251.986H231.08V258.944H0.951691V251.986Z" fill="#9CA6C3"/>
<path d="M268.238 70.2529H313.387C316.183 70.2529 318.45 72.5234 318.45 75.3242V97.8972C318.45 100.698 316.183 102.968 313.387 102.968H268.238C265.442 102.968 263.175 100.698 263.175 97.8972V75.3242C263.175 72.5234 265.442 70.2529 268.238 70.2529Z" fill="#E5E5EB"/>
<path d="M250.307 86.6066L267.269 79.4434V93.7698L250.307 86.6066Z" fill="#E5E5EB"/>
<path d="M301.527 89.7349C299.802 89.7349 298.403 88.3341 298.403 86.6062C298.403 84.8783 299.802 83.4775 301.527 83.4775C303.252 83.4775 304.65 84.8783 304.65 86.6062C304.65 88.3341 303.252 89.7349 301.527 89.7349Z" fill="#223A7A"/>
<path d="M290.813 89.7349C289.088 89.7349 287.689 88.3341 287.689 86.6062C287.689 84.8783 289.088 83.4775 290.813 83.4775C292.538 83.4775 293.937 84.8783 293.937 86.6062C293.937 88.3341 292.538 89.7349 290.813 89.7349Z" fill="#223A7A"/>
<path d="M280.099 89.7349C278.374 89.7349 276.975 88.3341 276.975 86.6062C276.975 84.8783 278.374 83.4775 280.099 83.4775C281.824 83.4775 283.223 84.8783 283.223 86.6062C283.223 88.3341 281.824 89.7349 280.099 89.7349Z" fill="#223A7A"/>
<path d="M38.3614 0.796889H142.6C145.815 0.796889 148.898 2.07603 151.171 4.35292C153.445 6.62981 154.722 9.71794 154.722 12.9379V62.4361C154.722 65.6561 153.445 68.7443 151.171 71.0211C148.898 73.298 145.815 74.5772 142.6 74.5772H133.275C133.014 79.0694 133.658 85.7843 137.397 94.2924C128.109 90.0652 120.256 83.2128 114.804 74.5772H38.3427C35.1278 74.5772 32.0446 73.298 29.7713 71.0211C27.498 68.7443 26.2209 65.6561 26.2209 62.4361V12.9379C26.2209 11.342 26.535 9.76169 27.1454 8.28745C27.7557 6.81321 28.6503 5.47396 29.7779 4.34631C30.9055 3.21867 32.244 2.32475 33.7168 1.71571C35.1897 1.10666 36.7679 0.794434 38.3614 0.796889Z" fill="#68BF7B"/>
<path d="M82.8296 24.3969H134.534C135.215 24.3969 135.868 24.1266 136.35 23.6453C136.833 23.1639 137.105 22.5106 137.107 21.8286C137.107 21.145 136.836 20.4894 136.354 20.006C135.871 19.5226 135.216 19.251 134.534 19.251H82.8296C82.147 19.251 81.4924 19.5226 81.0098 20.006C80.5271 20.4894 80.256 21.145 80.256 21.8286C80.2585 22.5106 80.5307 23.1639 81.0131 23.6453C81.4954 24.1266 82.1486 24.3969 82.8296 24.3969Z" fill="white"/>
<path d="M45.7559 39.405H135.523C135.941 39.405 136.342 39.2387 136.637 38.9427C136.933 38.6467 137.099 38.2452 137.099 37.8266C137.099 37.408 136.933 37.0066 136.637 36.7106C136.342 36.4146 135.941 36.2483 135.523 36.2483H45.7466C45.5373 36.2446 45.3294 36.2827 45.135 36.3603C44.9405 36.438 44.7635 36.5536 44.6142 36.7006C44.4649 36.8475 44.3463 37.0228 44.2654 37.2161C44.1844 37.4094 44.1428 37.617 44.1428 37.8266C44.1427 38.0371 44.1847 38.2454 44.2662 38.4394C44.3477 38.6334 44.4671 38.8091 44.6174 38.9561C44.7677 39.1032 44.9459 39.2186 45.1414 39.2957C45.3369 39.3728 45.5459 39.41 45.7559 39.405Z" fill="#D2E6FF"/>
<path d="M45.7559 48.1657H135.523C135.941 48.1657 136.342 47.9994 136.637 47.7034C136.933 47.4074 137.099 47.006 137.099 46.5874C137.099 46.1688 136.933 45.7673 136.637 45.4713C136.342 45.1753 135.941 45.009 135.523 45.009H45.7466C45.5373 45.0053 45.3294 45.0434 45.135 45.121C44.9405 45.1987 44.7635 45.3144 44.6142 45.4613C44.4649 45.6082 44.3463 45.7835 44.2654 45.9768C44.1844 46.1702 44.1428 46.3777 44.1428 46.5874C44.1427 46.7978 44.1847 47.0062 44.2662 47.2001C44.3477 47.3941 44.4671 47.5698 44.6174 47.7168C44.7677 47.8639 44.9459 47.9794 45.1414 48.0565C45.3369 48.1335 45.5459 48.1707 45.7559 48.1657Z" fill="#D2E6FF"/>
<path d="M65.3374 57.5046H135.523C135.941 57.5046 136.342 57.3383 136.637 57.0423C136.933 56.7463 137.099 56.3448 137.099 55.9262C137.099 55.5076 136.933 55.1062 136.637 54.8102C136.342 54.5142 135.941 54.3479 135.523 54.3479H65.3281C65.1188 54.3442 64.9109 54.3823 64.7164 54.4599C64.522 54.5376 64.345 54.6532 64.1957 54.8002C64.0464 54.9471 63.9278 55.1224 63.8468 55.3157C63.7659 55.509 63.7242 55.7166 63.7243 55.9262C63.7242 56.1367 63.7662 56.345 63.8477 56.539C63.9292 56.733 64.0486 56.9087 64.1989 57.0557C64.3492 57.2028 64.5274 57.3182 64.7229 57.3953C64.9184 57.4724 65.1274 57.5096 65.3374 57.5046Z" fill="#D2E6FF"/>
<path d="M46.4644 24.3969H71.1276C71.8085 24.3969 72.4617 24.1267 72.9441 23.6453C73.4265 23.1639 73.6987 22.5106 73.7012 21.8286C73.7012 21.145 73.43 20.4894 72.9474 20.006C72.4647 19.5226 71.8102 19.251 71.1276 19.251H46.4644C46.1261 19.2498 45.7909 19.3156 45.4781 19.4447C45.1653 19.5738 44.8811 19.7636 44.6419 20.0032C44.4026 20.2428 44.2131 20.5275 44.0842 20.8408C43.9553 21.154 43.8896 21.4898 43.8909 21.8286C43.8909 22.1667 43.9575 22.5014 44.0869 22.8136C44.2164 23.1259 44.4061 23.4094 44.6452 23.648C44.8843 23.8866 45.1681 24.0756 45.4802 24.2041C45.7924 24.3326 46.1269 24.3982 46.4644 24.3969Z" fill="white"/>
<path d="M108.631 115.408H136.632C137.662 115.408 138.497 116.244 138.497 117.276V136.44C138.497 137.472 137.662 138.308 136.632 138.308H108.631C107.601 138.308 106.766 137.472 106.766 136.44V117.276C106.766 116.244 107.601 115.408 108.631 115.408Z" fill="white"/>
<path d="M122.468 130.287C122.632 130.286 122.791 130.226 122.915 130.118L138.161 117.51C138.231 117.449 138.289 117.375 138.331 117.291C138.372 117.207 138.397 117.116 138.404 117.023C138.41 116.93 138.398 116.836 138.369 116.748C138.339 116.659 138.292 116.577 138.231 116.506C138.17 116.436 138.095 116.378 138.012 116.337C137.928 116.295 137.837 116.27 137.744 116.264C137.651 116.257 137.558 116.269 137.469 116.299C137.381 116.328 137.299 116.375 137.229 116.436L122.468 128.662L108.061 116.11C107.922 115.986 107.739 115.923 107.552 115.934C107.366 115.945 107.192 116.03 107.068 116.17C106.945 116.31 106.882 116.494 106.893 116.68C106.904 116.867 106.989 117.041 107.129 117.165L121.983 130.109C122.117 130.226 122.29 130.29 122.468 130.287Z" fill="#6F7FA9"/>
<path d="M137.677 137.786C137.814 137.786 137.948 137.745 138.063 137.669C138.177 137.593 138.267 137.486 138.32 137.359C138.374 137.233 138.389 137.093 138.364 136.958C138.34 136.823 138.276 136.699 138.181 136.6L127.523 125.392C127.458 125.326 127.382 125.274 127.297 125.238C127.212 125.202 127.121 125.184 127.028 125.184C126.936 125.184 126.845 125.202 126.76 125.238C126.675 125.274 126.599 125.326 126.534 125.392C126.403 125.524 126.33 125.702 126.33 125.887C126.33 126.073 126.403 126.251 126.534 126.382L137.192 137.589C137.322 137.716 137.496 137.786 137.677 137.786Z" fill="#6F7FA9"/>
<path d="M107.549 137.375C107.642 137.377 107.733 137.359 107.818 137.324C107.903 137.289 107.98 137.236 108.044 137.169L118.692 126.494C118.816 126.362 118.883 126.186 118.88 126.004C118.877 125.823 118.803 125.65 118.675 125.522C118.547 125.393 118.374 125.32 118.193 125.317C118.012 125.313 117.836 125.381 117.704 125.504L107.083 136.17C106.952 136.301 106.879 136.479 106.879 136.665C106.879 136.85 106.952 137.028 107.083 137.16C107.205 137.289 107.372 137.366 107.549 137.375Z" fill="#6F7FA9"/>
<path d="M106.245 121.452C102.991 121.452 100.354 118.808 100.354 115.546C100.354 112.283 102.991 109.639 106.245 109.639C109.498 109.639 112.136 112.283 112.136 115.546C112.136 118.808 109.498 121.452 106.245 121.452Z" fill="#FF5F42"/>
</svg>
