<svg width="24" height="25" viewBox="0 0 24 25" fill="none" xmlns="http://www.w3.org/2000/svg">
<g clip-path="url(#clip0_17408_91616)">
<path d="M23.996 5.05775C23.1132 5.45 22.166 5.71475 21.1685 5.8325C22.1847 5.2235 22.9655 4.259 23.3337 3.11C22.3812 3.6725 21.329 4.085 20.2077 4.304C19.3092 3.34775 18.0297 2.75 16.6137 2.75C13.8942 2.75 11.6915 4.9535 11.6915 7.67225C11.6915 8.05775 11.7342 8.43425 11.819 8.79425C7.72624 8.58725 4.09924 6.6275 1.67149 3.65C1.24774 4.3775 1.00399 5.2235 1.00399 6.125C1.00399 7.835 1.87399 9.34025 3.19399 10.2238C2.38699 10.1975 1.62799 9.97625 0.964239 9.60875V9.66875C0.964239 12.0553 2.65924 14.045 4.91224 14.4972C4.49974 14.6097 4.06474 14.6698 3.61474 14.6698C3.29749 14.6698 2.98999 14.6397 2.68999 14.582C3.31549 16.5365 5.13499 17.96 7.28749 18.0005C5.60374 19.3205 3.48124 20.108 1.17499 20.108C0.777489 20.108 0.385238 20.0855 0.000488281 20.0405C2.17999 21.4355 4.76749 22.25 7.54774 22.25C16.6017 22.25 21.554 14.75 21.554 8.24375C21.554 8.03075 21.548 7.81775 21.539 7.60625C22.5012 6.9125 23.3352 6.04625 23.996 5.05775Z" fill="#68BF7B"/>
</g>
<defs>
<clipPath id="clip0_17408_91616">
<rect width="24" height="24" fill="white" transform="translate(0.000488281 0.5)"/>
</clipPath>
</defs>
</svg>
