<svg width="25" height="25" viewBox="0 0 25 25" fill="none" xmlns="http://www.w3.org/2000/svg">
<path d="M17.0423 3.74984C18.2017 3.75331 19.3125 4.21539 20.1323 5.03517C20.9521 5.85495 21.4142 6.96582 21.4176 8.12516V16.8748C21.4142 18.0342 20.9521 19.1451 20.1323 19.9648C19.3125 20.7846 18.2017 21.2467 17.0423 21.2502H8.29264C7.1333 21.2467 6.02243 20.7846 5.20265 19.9648C4.38287 19.1451 3.92079 18.0342 3.91732 16.8748V8.12516C3.92079 6.96582 4.38287 5.85495 5.20265 5.03517C6.02243 4.21539 7.1333 3.75331 8.29264 3.74984H17.0423ZM17.0423 2H8.29264C4.92373 2 2.16748 4.75625 2.16748 8.12516V16.8748C2.16748 20.2437 4.92373 23 8.29264 23H17.0423C20.4112 23 23.1675 20.2437 23.1675 16.8748V8.12516C23.1675 4.75625 20.4112 2 17.0423 2Z" fill="#68BF7B"/>
<path d="M18.3548 8.125C18.0952 8.125 17.8415 8.04802 17.6256 7.9038C17.4098 7.75959 17.2416 7.5546 17.1422 7.31477C17.0429 7.07494 17.0169 6.81104 17.0675 6.55644C17.1182 6.30184 17.2432 6.06798 17.4267 5.88442C17.6103 5.70087 17.8442 5.57586 18.0988 5.52522C18.3534 5.47458 18.6173 5.50057 18.8571 5.59991C19.0969 5.69925 19.3019 5.86748 19.4461 6.08331C19.5903 6.29915 19.6673 6.55291 19.6673 6.8125C19.6677 6.98496 19.634 7.1558 19.5682 7.31521C19.5023 7.47462 19.4057 7.61945 19.2837 7.74141C19.1618 7.86336 19.0169 7.96002 18.8575 8.02585C18.6981 8.09168 18.5273 8.12537 18.3548 8.125ZM12.6675 8.99969C13.3597 8.99969 14.0365 9.20497 14.6121 9.58957C15.1877 9.97417 15.6363 10.5208 15.9012 11.1604C16.1661 11.8 16.2354 12.5037 16.1004 13.1827C15.9653 13.8617 15.632 14.4853 15.1425 14.9748C14.653 15.4643 14.0293 15.7977 13.3503 15.9327C12.6714 16.0678 11.9676 15.9985 11.328 15.7336C10.6885 15.4686 10.1418 15.02 9.75721 14.4444C9.37261 13.8688 9.16733 13.1921 9.16733 12.4998C9.16832 11.5718 9.5374 10.6821 10.1936 10.026C10.8498 9.36976 11.7395 9.00068 12.6675 8.99969ZM12.6675 7.24984C11.6291 7.24984 10.6141 7.55775 9.75074 8.13463C8.88738 8.71151 8.21448 9.53144 7.81712 10.4908C7.41976 11.4501 7.31579 12.5057 7.51836 13.5241C7.72093 14.5425 8.22095 15.4779 8.95517 16.2122C9.6894 16.9464 10.6249 17.4464 11.6433 17.649C12.6617 17.8515 13.7173 17.7476 14.6766 17.3502C15.6359 16.9529 16.4558 16.2799 17.0327 15.4166C17.6096 14.5532 17.9175 13.5382 17.9175 12.4998C17.9175 11.1075 17.3644 9.7721 16.3798 8.78753C15.3952 7.80297 14.0599 7.24984 12.6675 7.24984Z" fill="#68BF7B"/>
</svg>
