<svg width="25" height="25" viewBox="0 0 25 25" fill="none" xmlns="http://www.w3.org/2000/svg">
<path d="M7.20041 21.5H3.3335V9.4765H7.20041V21.5ZM5.40071 7.64842H5.37299C4.13544 7.64842 3.3341 6.72715 3.3341 5.57391C3.3341 4.39958 4.15653 3.5 5.4218 3.5C6.68707 3.5 7.4613 4.39295 7.48901 5.57391C7.48841 6.72715 6.68707 7.64842 5.40071 7.64842ZM21.3329 21.5H17.466V14.9258C17.466 13.3508 16.9032 12.2747 15.5042 12.2747C14.4354 12.2747 13.8027 12.9977 13.5213 13.702C13.4159 13.9551 13.3876 14.2998 13.3876 14.6516V21.5H9.52068V9.4765H13.3876V11.1497C13.9503 10.3484 14.8294 9.19512 16.8749 9.19512C19.4133 9.19512 21.3335 10.8683 21.3335 14.4757L21.3329 21.5Z" fill="#68BF7B"/>
</svg>
