<svg width="33" height="33" viewBox="0 0 33 33" fill="none" xmlns="http://www.w3.org/2000/svg">
<path d="M28.9138 3.94199C28.2469 3.25748 27.2598 3.00247 26.3395 3.2709L4.87733 9.51205C3.90626 9.78183 3.21798 10.5563 3.03257 11.5401C2.84316 12.5414 3.50477 13.8124 4.36912 14.3439L11.0799 18.4684C11.7682 18.8912 12.6565 18.7852 13.2261 18.2107L20.9106 10.4784C21.2974 10.0758 21.9376 10.0758 22.3245 10.4784C22.7113 10.8677 22.7113 11.4985 22.3245 11.9011L14.6267 19.6348C14.0558 20.2079 13.949 21.1004 14.3692 21.793L18.4696 28.571C18.9498 29.3763 19.7768 29.8327 20.6838 29.8327C20.7905 29.8327 20.9106 29.8327 21.0173 29.8193C22.0577 29.685 22.8847 28.9737 23.1915 27.967L29.5541 6.5324C29.8342 5.61972 29.5808 4.62651 28.9138 3.94199" fill="#68BF7B"/>
</svg>
