<svg width="260" height="260" viewBox="0 0 260 260" fill="none" xmlns="http://www.w3.org/2000/svg">
<path fill-rule="evenodd" clip-rule="evenodd" d="M130.5 112.25L130.5 59.25C132.5 58.75 133.5 58.25 134 54.75C134.361 52.2261 134.5 9.75 134.5 9.75C137.288 31.6531 138.172 43.7234 138.669 50.5083C138.796 52.242 138.898 53.6306 139 54.75C139.5 57.75 141 58.75 142.5 58.75C144 58.75 144.85 57.45 145 54.75C145.5 45.75 145.5 39.75 144.5 10.25C144.831 12.1714 145.25 14.4441 145.718 16.9783C148.777 33.5685 153.904 61.3702 150 75.25C147.386 84.5453 143.452 88.6092 140.597 91.5593C138.537 93.6873 137.038 95.2357 137 97.75L136.939 101.75V112.25H130.5ZM130.5 202.25L130.5 250.25C130.5 250.25 142.533 249.25 143.5 234.75C143.878 229.074 141.843 213.511 140.121 202.25H130.5Z" fill="#93A5A4"/>
<path fill-rule="evenodd" clip-rule="evenodd" d="M130.501 112.25L130.501 59.25C128.501 58.75 127.501 58.25 127.001 54.75C126.64 52.2261 126.501 9.75 126.501 9.75C123.713 31.6531 122.828 43.7234 122.331 50.5083C122.204 52.242 122.102 53.6306 122.001 54.75C121.501 57.75 120.001 58.75 118.501 58.75C117.001 58.75 116.151 57.45 116.001 54.75C115.501 45.75 115.501 39.75 116.501 10.25C116.169 12.1714 115.75 14.4441 115.283 16.9783C112.224 33.5685 107.097 61.3702 111.001 75.25C113.615 84.5453 117.548 88.6092 120.404 91.5593C122.464 93.6873 123.962 95.2357 124.001 97.75L124.061 101.75V112.25H130.501ZM130.501 202.25H120.88C119.157 213.511 117.122 229.074 117.501 234.75C118.467 249.25 130.501 250.25 130.501 250.25L130.501 202.25Z" fill="#B1BDBB"/>
<path d="M124.935 75.382C124.255 75.382 123.607 75.302 122.991 75.142C122.383 74.974 121.871 74.75 121.455 74.47L122.079 72.754C122.343 72.922 122.631 73.066 122.943 73.186C123.255 73.306 123.579 73.402 123.915 73.474C124.259 73.538 124.607 73.57 124.959 73.57C125.487 73.57 125.851 73.502 126.051 73.366C126.259 73.23 126.363 73.054 126.363 72.838C126.363 72.646 126.295 72.498 126.159 72.394C126.023 72.282 125.767 72.186 125.391 72.106L123.927 71.806C123.151 71.646 122.571 71.37 122.187 70.978C121.803 70.578 121.611 70.058 121.611 69.418C121.611 68.858 121.759 68.374 122.055 67.966C122.359 67.55 122.783 67.23 123.327 67.006C123.871 66.774 124.507 66.658 125.235 66.658C125.835 66.658 126.399 66.742 126.927 66.91C127.455 67.07 127.887 67.294 128.223 67.582L127.599 69.19C127.279 68.958 126.919 68.782 126.519 68.662C126.119 68.534 125.675 68.47 125.187 68.47C124.723 68.47 124.371 68.542 124.131 68.686C123.899 68.822 123.783 69.018 123.783 69.274C123.783 69.45 123.851 69.602 123.987 69.73C124.131 69.85 124.391 69.95 124.767 70.03L126.207 70.318C126.983 70.47 127.563 70.742 127.947 71.134C128.339 71.526 128.535 72.038 128.535 72.67C128.535 73.214 128.383 73.69 128.079 74.098C127.783 74.506 127.367 74.822 126.831 75.046C126.295 75.27 125.663 75.382 124.935 75.382Z" fill="white"/>
<path d="M133.692 75.25V66.79H135.324L139.608 72.106H139.26V66.79H141.312V75.25H139.68L135.42 69.934H135.768V75.25H133.692Z" fill="white"/>
<path d="M181.5 95.25C188 86.75 186.499 73.25 186.499 53.25L160.5 100.75C160.5 100.75 175 103.75 181.5 95.25Z" fill="#467235"/>
<path d="M155.499 80.25C152 93.75 160.5 100.75 160.5 100.75L186.499 53.25C175 62.25 160 67.25 155.499 80.25Z" fill="#7C9340"/>
<path d="M173 53.75C177.5 49.25 177.5 41.75 174.5 25.75C174.5 25.75 170.785 37.1164 168 44.25C166.155 48.9794 163 56.25 163 56.25C163 56.25 168.5 58.25 173 53.75Z" fill="#467235"/>
<path d="M157.5 46.25C157.5 53.25 163 56.25 163 56.25C163 56.25 166.154 48.9794 168 44.25C170.784 37.1164 174.5 25.75 174.5 25.75C164.5 33.75 157.5 38.75 157.5 46.25Z" fill="#7C9340"/>
<path d="M87.1099 54.25C82.6099 49.75 82.6099 42.25 85.6099 26.25C85.6099 26.25 89.3257 37.6164 92.1099 44.75C93.9557 49.4794 97.1099 56.75 97.1099 56.75C97.1099 56.75 91.6099 58.75 87.1099 54.25Z" fill="#467235"/>
<path d="M102.61 46.75C102.61 53.75 97.1104 56.75 97.1104 56.75C97.1104 56.75 93.9562 49.4794 92.1104 44.75C89.3262 37.6164 85.6104 26.25 85.6104 26.25C95.6104 34.25 102.61 39.25 102.61 46.75Z" fill="#7C9340"/>
<path d="M186.5 47.75C190.5 45.75 189.5 37.25 189.5 37.25L181.5 48.25C181.5 48.25 184.5 48.75 186.5 47.75Z" fill="#467235"/>
<path d="M180.5 43.75C179.829 46.2097 181.499 48.25 181.499 48.25L189.5 37.25C189.5 37.25 182 38.25 180.5 43.75Z" fill="#7C9340"/>
<path d="M73.6114 47.75C69.6114 45.75 70.6114 37.25 70.6114 37.25L78.6114 48.25C78.6114 48.25 75.6114 48.75 73.6114 47.75Z" fill="#467235"/>
<path d="M79.6106 43.75C80.2816 46.2097 78.6109 48.25 78.6109 48.25L70.6106 37.25C70.6106 37.25 78.1103 38.25 79.6106 43.75Z" fill="#7C9340"/>
<path d="M105.999 80.7498C102.587 70.6079 91.499 63.75 74.499 53.25L100.499 101.75C100.499 101.75 109.411 90.8917 105.999 80.7498Z" fill="#7C9340"/>
<path d="M79.4999 95.7499C87 104.25 100.5 101.75 100.5 101.75L74.4995 53.25C75.9993 69.2499 71.9998 87.2498 79.4999 95.7499Z" fill="#467235"/>
<path fill-rule="evenodd" clip-rule="evenodd" d="M89.5 111.25H41.5C35.4249 111.25 30.5 116.175 30.5 122.25V186.25C30.5 192.325 35.4249 197.25 41.5 197.25H218.5C224.575 197.25 229.5 192.325 229.5 186.25V122.25C229.5 116.175 224.575 111.25 218.5 111.25H179.5H169.5C168.672 111.25 168 111.922 168 112.75C168 113.578 168.672 114.25 169.5 114.25H179.5H218.5C222.918 114.25 226.5 117.832 226.5 122.25V186.25C226.5 190.668 222.918 194.25 218.5 194.25H41.5C37.0817 194.25 33.5 190.668 33.5 186.25V122.25C33.5 117.832 37.0817 114.25 41.5 114.25H89.5H99.5C100.328 114.25 101 113.578 101 112.75C101 111.922 100.328 111.25 99.5 111.25H89.5Z" fill="#E43139"/>
<path d="M57.3532 137.66C57.3532 135.46 57.7632 133.55 58.5832 131.93C59.4232 130.29 60.6232 129.02 62.1832 128.12C63.7432 127.22 65.5932 126.77 67.7332 126.77C69.8732 126.77 71.7232 127.22 73.2832 128.12C74.8432 129.02 76.0432 130.29 76.8832 131.93C77.7432 133.55 78.1732 135.45 78.1732 137.63C78.1732 139.85 77.7432 141.78 76.8832 143.42C76.0432 145.04 74.8432 146.31 73.2832 147.23C71.7232 148.13 69.8732 148.58 67.7332 148.58C65.5932 148.58 63.7432 148.13 62.1832 147.23C60.6432 146.31 59.4532 145.03 58.6132 143.39C57.7732 141.75 57.3532 139.84 57.3532 137.66ZM62.2432 137.66C62.2432 139.84 62.6932 141.55 63.5932 142.79C64.5132 144.01 65.8932 144.62 67.7332 144.62C69.5332 144.62 70.9032 144.01 71.8432 142.79C72.7832 141.55 73.2532 139.84 73.2532 137.66C73.2532 135.46 72.7832 133.76 71.8432 132.56C70.9232 131.34 69.5532 130.73 67.7332 130.73C65.8932 130.73 64.5132 131.34 63.5932 132.56C62.6932 133.76 62.2432 135.46 62.2432 137.66ZM82.8309 148.25V127.1H92.4309C94.8109 127.1 96.6509 127.67 97.9509 128.81C99.2509 129.93 99.9009 131.5 99.9009 133.52C99.9009 134.84 99.6009 135.98 99.0009 136.94C98.4209 137.88 97.5809 138.61 96.4809 139.13C95.4009 139.63 94.1009 139.88 92.5809 139.88L92.9409 139.22H94.1709C95.0309 139.22 95.7909 139.45 96.4509 139.91C97.1309 140.37 97.6909 141.04 98.1309 141.92L101.281 148.25H96.1209L92.8509 141.44C92.6109 140.86 92.2309 140.48 91.7109 140.3C91.2109 140.1 90.6309 140 89.9709 140H87.5109V148.25H82.8309ZM87.5109 136.64H91.6209C92.8409 136.64 93.7709 136.39 94.4109 135.89C95.0509 135.39 95.3709 134.65 95.3709 133.67C95.3709 132.69 95.0509 131.96 94.4109 131.48C93.7709 130.98 92.8409 130.73 91.6209 130.73H87.5109V136.64ZM115.395 148.58C112.975 148.58 110.935 148.14 109.275 147.26C107.635 146.36 106.395 145.1 105.555 143.48C104.715 141.84 104.295 139.93 104.295 137.75C104.295 135.51 104.745 133.57 105.645 131.93C106.565 130.29 107.885 129.02 109.605 128.12C111.325 127.22 113.385 126.77 115.785 126.77C117.325 126.77 118.675 126.97 119.835 127.37C121.015 127.75 122.045 128.3 122.925 129.02L121.425 132.65C120.785 132.19 120.185 131.83 119.625 131.57C119.065 131.29 118.485 131.1 117.885 131C117.285 130.88 116.595 130.82 115.815 130.82C113.615 130.82 111.955 131.42 110.835 132.62C109.735 133.8 109.185 135.52 109.185 137.78C109.185 140.02 109.705 141.72 110.745 142.88C111.785 144.04 113.415 144.62 115.635 144.62C116.375 144.62 117.135 144.55 117.915 144.41C118.695 144.27 119.465 144.06 120.225 143.78L119.385 145.58V139.88H114.735V136.55H123.255V146.93C122.195 147.45 120.965 147.86 119.565 148.16C118.185 148.44 116.795 148.58 115.395 148.58ZM125.788 148.25L135.508 127.1H139.378L149.218 148.25H144.478L141.928 142.37L143.758 143.66H131.188L133.048 142.37L130.498 148.25H125.788ZM137.428 132.02L133.558 141.2L132.748 140.06H142.198L141.508 141.2L137.548 132.02H137.428ZM152.042 148.25V127.1H155.522L167.012 141.71H166.202V127.1H170.552V148.25H167.072L155.612 133.64H156.392V148.25H152.042ZM175.835 148.25V127.1H180.515V148.25H175.835ZM196.03 148.58C193.77 148.58 191.83 148.13 190.21 147.23C188.59 146.33 187.34 145.07 186.46 143.45C185.6 141.81 185.17 139.88 185.17 137.66C185.17 135.44 185.6 133.52 186.46 131.9C187.34 130.28 188.59 129.02 190.21 128.12C191.83 127.22 193.77 126.77 196.03 126.77C197.49 126.77 198.82 126.98 200.02 127.4C201.22 127.8 202.24 128.39 203.08 129.17L201.61 132.86C200.69 132.14 199.81 131.63 198.97 131.33C198.15 131.03 197.22 130.88 196.18 130.88C194.2 130.88 192.68 131.47 191.62 132.65C190.58 133.81 190.06 135.48 190.06 137.66C190.06 139.84 190.58 141.52 191.62 142.7C192.68 143.88 194.2 144.47 196.18 144.47C197.22 144.47 198.15 144.32 198.97 144.02C199.81 143.72 200.69 143.21 201.61 142.49L203.08 146.18C202.24 146.94 201.22 147.53 200.02 147.95C198.82 148.37 197.49 148.58 196.03 148.58ZM101.281 183.58C99.0206 183.58 97.0806 183.13 95.4606 182.23C93.8406 181.33 92.5906 180.07 91.7106 178.45C90.8506 176.81 90.4206 174.88 90.4206 172.66C90.4206 170.44 90.8506 168.52 91.7106 166.9C92.5906 165.28 93.8406 164.02 95.4606 163.12C97.0806 162.22 99.0206 161.77 101.281 161.77C102.741 161.77 104.071 161.98 105.271 162.4C106.471 162.8 107.491 163.39 108.331 164.17L106.861 167.86C105.941 167.14 105.061 166.63 104.221 166.33C103.401 166.03 102.471 165.88 101.431 165.88C99.4506 165.88 97.9306 166.47 96.8706 167.65C95.8306 168.81 95.3106 170.48 95.3106 172.66C95.3106 174.84 95.8306 176.52 96.8706 177.7C97.9306 178.88 99.4506 179.47 101.431 179.47C102.471 179.47 103.401 179.32 104.221 179.02C105.061 178.72 105.941 178.21 106.861 177.49L108.331 181.18C107.491 181.94 106.471 182.53 105.271 182.95C104.071 183.37 102.741 183.58 101.281 183.58ZM112.588 183.25V162.1H117.268V170.59H126.958V162.1H131.668V183.25H126.958V174.46H117.268V183.25H112.588ZM136.967 183.25V162.1H151.667V165.73H141.437V170.68H150.947V174.34H141.437V179.62H151.667V183.25H136.967ZM155.926 183.25V162.1H170.296V165.73H160.606V170.89H169.606V174.49H160.606V183.25H155.926Z" fill="#467235"/>
<path fill-rule="evenodd" clip-rule="evenodd" d="M95.4603 182.23C97.0803 183.13 99.0203 183.58 101.28 183.58C102.74 183.58 104.07 183.37 105.27 182.95C106.47 182.53 107.49 181.94 108.33 181.18L106.86 177.49C105.94 178.21 105.06 178.72 104.22 179.02C103.4 179.32 102.47 179.47 101.43 179.47C99.4503 179.47 97.9303 178.88 96.8703 177.7C95.9261 176.629 95.4106 175.145 95.3235 173.25L90.4307 173.25C90.5008 175.224 90.9274 176.957 91.7103 178.45C92.5903 180.07 93.8403 181.33 95.4603 182.23ZM155.925 173.25H169.605V174.49H160.605V183.25H155.925V173.25ZM136.966 173.25H150.946V174.34H141.436V179.62H151.666V183.25H136.966V173.25ZM112.587 173.25H131.667V183.25H126.957V174.46H117.267V183.25H112.587V173.25Z" fill="#7C9340"/>
</svg>
