<svg width="494" height="499" viewBox="0 0 494 499" fill="none" xmlns="http://www.w3.org/2000/svg">
<path d="M483.917 452.219H302.448C296.399 452.219 292.366 449.1 292.366 444.422V226.109C292.366 221.431 296.399 218.312 302.448 218.312H483.917C486.942 218.312 488.958 219.092 490.974 220.652C492.991 222.211 493.999 223.77 493.999 226.109V444.422C493.999 449.1 488.958 452.219 483.917 452.219ZM312.53 436.625H473.836V233.906H312.53V436.625Z" fill="black"/>
<path d="M100.817 428.828C94.7678 428.828 90.7351 425.709 90.7351 421.031V304.078C90.7351 299.4 94.7678 296.281 100.817 296.281C106.866 296.281 110.898 299.4 110.898 304.078V421.031C110.898 424.93 105.858 428.828 100.817 428.828Z" fill="black"/>
<path d="M262.123 428.828H100.817C94.7678 428.828 90.7351 425.709 90.7351 421.031C90.7351 416.353 94.7678 413.234 100.817 413.234H262.123C268.172 413.234 272.204 416.353 272.204 421.031C272.204 425.709 267.163 428.828 262.123 428.828Z" fill="black"/>
<path d="M231.877 452.219C228.852 452.219 226.836 451.439 224.82 449.88C220.787 446.761 220.787 442.083 224.82 438.964L255.065 415.573C259.097 412.455 265.146 412.455 269.179 415.573C273.211 418.692 273.211 423.37 269.179 426.489L238.934 449.88C236.918 451.439 233.893 452.219 231.877 452.219Z" fill="black"/>
<path d="M262.122 428.828C259.097 428.828 257.081 428.048 255.065 426.489L224.82 403.098C220.787 399.98 220.787 395.302 224.82 392.183C228.852 389.064 234.901 389.064 238.934 392.183L269.179 415.573C273.211 418.692 273.211 423.37 269.179 426.489C267.162 428.048 264.138 428.828 262.122 428.828Z" fill="black"/>
<path d="M393.183 202.719C387.134 202.719 383.102 199.6 383.102 194.922V85.7656C383.102 81.0875 387.134 77.9688 393.183 77.9688C399.232 77.9688 403.265 81.0875 403.265 85.7656V194.922C403.265 198.82 398.224 202.719 393.183 202.719Z" fill="black"/>
<path d="M393.183 93.5625H231.877C225.828 93.5625 221.795 90.4438 221.795 85.7656C221.795 81.0875 225.828 77.9688 231.877 77.9688H393.183C399.232 77.9688 403.264 81.0875 403.264 85.7656C403.264 90.4438 398.224 93.5625 393.183 93.5625Z" fill="black"/>
<path d="M231.877 93.5625C228.852 93.5625 226.836 92.7828 224.82 91.2234C220.787 88.1047 220.787 83.4266 224.82 80.3078L255.065 56.9172C259.097 53.7984 265.146 53.7984 269.179 56.9172C273.211 60.0359 273.211 64.7141 269.179 67.8328L238.934 91.2234C236.918 92.7828 233.893 93.5625 231.877 93.5625Z" fill="black"/>
<path d="M262.122 116.953C259.097 116.953 257.081 116.173 255.065 114.614L224.82 91.2234C220.787 88.1047 220.787 83.4266 224.82 80.3078C228.852 77.1891 234.901 77.1891 238.934 80.3078L269.179 103.698C273.211 106.817 273.211 111.495 269.179 114.614C267.162 116.173 264.138 116.953 262.122 116.953Z" fill="black"/>
<path d="M483.917 475.609H302.448C296.399 475.609 292.366 472.491 292.366 467.812V444.422C292.366 439.744 296.399 436.625 302.448 436.625C308.497 436.625 312.53 439.744 312.53 444.422V460.016H473.836V444.422C473.836 439.744 477.868 436.625 483.917 436.625C489.966 436.625 493.999 439.744 493.999 444.422V467.812C493.999 472.491 488.958 475.609 483.917 475.609Z" fill="black"/>
<path d="M483.917 499H302.448C296.399 499 292.366 495.881 292.366 491.203V467.812C292.366 463.134 296.399 460.016 302.448 460.016C308.497 460.016 312.53 463.134 312.53 467.812V483.406H473.836V467.812C473.836 463.134 477.868 460.016 483.917 460.016C489.966 460.016 493.999 463.134 493.999 467.812V491.203C493.999 495.881 488.958 499 483.917 499Z" fill="black"/>
<path d="M393.183 374.25C364.955 374.25 342.775 357.097 342.775 335.266C342.775 313.434 364.955 296.281 393.183 296.281C421.412 296.281 443.592 313.434 443.592 335.266C443.592 357.097 421.412 374.25 393.183 374.25ZM393.183 311.875C376.045 311.875 362.939 322.011 362.939 335.266C362.939 348.52 376.045 358.656 393.183 358.656C410.322 358.656 423.428 348.52 423.428 335.266C423.428 322.791 410.322 311.875 393.183 311.875Z" fill="black"/>
<path d="M302.448 257.297C296.399 257.297 292.366 254.178 292.366 249.5C292.366 244.822 296.399 241.703 302.448 241.703C313.538 241.703 322.611 234.686 322.611 226.109C322.611 221.431 326.644 218.312 332.693 218.312C338.742 218.312 342.775 221.431 342.775 226.109C342.775 243.263 324.628 257.297 302.448 257.297Z" fill="black"/>
<path d="M483.918 257.297C461.739 257.297 443.592 243.263 443.592 226.109C443.592 221.431 447.624 218.312 453.673 218.312C459.722 218.312 463.755 221.431 463.755 226.109C463.755 234.686 472.828 241.703 483.918 241.703C489.967 241.703 494 244.822 494 249.5C494 254.178 488.959 257.297 483.918 257.297Z" fill="black"/>
<path d="M453.673 452.219C447.624 452.219 443.592 449.1 443.592 444.422C443.592 427.269 461.739 413.234 483.918 413.234C489.967 413.234 494 416.353 494 421.031C494 425.709 489.967 428.828 483.918 428.828C472.828 428.828 463.755 435.845 463.755 444.422C463.755 449.1 459.722 452.219 453.673 452.219Z" fill="black"/>
<path d="M332.693 452.219C326.644 452.219 322.611 449.1 322.611 444.422C322.611 435.845 313.538 428.828 302.448 428.828C296.399 428.828 292.366 425.709 292.366 421.031C292.366 416.353 296.399 413.234 302.448 413.234C324.628 413.234 342.775 427.269 342.775 444.422C342.775 449.1 338.742 452.219 332.693 452.219Z" fill="black"/>
<path d="M100.816 155.938C45.3673 155.938 0 120.852 0 77.9688C0 35.0859 45.3673 0 100.816 0C156.265 0 201.632 35.0859 201.632 77.9688C201.632 120.852 156.265 155.938 100.816 155.938ZM100.816 15.5938C56.4571 15.5938 20.1632 43.6625 20.1632 77.9688C20.1632 112.275 56.4571 140.344 100.816 140.344C145.175 140.344 181.469 112.275 181.469 77.9688C181.469 43.6625 145.175 15.5938 100.816 15.5938Z" fill="black"/>
<path d="M100.816 187.125C45.3673 187.125 0 152.039 0 109.156C0 104.478 4.03265 101.359 10.0816 101.359C16.1306 101.359 20.1632 104.478 20.1632 109.156C20.1632 143.463 56.4571 171.531 100.816 171.531C145.175 171.531 181.469 143.463 181.469 109.156C181.469 104.478 185.502 101.359 191.551 101.359C197.6 101.359 201.632 104.478 201.632 109.156C201.632 152.039 156.265 187.125 100.816 187.125Z" fill="black"/>
<path d="M100.816 218.312C45.3673 218.312 0 183.227 0 140.344C0 135.666 4.03265 132.547 10.0816 132.547C16.1306 132.547 20.1632 135.666 20.1632 140.344C20.1632 174.65 56.4571 202.719 100.816 202.719C145.175 202.719 181.469 174.65 181.469 140.344C181.469 135.666 185.502 132.547 191.551 132.547C197.6 132.547 201.632 135.666 201.632 140.344C201.632 183.227 156.265 218.312 100.816 218.312Z" fill="black"/>
<path d="M100.816 249.5C45.3673 249.5 0 214.414 0 171.531C0 166.853 4.03265 163.734 10.0816 163.734C16.1306 163.734 20.1632 166.853 20.1632 171.531C20.1632 205.838 56.4571 233.906 100.816 233.906C145.175 233.906 181.469 205.838 181.469 171.531C181.469 166.853 185.502 163.734 191.551 163.734C197.6 163.734 201.632 166.853 201.632 171.531C201.632 214.414 156.265 249.5 100.816 249.5Z" fill="black"/>
<path d="M100.816 280.688C45.3673 280.688 0 245.602 0 202.719C0 198.041 4.03265 194.922 10.0816 194.922C16.1306 194.922 20.1632 198.041 20.1632 202.719C20.1632 237.025 56.4571 265.094 100.816 265.094C145.175 265.094 181.469 237.025 181.469 202.719C181.469 198.041 185.502 194.922 191.551 194.922C197.6 194.922 201.632 198.041 201.632 202.719C201.632 245.602 156.265 280.688 100.816 280.688Z" fill="black"/>
<path d="M10.0816 210.516C4.03265 210.516 0 207.397 0 202.719V77.9688C0 73.2906 4.03265 70.1719 10.0816 70.1719C16.1306 70.1719 20.1632 73.2906 20.1632 77.9688V202.719C20.1632 206.617 16.1306 210.516 10.0816 210.516Z" fill="black"/>
<path d="M191.551 210.516C185.502 210.516 181.469 207.397 181.469 202.719V77.9688C181.469 73.2906 185.502 70.1719 191.551 70.1719C197.6 70.1719 201.632 73.2906 201.632 77.9688V202.719C201.632 206.617 197.6 210.516 191.551 210.516Z" fill="black"/>
<path d="M141.142 116.953H60.4891C54.4401 116.953 50.4075 113.834 50.4075 109.156C50.4075 104.478 54.4401 101.359 60.4891 101.359H141.142C147.191 101.359 151.224 104.478 151.224 109.156C151.224 113.834 147.191 116.953 141.142 116.953Z" fill="black"/>
<path d="M100.817 116.953C94.7678 116.953 90.7351 113.834 90.7351 109.156V70.1719C90.7351 65.4937 94.7678 62.375 100.817 62.375C106.866 62.375 110.898 65.4937 110.898 70.1719V109.156C110.898 113.834 106.866 116.953 100.817 116.953Z" fill="black"/>
<path d="M100.816 77.9688C83.6774 77.9688 70.5713 67.8328 70.5713 54.5781C70.5713 41.3234 83.6774 31.1875 100.816 31.1875C117.955 31.1875 131.061 41.3234 131.061 54.5781C131.061 67.8328 117.955 77.9688 100.816 77.9688ZM100.816 46.7812C94.7672 46.7812 90.7345 49.9 90.7345 54.5781C90.7345 59.2563 94.7672 62.375 100.816 62.375C106.865 62.375 110.898 59.2563 110.898 54.5781C110.898 49.9 106.865 46.7812 100.816 46.7812Z" fill="black"/>
<path d="M60.4891 148.92C54.4401 148.92 50.4075 145.802 50.4075 141.123V109.156C50.4075 104.478 54.4401 101.359 60.4891 101.359C66.5381 101.359 70.5707 104.478 70.5707 109.156V141.123C70.5707 145.022 66.5381 148.92 60.4891 148.92Z" fill="black"/>
<path d="M141.143 148.92C135.094 148.92 131.062 145.802 131.062 141.123V109.156C131.062 104.478 135.094 101.359 141.143 101.359C147.192 101.359 151.225 104.478 151.225 109.156V141.123C151.225 145.022 147.192 148.92 141.143 148.92Z" fill="black"/>
</svg>
