<svg width="20" height="20" viewBox="0 0 20 20" fill="none" xmlns="http://www.w3.org/2000/svg">
<path d="M15.3254 8.09353L16.6864 8.03435C16.9231 7.97518 17.1598 7.7385 17.1598 7.44264V5.78583H2.48521C2.18935 5.78583 1.95266 5.54915 1.95266 5.31246C1.95266 5.0166 2.18935 4.77992 2.48521 4.77992H5.2071L7.10059 3.89234H1.6568C1.30178 3.89234 1.00592 4.1882 1.00592 4.54323V17.0876C1.00592 17.4426 1.30178 17.7385 1.6568 17.7385H16.5089C16.8639 17.7385 17.1598 17.4426 17.1598 17.0876V14.1882C17.1598 13.8332 16.8639 13.5373 16.5089 13.5373C15.858 13.5373 15.2071 13.5373 14.497 13.5373C13.6095 13.5373 12.8994 12.8273 12.8994 11.8805V9.69116C12.8994 8.21187 14.142 8.09353 15.3254 8.09353ZM7.51479 4.77992H14.0237L12.7811 2.29471L7.51479 4.77992ZM15.1479 4.77992H17.1598V4.54323C17.1598 4.1882 16.8639 3.89234 16.5089 3.89234H14.6746L15.1479 4.77992ZM14.2012 2.88643H16.5089C17.3965 2.88643 18.1065 3.65566 18.1065 4.54323C18.1065 5.48998 18.1065 6.49589 18.1065 7.44264C18.1065 7.67932 18.1065 7.85684 17.9882 8.09353H18.3432C19.2308 8.09353 20 8.80358 20 9.69116V11.8805C20 12.7681 19.2308 13.5373 18.3432 13.5373H17.9882C18.1065 13.7148 18.1065 13.9515 18.1065 14.1882V17.0876C18.1065 17.9752 17.3965 18.6852 16.5089 18.6852H1.6568C0.769231 18.6852 0 17.9752 0 17.0876V4.54323C0 3.65566 0.769231 2.88643 1.6568 2.88643H9.1716L12.8402 1.17045C13.0769 1.05211 13.3728 1.17045 13.4911 1.40714L14.2012 2.88643ZM18.3432 9.09944C17.0414 9.09944 15.7988 9.09944 14.497 9.09944C14.142 9.09944 13.9053 9.33613 13.9053 9.69116V11.8805C13.9053 12.2355 14.142 12.5314 14.497 12.5314C15.7988 12.5314 17.0414 12.5314 18.3432 12.5314C18.6982 12.5314 18.9941 12.2355 18.9941 11.8805V9.69116C18.9941 9.33613 18.6982 9.09944 18.3432 9.09944Z" fill="#6E737F"/>
<path d="M15.6804 11.5844C16.1052 11.5844 16.4496 11.24 16.4496 10.8151C16.4496 10.3903 16.1052 10.0459 15.6804 10.0459C15.2555 10.0459 14.9111 10.3903 14.9111 10.8151C14.9111 11.24 15.2555 11.5844 15.6804 11.5844Z" fill="#6E737F"/>
</svg>
