<svg width="78" height="44" viewBox="0 0 78 44" fill="none" xmlns="http://www.w3.org/2000/svg">
<path d="M39.9767 18.4912H38.5V18.4168H22V25.5835H32.361C30.8495 29.7554 26.7877 32.7502 22 32.7502C15.9252 32.7502 11 27.9368 11 22.0002C11 16.0635 15.9252 11.2502 22 11.2502C24.804 11.2502 27.3551 12.284 29.2975 13.9726L34.4831 8.90487C31.2088 5.92264 26.829 4.0835 22 4.0835C11.8754 4.0835 3.66663 12.1057 3.66663 22.0002C3.66663 31.8946 11.8754 39.9168 22 39.9168C32.1245 39.9168 40.3333 31.8946 40.3333 22.0002C40.3333 20.7988 40.2068 19.6262 39.9767 18.4912Z" fill="#FFC107"/>
<path d="M5.78052 13.6608L11.8039 17.9779C13.4338 14.0344 17.3809 11.2502 22 11.2502C24.8041 11.2502 27.3552 12.284 29.2976 13.9726L34.4832 8.90487C31.2089 5.92264 26.829 4.0835 22 4.0835C14.9582 4.0835 8.85135 7.96872 5.78052 13.6608Z" fill="#FF3D00"/>
<path d="M22 39.9168C26.7355 39.9168 31.0383 38.1457 34.2915 35.2656L28.6174 30.5733C26.7767 31.9358 24.4887 32.7501 22 32.7501C17.2315 32.7501 13.1825 29.7786 11.6572 25.6318L5.67871 30.1334C8.71288 35.9357 14.8747 39.9168 22 39.9168Z" fill="#4CAF50"/>
<path d="M39.9768 18.4909H38.5V18.4165H22V25.5832H32.3611C31.6351 27.5871 30.316 29.3152 28.6147 30.5739L28.6174 30.5721L34.2916 35.2644C33.8901 35.621 40.3333 30.9582 40.3333 21.9998C40.3333 20.7985 40.2068 19.6259 39.9768 18.4909Z" fill="#1976D2"/>
</svg>
