<svg width="12" height="12" viewBox="0 0 12 12" fill="none" xmlns="http://www.w3.org/2000/svg">
<mask id="mask0_7598_1996" style="mask-type:alpha" maskUnits="userSpaceOnUse" x="0" y="0" width="12" height="12">
<rect y="12" width="12" height="12" transform="rotate(-90 0 12)" fill="#C4C4C4"/>
</mask>
<g mask="url(#mask0_7598_1996)">
</g>
<path d="M8.15943 6.98999C8.17898 7.50107 7.99516 7.99906 7.64824 8.37487C7.30133 8.75068 6.8196 8.97367 6.30859 8.99499" stroke="#FF5C5C" stroke-linecap="round" stroke-linejoin="round"/>
<path d="M6.00022 11C3.94398 11 1.99022 9.50383 1.99022 7.65834C1.97856 6.95647 2.18366 6.26809 2.57755 5.68706C2.97145 5.10603 3.53496 4.66062 4.19126 4.41158C4.21785 4.40073 4.24678 4.39692 4.27527 4.40052C4.30376 4.40411 4.33084 4.41498 4.3539 4.43209C4.37696 4.4492 4.39522 4.47196 4.40693 4.49818C4.41863 4.5244 4.42338 4.55319 4.42072 4.58178C4.37445 4.93573 4.41724 5.29564 4.54523 5.62887C4.67322 5.9621 4.88235 6.25812 5.15366 6.49009C5.21579 6.54272 5.29502 6.57082 5.37643 6.5691C5.45784 6.56737 5.5358 6.53595 5.59565 6.48074C6.18379 5.93849 7.62605 4.14736 5.05074 1.27843C5.028 1.25314 5.01352 1.22151 5.00923 1.18778C5.00495 1.15404 5.01106 1.1198 5.02675 1.08963C5.04244 1.05945 5.06696 1.03479 5.09705 1.01892C5.12713 1.00306 5.16134 0.996755 5.1951 1.00085C7.61357 1.29803 10.0102 4.02662 10.0102 6.65584C10.0102 8.88362 8.67355 11 6.00022 11Z" stroke="#FF5C5C" stroke-linecap="round" stroke-linejoin="round"/>
</svg>
