<svg width="477" height="509" viewBox="0 0 477 509" fill="none" xmlns="http://www.w3.org/2000/svg">
<path fill-rule="evenodd" clip-rule="evenodd" d="M123.837 6.08038C118.133 6.28466 113.334 6.84644 108.42 8.47433C98.6364 11.6663 91.711 18.6183 81.6029 30.2241L23.322 97.2866C11.4506 110.98 9 125.35 9 144.834V460.675C9 483.816 27.8986 502.732 50.9729 502.732L332.874 503C345.07 503.032 356.145 497.81 363.803 489.466L349.678 476.437C345.528 480.924 339.634 483.708 332.931 483.676L50.9666 483.382C38.1595 483.382 28.2169 473.404 28.2169 460.675L28.3569 138.609H106.593C124.868 138.609 139.947 123.614 139.947 105.292V52.7911C140.049 47.3776 135.606 42.9152 130.164 43.0238C124.868 43.0876 120.616 47.4733 120.692 52.7911V105.292C120.692 113.208 114.588 119.362 106.593 119.362H31.5014C32.9336 116.298 34.9196 113.342 37.8413 109.946L96.1221 42.9152C105.829 31.7499 109.808 28.2834 114.384 26.796C118.961 25.3022 127.35 25.4362 144.422 25.4362H332.874C345.668 25.4362 355.649 35.3823 355.649 48.1117V179.274L374.904 199.588V48.1117C374.904 24.9957 355.942 6.1123 332.867 6.1123H144.422C136.071 6.1123 129.502 5.88248 123.837 6.08038Z" fill="black"/>
<path fill-rule="evenodd" clip-rule="evenodd" d="M257.368 184.687C284.657 184.687 311.907 195.131 332.798 216.083C374.548 257.941 374.548 325.502 332.798 367.354C291.06 409.22 223.658 409.22 181.92 367.354C140.183 325.495 140.183 257.935 181.92 216.083C202.805 195.131 230.093 184.687 257.368 184.687ZM257.343 164.68C224.88 164.68 192.423 177.052 167.732 201.853C118.324 251.392 118.324 332.058 167.732 381.629C214.74 428.78 289.768 430.944 339.494 388.351L355.509 404.413C348.609 417.512 350.601 434.2 361.537 445.174L409.15 492.918C422.504 506.357 444.579 506.357 457.984 492.918C471.377 479.487 471.313 457.411 457.946 443.973L410.308 396.235C399.404 385.261 382.759 383.269 369.729 390.215L353.682 374.153C396.152 324.251 393.962 249.036 346.954 201.891C322.257 177.077 289.793 164.705 257.343 164.68Z" fill="black"/>
<path d="M257.368 241.187C229.494 241.187 203.759 255.257 179.195 284.514C175.79 288.606 175.79 294.785 179.17 298.903C203.46 328.428 229.494 342.269 257.368 342.269C285.254 342.269 311.276 328.428 335.553 298.903C338.933 294.785 338.933 288.606 335.515 284.514C310.977 255.257 285.254 241.187 257.368 241.187ZM257.444 253.916C268.208 254.12 278.291 256.15 286.05 260.14C300.137 275.704 299.379 299.605 284.325 314.237C269.246 328.869 245.376 328.837 230.354 314.167C215.3 299.509 214.599 275.564 228.762 260.076C237.279 255.518 249.017 253.795 257.444 253.916Z" fill="black"/>
<path d="M255.516 261.295C254.058 261.398 253.09 262.93 253.689 264.328C254.421 266.026 254.561 267.89 254.09 269.684C252.874 274.133 248.393 276.732 243.982 275.531C242.327 275.11 240.837 274.133 239.742 272.774C238.813 271.605 237.018 271.708 236.222 273.003C234.892 275.104 233.873 277.427 233.237 279.815C229.653 293.189 237.578 306.985 250.875 310.541C264.166 314.135 277.928 306.148 281.473 292.787C285.057 279.413 277.158 265.547 263.835 262.062C261.028 261.295 258.202 261.174 255.516 261.295Z" fill="black"/>
</svg>
