<svg width="24" height="24" viewBox="0 0 24 24" fill="none" xmlns="http://www.w3.org/2000/svg">
<path d="M19.3395 5.44102C19.4232 5.52474 19.4232 5.66428 19.3674 5.748L13.3116 15.4317L17.9441 22.5201H14.0651L11.2744 17.8875L8.48367 22.5201H4.74414L9.32088 15.3759L5.27437 9.12475C5.02321 8.76195 5.30228 8.25963 5.74879 8.25963H8.23251C8.42786 8.25963 8.5953 8.37126 8.70693 8.5387L11.3581 12.8922L16.6883 3.96195C16.7441 3.85033 16.8837 3.79451 17.0232 3.82242L18.3907 4.26893C18.4465 4.29684 18.5023 4.32474 18.5302 4.35265L19.3395 5.44102Z" fill="#1C274C"/>
<path fill-rule="evenodd" clip-rule="evenodd" d="M20.7068 1.25499C20.9022 1.39452 20.9859 1.61778 20.9859 1.86894C20.958 2.78987 20.9301 3.68289 20.9022 4.60382C20.9022 4.79917 20.9022 4.99452 20.8743 5.16196C20.8743 5.3294 20.8185 5.46894 20.6231 5.52475C20.4557 5.58057 20.3161 5.52475 20.2045 5.35731C19.8696 4.9108 19.5068 4.49219 19.172 4.04568C19.0045 3.82243 18.8092 3.68289 18.558 3.59917C18.0278 3.43173 17.5254 3.26429 16.9952 3.06894C16.8278 3.01312 16.6882 2.9294 16.6603 2.73406C16.6324 2.56661 16.7161 2.45499 16.9394 2.37126C17.9441 1.95266 18.9766 1.56196 19.9813 1.17126C20.2603 1.08754 20.4836 1.08754 20.7068 1.25499Z" fill="#1C274C"/>
</svg>
