<svg width="22" height="21" viewBox="0 0 22 21" fill="none" xmlns="http://www.w3.org/2000/svg">
<path d="M8.45711 2.54289C8.16421 2.25 7.69281 2.25 6.75 2.25H6.5V0.75C6.5 0.335786 6.16421 0 5.75 0C5.33579 0 5 0.335786 5 0.75V2.25H4.75C3.80719 2.25 3.33579 2.25 3.04289 2.54289C2.75 2.83579 2.75 3.30719 2.75 4.25V4.4538C2.95249 4.40059 3.15564 4.36348 3.35559 4.3366C4.00121 4.2498 4.79487 4.24989 5.6605 4.24999H5.8395C6.70513 4.24989 7.49879 4.2498 8.14441 4.3366C8.34436 4.36348 8.54751 4.40059 8.74999 4.4538L8.75 4.25C8.75 3.30719 8.75 2.83579 8.45711 2.54289Z" fill="#1C274C"/>
<path fill-rule="evenodd" clip-rule="evenodd" d="M0.75 19C0.335786 19 0 19.3358 0 19.75C0 20.1642 0.335786 20.5 0.75 20.5H20.75C21.1642 20.5 21.5 20.1642 21.5 19.75C21.5 19.3358 21.1642 19 20.75 19H19.75V5.52195C19.75 4.1811 19.75 3.51068 19.3939 2.99676C19.0377 2.48283 18.41 2.24743 17.1545 1.77663C14.6992 0.855913 13.4716 0.395554 12.6108 0.992096C11.75 1.58864 11.75 2.89974 11.75 5.52195V8.24999L11.8395 8.24999C12.7051 8.24989 13.4988 8.2498 14.1444 8.3366C14.8554 8.43218 15.6068 8.65708 16.2249 9.27513C16.8429 9.89317 17.0678 10.6446 17.1634 11.3556C17.2502 12.0012 17.2501 12.7949 17.25 13.6605L17.25 13.75V19H15.75V13.75C15.75 11.8644 15.75 10.9216 15.1642 10.3358C14.5784 9.75 13.6356 9.75 11.75 9.75H9.75C7.86438 9.75 6.92157 9.75 6.33579 10.3358C5.75 10.9216 5.75 11.8644 5.75 13.75V19H4.25V13.75L4.24999 13.6605C4.24989 12.7949 4.2498 12.0012 4.3366 11.3556C4.43219 10.6446 4.65708 9.89317 5.27513 9.27513C5.89317 8.65708 6.64462 8.43218 7.35558 8.3366C8.00121 8.2498 8.79487 8.24989 9.6605 8.24999L9.73252 8.24999C9.69364 7.31385 9.5683 6.73987 9.16421 6.33579C8.57843 5.75 7.63562 5.75 5.75 5.75C3.86438 5.75 2.92157 5.75 2.33579 6.33579C1.75 6.92157 1.75 7.86438 1.75 9.75V19H0.75ZM8 12.75C8 12.3358 8.33579 12 8.75 12H12.75C13.1642 12 13.5 12.3358 13.5 12.75C13.5 13.1642 13.1642 13.5 12.75 13.5H8.75C8.33579 13.5 8 13.1642 8 12.75ZM8 15.75C8 15.3358 8.33579 15 8.75 15H12.75C13.1642 15 13.5 15.3358 13.5 15.75C13.5 16.1642 13.1642 16.5 12.75 16.5H8.75C8.33579 16.5 8 16.1642 8 15.75Z" fill="#1C274C"/>
</svg>
