<svg width="17" height="24" viewBox="0 0 17 24" fill="none" xmlns="http://www.w3.org/2000/svg">
<path fill-rule="evenodd" clip-rule="evenodd" d="M8.40005 16.8001C13.0393 16.8001 16.8001 13.0393 16.8001 8.40005C16.8001 3.76083 13.0393 0 8.40005 0C3.76083 0 0 3.76083 0 8.40005C0 13.0393 3.76083 16.8001 8.40005 16.8001ZM8.40005 4.80003C8.05918 4.80003 7.83118 5.20904 7.37519 6.02705L7.25722 6.23868C7.12764 6.47114 7.06284 6.58737 6.96182 6.66405C6.8608 6.74074 6.73499 6.76921 6.48336 6.82614L6.25427 6.87797C5.36878 7.07833 4.92604 7.1785 4.8207 7.51723C4.71537 7.85596 5.0172 8.20892 5.62087 8.91483L5.77705 9.09746C5.94859 9.29806 6.03436 9.39836 6.07295 9.52244C6.11154 9.64652 6.09857 9.78034 6.07263 10.048L6.04902 10.2917C5.95776 11.2335 5.91212 11.7044 6.18789 11.9138C6.46367 12.1231 6.87821 11.9322 7.70729 11.5505L7.92179 11.4517C8.15739 11.3433 8.27519 11.289 8.40005 11.289C8.52492 11.289 8.64272 11.3433 8.87832 11.4517L9.09282 11.5505C9.9219 11.9322 10.3364 12.1231 10.6122 11.9138C10.888 11.7044 10.8424 11.2335 10.7511 10.2916L10.7275 10.048C10.7015 9.78036 10.6886 9.64652 10.7272 9.52244C10.7657 9.39836 10.8515 9.29806 11.0231 9.09747L11.1792 8.91483C11.7829 8.20892 12.0847 7.85596 11.9794 7.51723C11.8741 7.1785 11.4313 7.07833 10.5458 6.87797L10.3167 6.82614C10.0651 6.76921 9.93931 6.74074 9.83828 6.66405C9.73726 6.58737 9.67247 6.47114 9.54289 6.23868L9.42492 6.02705C8.96893 5.20904 8.74093 4.80003 8.40005 4.80003Z" fill="#1C274C"/>
<path d="M2.51169 16.7297L2.05716 18.3875C1.30314 21.1378 0.926137 22.5129 1.42923 23.2657C1.60555 23.5295 1.84207 23.7413 2.11654 23.881C2.89969 24.2798 4.10889 23.6497 6.52728 22.3896C7.33195 21.9703 7.73431 21.7606 8.16182 21.7151C8.32029 21.6982 8.47994 21.6982 8.6384 21.7151C9.06592 21.7606 9.46826 21.9703 10.2729 22.3896C12.6913 23.6497 13.9005 24.2798 14.6837 23.881C14.9582 23.7413 15.1947 23.5295 15.371 23.2657C15.8741 22.5129 15.4971 21.1378 14.7431 18.3875L14.2885 16.7297C12.6252 17.9077 10.5935 18.6 8.40011 18.6C6.20674 18.6 4.17507 17.9077 2.51169 16.7297Z" fill="#1C274C"/>
</svg>
