<svg width="20" height="16" viewBox="0 0 20 16" fill="none" xmlns="http://www.w3.org/2000/svg">
<path fill-rule="evenodd" clip-rule="evenodd" d="M0 8C0 4.22876 0 2.34315 1.17157 1.17157C2.34315 0 4.22876 0 8 0H12C15.7712 0 17.6569 0 18.8284 1.17157C20 2.34315 20 4.22876 20 8C20 11.7712 20 13.6569 18.8284 14.8284C17.6569 16 15.7712 16 12 16H8C4.22876 16 2.34315 16 1.17157 14.8284C0 13.6569 0 11.7712 0 8ZM4 11.25C3.58579 11.25 3.25 11.5858 3.25 12C3.25 12.4142 3.58579 12.75 4 12.75H8C8.41421 12.75 8.75 12.4142 8.75 12C8.75 11.5858 8.41421 11.25 8 11.25H4ZM5.75 9C5.75 8.58579 5.41421 8.25 5 8.25H4C3.58579 8.25 3.25 8.58579 3.25 9C3.25 9.41421 3.58579 9.75 4 9.75H5C5.41421 9.75 5.75 9.41421 5.75 9ZM9.5 8.25C9.91421 8.25 10.25 8.58579 10.25 9C10.25 9.41421 9.91421 9.75 9.5 9.75H7.5C7.08579 9.75 6.75 9.41421 6.75 9C6.75 8.58579 7.08579 8.25 7.5 8.25H9.5ZM16.75 9C16.75 8.58579 16.4142 8.25 16 8.25H12C11.5858 8.25 11.25 8.58579 11.25 9C11.25 9.41421 11.5858 9.75 12 9.75H16C16.4142 9.75 16.75 9.41421 16.75 9ZM10.5 11.25C10.0858 11.25 9.75 11.5858 9.75 12C9.75 12.4142 10.0858 12.75 10.5 12.75H12C12.4142 12.75 12.75 12.4142 12.75 12C12.75 11.5858 12.4142 11.25 12 11.25H10.5ZM13.75 12C13.75 11.5858 14.0858 11.25 14.5 11.25H16C16.4142 11.25 16.75 11.5858 16.75 12C16.75 12.4142 16.4142 12.75 16 12.75H14.5C14.0858 12.75 13.75 12.4142 13.75 12Z" fill="#1C274C"/>
</svg>
