<svg width="150" height="150" viewBox="0 0 150 150" fill="none" xmlns="http://www.w3.org/2000/svg">
<g filter="url(#filter0_d_113_1610)">
<rect x="20.46" y="22.5" width="105" height="105" rx="52.5" fill="#FCFDFF"/>
<mask id="mask0_113_1610" style="mask-type:alpha" maskUnits="userSpaceOnUse" x="44" y="46" width="58" height="58">
<rect x="44.46" y="46.5" width="57" height="57" fill="#D9D9D9"/>
</mask>
<g mask="url(#mask0_113_1610)">
<path d="M73.6131 83.3719C76.3839 83.3719 78.7391 82.4813 80.6787 80.7C82.6183 78.9188 83.5881 76.7615 83.5881 74.2281C83.5881 71.9719 82.8657 70.062 81.4209 68.4984C79.9761 66.9349 78.2245 66.1531 76.1662 66.1531C74.3058 66.1531 72.7324 66.7469 71.4459 67.9344C70.1594 69.1219 69.5162 70.5865 69.5162 72.3281C69.5162 73.0802 69.6646 73.8125 69.9615 74.525C70.2584 75.2375 70.6839 75.8906 71.2381 76.4844L74.6225 73.1C74.5037 73.0208 74.4146 72.9219 74.3553 72.8031C74.2959 72.6844 74.2662 72.5458 74.2662 72.3875C74.2662 71.9521 74.4443 71.6057 74.8006 71.3484C75.1568 71.0911 75.612 70.9625 76.1662 70.9625C76.9579 70.9625 77.611 71.2891 78.1256 71.9422C78.6402 72.5953 78.8975 73.3771 78.8975 74.2875C78.8975 75.5146 78.3928 76.5536 77.3834 77.4047C76.374 78.2557 75.137 78.6812 73.6725 78.6812C71.812 78.6812 70.2386 77.9292 68.9521 76.425C67.6657 74.9208 67.0225 73.0802 67.0225 70.9031C67.0225 69.7552 67.2402 68.6568 67.6756 67.6078C68.111 66.5589 68.7245 65.6385 69.5162 64.8469L66.1318 61.4625C64.8652 62.6896 63.8954 64.1146 63.2225 65.7375C62.5495 67.3604 62.2131 69.0625 62.2131 70.8438C62.2131 74.3271 63.3214 77.2859 65.5381 79.7203C67.7548 82.1547 70.4464 83.3719 73.6131 83.3719ZM58.71 98.75V88.5375C56.4537 86.4792 54.7021 84.0745 53.4553 81.3234C52.2084 78.5724 51.585 75.6729 51.585 72.625C51.585 66.6875 53.6631 61.6406 57.8193 57.4844C61.9756 53.3281 67.0225 51.25 72.96 51.25C77.9079 51.25 82.2917 52.7047 86.1115 55.6141C89.9313 58.5234 92.4152 62.3135 93.5631 66.9844L96.6506 79.1562C96.8485 79.9083 96.71 80.5911 96.235 81.2047C95.76 81.8182 95.1266 82.125 94.335 82.125H89.585V89.25C89.585 90.5563 89.1199 91.6745 88.1896 92.6047C87.2594 93.5349 86.1412 94 84.835 94H80.085V98.75H75.335V89.25H84.835V77.375H91.2475L88.9912 68.1719C88.0808 64.5698 86.1412 61.6406 83.1725 59.3844C80.2037 57.1281 76.7995 56 72.96 56C68.3683 56 64.4495 57.6031 61.2037 60.8094C57.9579 64.0156 56.335 67.9146 56.335 72.5063C56.335 74.8813 56.8199 77.1375 57.7896 79.275C58.7594 81.4125 60.135 83.3125 61.9162 84.975L63.46 86.4V98.75H58.71Z" fill="url(#paint0_linear_113_1610)"/>
</g>
<rect x="22.46" y="24.5" width="101" height="101" rx="50.5" stroke="url(#paint1_linear_113_1610)" stroke-width="4"/>
</g>
<path d="M22.9919 47.2558C27.0906 39.874 32.774 33.492 39.6335 28.5687C46.4929 23.6453 54.3581 20.303 62.6633 18.782C70.9686 17.2609 79.5078 17.5989 87.6668 19.7717C95.8259 21.9446 103.402 25.8982 109.851 31.3483" stroke="#428358" stroke-linejoin="round"/>
<path d="M33.7629 116.595C27.7939 110.97 23.1055 104.126 20.016 96.5288C16.9266 88.9313 15.5085 80.7578 15.8581 72.5636" stroke="#428358" stroke-linejoin="round"/>
<path d="M130.069 72.7754C130.452 82.615 128.287 92.3867 123.782 101.143C119.278 109.9 112.588 117.344 104.36 122.754C96.1325 128.164 86.6466 131.357 76.8221 132.022C66.9975 132.688 57.1677 130.804 48.2855 126.553" stroke="#428358" stroke-linejoin="round"/>
<path d="M121.442 44.7363C122.084 45.7651 122.693 46.8141 123.269 47.8816" stroke="#428358" stroke-linejoin="round"/>
<path d="M59.6602 14.0284C71.0597 11.542 82.928 12.3011 93.9179 16.2196" stroke="#428358" stroke-width="0.7" stroke-linejoin="round" stroke-dasharray="3 3"/>
<path d="M11.6605 63.3012C14.6168 47.811 23.328 34.0143 36.0425 24.6855" stroke="#428358" stroke-width="0.7" stroke-linejoin="round" stroke-dasharray="3 3"/>
<path d="M50.3642 133.171C41.6215 129.775 33.7567 124.452 27.3545 117.598C20.9523 110.744 16.1774 102.535 13.3847 93.5815" stroke="#428358" stroke-width="0.7" stroke-linejoin="round" stroke-dasharray="3 3"/>
<path d="M119.427 33.345C127.296 42.123 132.517 52.9504 134.487 64.5733C136.457 76.1963 135.094 88.1394 130.556 99.0199C126.019 109.9 118.492 119.273 108.848 126.053C99.2041 132.832 87.8369 136.742 76.0629 137.328" stroke="#428358" stroke-width="0.7" stroke-linejoin="round" stroke-dasharray="3 3"/>
<path d="M3.56593 75.8033C3.45433 66.1628 5.35268 56.6049 9.13995 47.7388C12.9272 38.8727 18.5203 30.8929 25.5627 24.3084C32.605 17.7238 40.9421 12.6788 50.0424 9.49509C59.1427 6.31136 68.8065 5.05873 78.4177 5.81705" stroke="#428358" stroke-linejoin="round"/>
<path d="M141.755 65.8778C143.932 82.2957 140.166 98.9509 131.137 112.835C122.108 126.719 108.411 136.916 92.5208 141.584C76.6307 146.252 59.595 145.084 44.491 138.29C29.3871 131.496 17.2107 119.525 10.1614 104.538" stroke="#428358" stroke-linejoin="round"/>
<path d="M107.394 14.7481C118.658 21.1855 127.892 30.6515 134.048 42.0716" stroke="#428358" stroke-linejoin="round"/>
<circle cx="3.06122" cy="91.8367" r="2.56122" fill="#428358" stroke="#428358"/>
<circle cx="147.449" cy="81.1224" r="2.05102" fill="#428358" stroke="#428358"/>
<circle cx="126.02" cy="19.8979" r="1.03061" fill="#68BF7B" stroke="#428358"/>
<defs>
<filter id="filter0_d_113_1610" x="10.46" y="17.5" width="121" height="121" filterUnits="userSpaceOnUse" color-interpolation-filters="sRGB">
<feFlood flood-opacity="0" result="BackgroundImageFix"/>
<feColorMatrix in="SourceAlpha" type="matrix" values="0 0 0 0 0 0 0 0 0 0 0 0 0 0 0 0 0 0 127 0" result="hardAlpha"/>
<feOffset dx="-2" dy="3"/>
<feGaussianBlur stdDeviation="4"/>
<feComposite in2="hardAlpha" operator="out"/>
<feColorMatrix type="matrix" values="0 0 0 0 0 0 0 0 0 0 0 0 0 0 0 0 0 0 0.12 0"/>
<feBlend mode="normal" in2="BackgroundImageFix" result="effect1_dropShadow_113_1610"/>
<feBlend mode="normal" in="SourceGraphic" in2="effect1_dropShadow_113_1610" result="shape"/>
</filter>
<linearGradient id="paint0_linear_113_1610" x1="51.4773" y1="99.0667" x2="97.0773" y2="50.9333" gradientUnits="userSpaceOnUse">
<stop stop-color="#428358"/>
<stop offset="1" stop-color="#68BF7B"/>
</linearGradient>
<linearGradient id="paint1_linear_113_1610" x1="20.46" y1="127.5" x2="125.46" y2="22.5" gradientUnits="userSpaceOnUse">
<stop stop-color="#428358"/>
<stop offset="1" stop-color="#68BF7B"/>
</linearGradient>
</defs>
</svg>
