<svg width="40" height="40" viewBox="0 0 40 40" fill="none" xmlns="http://www.w3.org/2000/svg">
<path d="M31.1569 22.7766C31.2857 22.8111 31.4185 22.8286 31.5518 22.8287C31.9371 22.8285 32.3079 22.6818 32.589 22.4183C32.8701 22.1548 33.0405 21.7943 33.0656 21.4098C33.0907 21.0254 32.9687 20.6457 32.7243 20.3479C32.4799 20.0501 32.1313 19.8563 31.7493 19.806C31.3674 19.7556 30.9805 19.8524 30.6673 20.0768C30.354 20.3011 30.1378 20.6361 30.0625 21.014C29.9871 21.3918 30.0583 21.7842 30.2615 22.1115C30.4648 22.4388 30.7849 22.6766 31.1569 22.7766ZM31.1406 21.1999C31.1551 21.1458 31.1801 21.0951 31.2141 21.0507C31.2482 21.0063 31.2907 20.969 31.3392 20.941C31.3877 20.9131 31.4413 20.8949 31.4968 20.8877C31.5523 20.8804 31.6087 20.8842 31.6627 20.8988C31.7442 20.9206 31.8173 20.9661 31.8728 21.0296C31.9284 21.093 31.9639 21.1714 31.9749 21.255C31.9858 21.3386 31.9717 21.4236 31.9344 21.4992C31.8971 21.5748 31.8382 21.6376 31.7652 21.6797C31.6921 21.7218 31.6082 21.7413 31.5241 21.7357C31.44 21.7302 31.3594 21.6998 31.2926 21.6484C31.2257 21.5971 31.1756 21.527 31.1485 21.4472C31.1215 21.3673 31.1187 21.2813 31.1406 21.1999ZM35.0714 24.753C34.7326 24.6622 34.3729 24.6917 34.0535 24.8365C33.7341 24.9812 33.4748 25.2322 33.3197 25.5467C33.1646 25.8612 33.1234 26.2198 33.203 26.5613C33.2827 26.9028 33.4783 27.2061 33.7565 27.4196C34.0347 27.633 34.3783 27.7434 34.7288 27.7319C35.0792 27.7205 35.4149 27.5878 35.6785 27.3566C35.9422 27.1254 36.1175 26.8099 36.1746 26.4639C36.2317 26.118 36.1671 25.7629 35.9918 25.4592C35.7902 25.1108 35.4585 24.8568 35.0696 24.753H35.0714ZM35.0907 26.3276C35.0653 26.423 35.0076 26.5066 34.9275 26.5643C34.8473 26.6219 34.7496 26.6499 34.6511 26.6436C34.5526 26.6373 34.4593 26.597 34.3872 26.5297C34.315 26.4623 34.2685 26.3719 34.2554 26.2741C34.2424 26.1762 34.2638 26.0769 34.3158 25.993C34.3678 25.9091 34.4473 25.8458 34.5408 25.814C34.6342 25.7821 34.7358 25.7837 34.8283 25.8184C34.9207 25.853 34.9982 25.9187 35.0477 26.0042C35.0757 26.0526 35.0938 26.1062 35.1009 26.1617C35.108 26.2173 35.104 26.2736 35.089 26.3276H35.0907ZM36.1406 20.8532C36.2427 20.9554 36.3 21.0939 36.3 21.2383C36.3 21.3828 36.2427 21.5213 36.1406 21.6235L30.7763 26.9861C30.6735 27.0851 30.5358 27.1399 30.3931 27.1385C30.2503 27.1371 30.1138 27.0798 30.0128 26.9788C29.9119 26.8778 29.8546 26.7412 29.8534 26.5985C29.8521 26.4557 29.9069 26.3181 30.006 26.2153L35.3681 20.8532C35.4187 20.8026 35.4788 20.7624 35.5449 20.735C35.6111 20.7076 35.6819 20.6935 35.7535 20.6935C35.8251 20.6935 35.8959 20.7076 35.9621 20.735C36.0282 20.7624 36.0883 20.8026 36.1389 20.8532H36.1406ZM10.1191 21.5345C8.66494 21.5349 7.24357 21.9665 6.0347 22.7747C4.82583 23.5829 3.88375 24.7314 3.32759 26.075C2.77142 27.4186 2.62615 28.8969 2.91013 30.3231C3.19411 31.7492 3.8946 33.0592 4.92302 34.0872C5.95144 35.1153 7.26161 35.8153 8.68786 36.0988C10.1141 36.3823 11.5924 36.2365 12.9358 35.6798C14.2792 35.1232 15.4274 34.1807 16.2351 32.9716C17.0429 31.7624 17.474 30.3409 17.4739 28.8867C17.4718 26.9366 16.6958 25.067 15.3163 23.6885C13.9368 22.31 12.0667 21.5353 10.1165 21.5345H10.1191ZM10.1191 35.15C8.88024 35.1505 7.66905 34.7836 6.63873 34.0957C5.60841 33.4078 4.80523 32.4298 4.33079 31.2854C3.85635 30.1409 3.73194 28.8815 3.97332 27.6664C4.2147 26.4513 4.81101 25.3351 5.68683 24.4589C6.56266 23.5827 7.67865 22.9859 8.89367 22.744C10.1087 22.5022 11.3681 22.6261 12.5128 23.1C13.6574 23.574 14.6357 24.3768 15.324 25.4068C16.0123 26.4368 16.3797 27.6479 16.3797 28.8867C16.3779 30.5473 15.7175 32.1393 14.5433 33.3135C13.3691 34.4877 11.7771 35.1481 10.1165 35.15H10.1191ZM12.1475 26.4429V27.3547C12.1495 27.4275 12.137 27.5 12.1105 27.5679C12.084 27.6358 12.0442 27.6977 11.9935 27.7499C11.9427 27.8021 11.8819 27.8436 11.8148 27.872C11.7477 27.9003 11.6756 27.9149 11.6028 27.9149C11.5299 27.9149 11.4578 27.9003 11.3907 27.872C11.3236 27.8436 11.2628 27.8021 11.212 27.7499C11.1613 27.6977 11.1215 27.6358 11.095 27.5679C11.0685 27.5 11.056 27.4275 11.058 27.3547V26.4429C11.058 26.294 10.6916 26.0097 10.1165 26.0097C9.54146 26.0097 9.17544 26.294 9.17544 26.4429V27.6876C9.17544 27.9758 9.46404 28.1177 10.2769 28.3663C11.0662 28.6093 12.1475 28.9418 12.1475 30.0867V31.3315C12.1475 32.0429 11.5273 32.6257 10.6615 32.8003V33.3091C10.6635 33.3819 10.6509 33.4544 10.6245 33.5223C10.598 33.5902 10.5582 33.6521 10.5074 33.7043C10.4567 33.7565 10.3959 33.798 10.3288 33.8264C10.2617 33.8548 10.1896 33.8694 10.1167 33.8694C10.0439 33.8694 9.97176 33.8548 9.90466 33.8264C9.83755 33.798 9.7768 33.7565 9.72602 33.7043C9.67523 33.6521 9.63544 33.5902 9.60898 33.5223C9.58253 33.4544 9.56995 33.3819 9.572 33.3091V32.7999C8.70576 32.6252 8.08684 32.0429 8.08684 31.331V30.4209C8.08684 30.2764 8.14425 30.1378 8.24645 30.0356C8.34864 29.9334 8.48725 29.876 8.63178 29.876C8.77631 29.876 8.91492 29.9334 9.01712 30.0356C9.11932 30.1378 9.17673 30.2764 9.17673 30.4209V31.331C9.17673 31.4799 9.54318 31.7637 10.1178 31.7637C10.6924 31.7637 11.0593 31.4799 11.0593 31.331V30.0863C11.0593 29.7977 10.7707 29.6562 9.9578 29.4076C9.16813 29.1646 8.08684 28.8321 8.08684 27.6872V26.4429C8.08684 25.731 8.70705 25.1482 9.57329 24.974V24.4648C9.57727 24.323 9.63641 24.1883 9.73814 24.0894C9.83986 23.9905 9.97614 23.9352 10.118 23.9352C10.2599 23.9352 10.3962 23.9905 10.4979 24.0894C10.5996 24.1883 10.6588 24.323 10.6628 24.4648V24.974C11.5277 25.1482 12.1475 25.731 12.1475 26.4429Z" fill="#428358"/>
<path d="M31.1569 22.7766C31.2857 22.8111 31.4185 22.8286 31.5518 22.8287C31.9371 22.8285 32.3079 22.6818 32.589 22.4183C32.8701 22.1548 33.0405 21.7943 33.0656 21.4098C33.0907 21.0254 32.9687 20.6457 32.7243 20.3479C32.4799 20.0501 32.1313 19.8563 31.7493 19.806C31.3674 19.7556 30.9805 19.8524 30.6673 20.0768C30.354 20.3011 30.1378 20.6361 30.0625 21.014C29.9871 21.3918 30.0583 21.7842 30.2615 22.1115C30.4648 22.4388 30.7849 22.6766 31.1569 22.7766ZM31.1406 21.1999C31.1551 21.1458 31.1801 21.0951 31.2141 21.0507C31.2482 21.0063 31.2907 20.969 31.3392 20.941C31.3877 20.9131 31.4413 20.8949 31.4968 20.8877C31.5523 20.8804 31.6087 20.8842 31.6627 20.8988C31.7442 20.9206 31.8173 20.9661 31.8728 21.0296C31.9284 21.093 31.9639 21.1714 31.9749 21.255C31.9858 21.3386 31.9717 21.4236 31.9344 21.4992C31.8971 21.5748 31.8382 21.6376 31.7652 21.6797C31.6921 21.7218 31.6082 21.7413 31.5241 21.7357C31.44 21.7302 31.3594 21.6998 31.2926 21.6484C31.2257 21.5971 31.1756 21.527 31.1485 21.4472C31.1215 21.3673 31.1187 21.2813 31.1406 21.1999ZM35.0714 24.753C34.7326 24.6622 34.3729 24.6917 34.0535 24.8365C33.7341 24.9812 33.4748 25.2322 33.3197 25.5467C33.1646 25.8612 33.1234 26.2198 33.203 26.5613C33.2827 26.9028 33.4783 27.2061 33.7565 27.4196C34.0347 27.633 34.3783 27.7434 34.7288 27.7319C35.0792 27.7205 35.4149 27.5878 35.6785 27.3566C35.9422 27.1254 36.1175 26.8099 36.1746 26.4639C36.2317 26.118 36.1671 25.7629 35.9918 25.4592C35.7902 25.1108 35.4585 24.8568 35.0696 24.753H35.0714ZM35.0907 26.3276C35.0653 26.423 35.0076 26.5066 34.9275 26.5643C34.8473 26.6219 34.7496 26.6499 34.6511 26.6436C34.5526 26.6373 34.4593 26.597 34.3872 26.5297C34.315 26.4623 34.2685 26.3719 34.2554 26.2741C34.2424 26.1762 34.2638 26.0769 34.3158 25.993C34.3678 25.9091 34.4473 25.8458 34.5408 25.814C34.6342 25.7821 34.7358 25.7837 34.8283 25.8184C34.9207 25.853 34.9982 25.9187 35.0477 26.0042C35.0757 26.0526 35.0938 26.1062 35.1009 26.1617C35.108 26.2173 35.104 26.2736 35.089 26.3276H35.0907ZM36.1406 20.8532C36.2427 20.9554 36.3 21.0939 36.3 21.2383C36.3 21.3828 36.2427 21.5213 36.1406 21.6235L30.7763 26.9861C30.6735 27.0851 30.5358 27.1399 30.3931 27.1385C30.2503 27.1371 30.1138 27.0798 30.0128 26.9788C29.9119 26.8778 29.8546 26.7412 29.8534 26.5985C29.8521 26.4557 29.9069 26.3181 30.006 26.2153L35.3681 20.8532C35.4187 20.8026 35.4788 20.7624 35.5449 20.735C35.6111 20.7076 35.6819 20.6935 35.7535 20.6935C35.8251 20.6935 35.8959 20.7076 35.9621 20.735C36.0282 20.7624 36.0883 20.8026 36.1389 20.8532H36.1406ZM10.1191 21.5345C8.66494 21.5349 7.24357 21.9665 6.0347 22.7747C4.82583 23.5829 3.88375 24.7314 3.32759 26.075C2.77142 27.4186 2.62615 28.8969 2.91013 30.3231C3.19411 31.7492 3.8946 33.0592 4.92302 34.0872C5.95144 35.1153 7.26161 35.8153 8.68786 36.0988C10.1141 36.3823 11.5924 36.2365 12.9358 35.6798C14.2792 35.1232 15.4274 34.1807 16.2351 32.9716C17.0429 31.7624 17.474 30.3409 17.4739 28.8867C17.4718 26.9366 16.6958 25.067 15.3163 23.6885C13.9368 22.31 12.0667 21.5353 10.1165 21.5345H10.1191ZM10.1191 35.15C8.88024 35.1505 7.66905 34.7836 6.63873 34.0957C5.60841 33.4078 4.80523 32.4298 4.33079 31.2854C3.85635 30.1409 3.73194 28.8815 3.97332 27.6664C4.2147 26.4513 4.81101 25.3351 5.68683 24.4589C6.56266 23.5827 7.67865 22.9859 8.89367 22.744C10.1087 22.5022 11.3681 22.6261 12.5128 23.1C13.6574 23.574 14.6357 24.3768 15.324 25.4068C16.0123 26.4368 16.3797 27.6479 16.3797 28.8867C16.3779 30.5473 15.7175 32.1393 14.5433 33.3135C13.3691 34.4877 11.7771 35.1481 10.1165 35.15H10.1191ZM12.1475 26.4429V27.3547C12.1495 27.4275 12.137 27.5 12.1105 27.5679C12.084 27.6358 12.0442 27.6977 11.9935 27.7499C11.9427 27.8021 11.8819 27.8436 11.8148 27.872C11.7477 27.9003 11.6756 27.9149 11.6028 27.9149C11.5299 27.9149 11.4578 27.9003 11.3907 27.872C11.3236 27.8436 11.2628 27.8021 11.212 27.7499C11.1613 27.6977 11.1215 27.6358 11.095 27.5679C11.0685 27.5 11.056 27.4275 11.058 27.3547V26.4429C11.058 26.294 10.6916 26.0097 10.1165 26.0097C9.54146 26.0097 9.17544 26.294 9.17544 26.4429V27.6876C9.17544 27.9758 9.46404 28.1177 10.2769 28.3663C11.0662 28.6093 12.1475 28.9418 12.1475 30.0867V31.3315C12.1475 32.0429 11.5273 32.6257 10.6615 32.8003V33.3091C10.6635 33.3819 10.6509 33.4544 10.6245 33.5223C10.598 33.5902 10.5582 33.6521 10.5074 33.7043C10.4567 33.7565 10.3959 33.798 10.3288 33.8264C10.2617 33.8548 10.1896 33.8694 10.1167 33.8694C10.0439 33.8694 9.97176 33.8548 9.90466 33.8264C9.83755 33.798 9.7768 33.7565 9.72602 33.7043C9.67523 33.6521 9.63544 33.5902 9.60898 33.5223C9.58253 33.4544 9.56995 33.3819 9.572 33.3091V32.7999C8.70576 32.6252 8.08684 32.0429 8.08684 31.331V30.4209C8.08684 30.2764 8.14425 30.1378 8.24645 30.0356C8.34864 29.9334 8.48725 29.876 8.63178 29.876C8.77631 29.876 8.91492 29.9334 9.01712 30.0356C9.11932 30.1378 9.17673 30.2764 9.17673 30.4209V31.331C9.17673 31.4799 9.54318 31.7637 10.1178 31.7637C10.6924 31.7637 11.0593 31.4799 11.0593 31.331V30.0863C11.0593 29.7977 10.7707 29.6562 9.9578 29.4076C9.16813 29.1646 8.08684 28.8321 8.08684 27.6872V26.4429C8.08684 25.731 8.70705 25.1482 9.57329 24.974V24.4648C9.57727 24.323 9.63641 24.1883 9.73814 24.0894C9.83986 23.9905 9.97614 23.9352 10.118 23.9352C10.2599 23.9352 10.3962 23.9905 10.4979 24.0894C10.5996 24.1883 10.6588 24.323 10.6628 24.4648V24.974C11.5277 25.1482 12.1475 25.731 12.1475 26.4429Z" fill="#FFF743" fill-opacity="0.33"/>
<path d="M35.3508 17.3473C35.3429 16.7975 35.119 16.2728 34.7276 15.8865C34.3362 15.5003 33.8086 15.2834 33.2587 15.2828H27.5981C27.7674 14.9755 27.8562 14.6303 27.8561 14.2794V12.0389C27.8565 11.6112 27.7251 11.1936 27.4798 10.8432L33.6647 12.5529C34.1997 12.6994 34.771 12.6281 35.2536 12.3545C35.7361 12.081 36.0907 11.6274 36.2398 11.0931L36.8368 8.93269C36.984 8.39766 36.913 7.82607 36.6393 7.34333C36.3657 6.86058 35.9117 6.5061 35.377 6.35764L16.2587 1.07549C15.7237 0.928974 15.1524 1.0003 14.6699 1.27386C14.1873 1.54743 13.8327 2.00096 13.6837 2.53527L13.0845 4.69355C12.9372 5.22865 13.0081 5.80034 13.2818 6.28319C13.5555 6.76603 14.0095 7.12058 14.5443 7.26904L24.2312 9.94645H5.92581C5.37102 9.94714 4.83914 10.1678 4.44681 10.5601C4.05447 10.9523 3.8337 11.4841 3.83291 12.0389V14.2798C3.83359 14.8347 4.05431 15.3666 4.44666 15.7589C4.839 16.1513 5.37095 16.372 5.92581 16.3727H11.5865C11.4172 16.6801 11.3284 17.0252 11.3284 17.3761V18.8437C9.95894 18.6786 8.5702 18.7954 7.24754 19.1868C5.92487 19.5781 4.69623 20.2359 3.63712 21.1196C2.57802 22.0033 1.71084 23.0943 1.08889 24.3255C0.466932 25.5567 0.103344 26.902 0.0204715 28.2789C-0.0624009 29.6558 0.137194 31.0351 0.606986 32.3319C1.07678 33.6288 1.80684 34.816 2.7523 35.8203C3.69776 36.8247 4.83864 37.6251 6.10482 38.1723C7.37099 38.7195 8.7357 39.002 10.1151 39.0024C11.8366 39.0048 13.53 38.5651 15.0329 37.7254H29.7082C30.2631 37.7247 30.7951 37.5039 31.1875 37.1115C31.5798 36.719 31.8005 36.187 31.8011 35.632V33.3908C31.8009 33.0989 31.7396 32.8103 31.621 32.5437C31.5025 32.277 31.3294 32.0381 31.1129 31.8424C31.4473 31.5389 31.6745 31.1355 31.7607 30.6923C33.4794 31.0227 35.2595 30.6903 36.7432 29.7619C38.2269 28.8336 39.3043 27.378 39.7587 25.6878C40.2131 23.9976 40.011 22.1981 39.1929 20.6508C38.3748 19.1036 37.0013 17.9233 35.3486 17.3473H35.3508ZM14.1344 4.98387L14.7318 2.82344C14.8028 2.56703 14.9727 2.3493 15.2042 2.21808C15.4357 2.08687 15.7098 2.05291 15.9662 2.12366L35.0854 7.40796C35.3417 7.47908 35.5594 7.649 35.6906 7.88043C35.8218 8.11186 35.8558 8.38589 35.7852 8.64237L35.1882 10.8028C35.1171 11.0591 34.9471 11.2768 34.7157 11.408C34.4843 11.5392 34.2102 11.5732 33.9538 11.5026L14.8346 6.21871C14.5783 6.14739 14.3607 5.97739 14.2294 5.74594C14.0982 5.51449 14.064 5.24046 14.1344 4.98387ZM4.92237 14.2798V12.0389C4.92271 11.7729 5.02854 11.5179 5.21665 11.3298C5.40475 11.1417 5.65978 11.0358 5.92581 11.0355H25.7641C26.0301 11.0358 26.2851 11.1417 26.4733 11.3298C26.6614 11.5179 26.7672 11.7729 26.7675 12.0389V14.2798C26.7674 14.546 26.6617 14.8012 26.4736 14.9895C26.2854 15.1778 26.0303 15.2837 25.7641 15.2841H5.92581C5.65964 15.2837 5.40447 15.1778 5.21634 14.9895C5.02821 14.8012 4.92248 14.546 4.92237 14.2798ZM12.4191 17.3766C12.4195 17.1105 12.5253 16.8555 12.7134 16.6674C12.9015 16.4793 13.1566 16.3735 13.4226 16.3731H33.2587C33.4684 16.3734 33.6728 16.4393 33.8431 16.5617C34.0134 16.684 34.1412 16.8566 34.2084 17.0553C32.7796 16.82 31.3131 17.0373 30.0139 17.6767C28.7148 18.3161 27.648 19.3457 26.9628 20.6213H15.9422C14.8811 19.8705 13.6847 19.332 12.4191 19.0355V17.3766ZM26.463 25.9598H19.7998C19.3116 24.3533 18.4318 22.8933 17.2394 21.7112H26.4953C26.4523 21.8402 26.4144 21.9662 26.3796 22.0983C26.0386 23.3671 26.0675 24.7069 26.463 25.9598ZM1.09011 28.8871C1.09011 27.1019 1.61949 25.3567 2.61131 23.8724C3.60312 22.388 5.01283 21.2311 6.66215 20.5479C8.31148 19.8648 10.1264 19.686 11.8773 20.0343C13.6282 20.3826 15.2365 21.2422 16.4989 22.5046C17.7612 23.7669 18.6209 25.3752 18.9691 27.1262C19.3174 28.8771 19.1387 30.692 18.4555 32.3413C17.7723 33.9906 16.6154 35.4003 15.1311 36.3921C13.6467 37.384 11.9016 37.9133 10.1163 37.9133C7.72331 37.9105 5.42911 36.9586 3.73698 35.2665C2.04484 33.5743 1.09296 31.2801 1.09011 28.8871ZM30.7103 33.3908V35.632C30.71 35.8981 30.6042 36.1531 30.416 36.3412C30.2279 36.5293 29.9729 36.6351 29.7069 36.6355H16.6118C17.9621 35.5033 18.9946 34.0393 19.608 32.3873H29.7082C29.974 32.388 30.2287 32.494 30.4165 32.682C30.6043 32.8701 30.71 33.125 30.7103 33.3908ZM19.9413 31.2979C20.2824 29.9063 20.3243 28.4582 20.0643 27.0492H26.9108C27.7067 28.6059 29.0628 29.8034 30.706 30.4006C30.6794 30.6469 30.5629 30.8746 30.3787 31.0401C30.1946 31.2057 29.9558 31.2975 29.7082 31.2979H19.9413ZM38.7103 25.4006C38.4118 26.5167 37.789 27.5192 36.9207 28.2812C36.0523 29.0433 34.9775 29.5307 33.8321 29.6818C32.6868 29.8329 31.5223 29.641 30.486 29.1302C29.4498 28.6194 28.5883 27.8127 28.0105 26.8123C27.4328 25.8118 27.1647 24.6625 27.2403 23.5096C27.3158 22.3568 27.7316 21.2523 28.435 20.3358C29.1384 19.4193 30.0978 18.7319 31.1918 18.3608C32.2859 17.9896 33.4654 17.9512 34.5813 18.2505C36.076 18.6528 37.3501 19.6314 38.1242 20.9718C38.8983 22.3123 39.1091 23.905 38.7103 25.4006Z" fill="#6E737F"/>
</svg>
