<svg width="40" height="40" viewBox="0 0 40 40" fill="none" xmlns="http://www.w3.org/2000/svg">
<g clip-path="url(#clip0_636_1187)">
<path d="M7.09689 21.8269V37.4198C7.09689 37.9331 7.30081 38.4254 7.66378 38.7884C8.02676 39.1513 8.51905 39.3552 9.03238 39.3552H30.9679C31.4812 39.3552 31.9735 39.1513 32.3365 38.7884C32.6994 38.4254 32.9033 37.9331 32.9033 37.4198V21.8269C35.3974 20.8316 37.4055 18.9036 38.5014 16.4521C39.5973 14.0006 39.6947 11.2185 38.773 8.69628C37.8513 6.17409 35.983 4.11036 33.5646 2.94308C31.1463 1.77581 28.3682 1.59688 25.8201 2.44427C24.1054 1.27244 22.077 0.645508 20.0001 0.645508C17.9233 0.645508 15.8948 1.27244 14.1801 2.44427C11.632 1.59688 8.85396 1.77581 6.4356 2.94308C4.01724 4.11036 2.14894 6.17409 1.22722 8.69628C0.305509 11.2185 0.402936 14.0006 1.49883 16.4521C2.59472 18.9036 4.6028 20.8316 7.09689 21.8269ZM31.613 37.4198C31.613 37.5909 31.5451 37.755 31.4241 37.876C31.3031 37.9969 31.139 38.0649 30.9679 38.0649H9.03238C8.86127 38.0649 8.69717 37.9969 8.57618 37.876C8.45519 37.755 8.38721 37.5909 8.38721 37.4198V33.5488H31.613V37.4198ZM1.95431 11.6714C2.10606 9.56413 2.98567 7.57518 4.44252 6.04512C5.89937 4.51506 7.84284 3.53907 9.94012 3.28427C10.2829 3.24577 10.6275 3.22639 10.9724 3.22621C12.0266 3.2265 13.0728 3.41032 14.064 3.76943C14.1635 3.80519 14.2702 3.81594 14.3749 3.80076C14.4795 3.78557 14.5788 3.7449 14.664 3.68234C16.2114 2.54804 18.0802 1.9365 19.9988 1.9365C21.9175 1.9365 23.7862 2.54804 25.3337 3.68234C25.4189 3.7449 25.5182 3.78557 25.6228 3.80076C25.7274 3.81594 25.8342 3.80519 25.9337 3.76943C27.0502 3.36823 28.2349 3.19087 29.42 3.2475C30.6051 3.30412 31.7675 3.59362 32.8407 4.09946C33.914 4.6053 34.8771 5.31757 35.675 6.19562C36.473 7.07366 37.0902 8.10028 37.4914 9.21685C37.8926 10.3334 38.07 11.5181 38.0133 12.7032C37.9567 13.8883 37.6672 15.0507 37.1614 16.1239C36.6555 17.1972 35.9433 18.1603 35.0652 18.9582C34.1872 19.7562 33.1606 20.3734 32.044 20.7746C31.9183 20.8188 31.8095 20.9009 31.7323 21.0094C31.6551 21.118 31.6135 21.2478 31.613 21.3811V32.2585H8.38721V21.3811C8.38731 21.2474 8.3459 21.117 8.2687 21.0079C8.19149 20.8988 8.08232 20.8164 7.95625 20.772C6.10442 20.1109 4.51766 18.8657 3.4351 17.2243C2.35254 15.5828 1.83283 13.6339 1.95431 11.6714Z" fill="#6E737F"/>
<path d="M18.844 27.7463C20.443 27.7233 22.0319 27.487 23.5685 27.0438C23.9182 26.9443 24.23 26.742 24.4633 26.4631L24.4698 26.4586C24.4743 26.4541 24.4756 26.4476 24.4795 26.4431C24.7876 26.0734 24.9367 25.5967 24.8943 25.1173C24.8543 24.6838 24.7614 23.8676 24.5749 22.9167C25.3803 22.7562 26.1447 22.4341 26.8221 21.9699C27.4995 21.5058 28.0758 20.9091 28.5162 20.216C30.2872 17.4418 29.5995 13.3683 29.2182 11.7347C29.1741 11.5607 29.0846 11.4015 28.9589 11.2733C28.8333 11.1451 28.6758 11.0525 28.5027 11.005C28.3296 10.9575 28.147 10.9567 27.9735 11.0027C27.8 11.0487 27.6417 11.1399 27.5149 11.267C26.7578 11.9475 25.8385 12.4223 24.8453 12.6457L24.4317 12.7605C21.7046 13.5186 20.3356 13.8993 19.3407 14.9838C19.0543 15.3106 18.8128 15.6742 18.6227 16.0651C17.9962 15.876 17.2891 15.678 16.482 15.4528L15.9911 15.316C14.7697 15.0384 13.6399 14.4522 12.7098 13.6134L12.704 13.6076C12.5648 13.4719 12.3922 13.3753 12.2037 13.3277C12.0151 13.2801 11.8174 13.2832 11.6304 13.3367C11.4448 13.3888 11.2767 13.49 11.1437 13.6295C11.0106 13.769 10.9176 13.9417 10.8743 14.1296C10.4182 16.0715 9.58397 20.9451 11.7072 24.2663C13.4291 26.9683 16.2072 27.7463 18.844 27.7463ZM20.2943 15.8515C21.0362 15.0425 22.2091 14.7167 24.7769 14.0031L25.193 13.887C26.2342 13.6263 27.2113 13.1561 28.0646 12.5051C28.4033 14.1754 28.7936 17.3805 27.4272 19.5225C27.0741 20.0726 26.6135 20.5456 26.073 20.9132C25.5325 21.2809 24.9234 21.5355 24.282 21.6618C24.0262 20.6201 23.608 19.6251 23.0427 18.7134C23.7749 18.3043 24.5363 17.9498 25.3207 17.6528C25.4786 17.593 25.6068 17.4737 25.6778 17.3205C25.7487 17.1673 25.7567 16.9923 25.7002 16.8333C25.6436 16.6742 25.5269 16.5436 25.3752 16.4696C25.2234 16.3956 25.0487 16.384 24.8885 16.4373C23.9512 16.7893 23.0448 17.2188 22.1788 17.7212C21.4927 17.1631 20.7079 16.7388 19.8653 16.4702C19.9846 16.2485 20.1285 16.041 20.2943 15.8515ZM12.053 14.7702C13.1017 15.6262 14.3287 16.2366 15.644 16.5567L16.1349 16.6941C19.2691 17.5696 20.7001 17.9689 21.624 18.9741C22.684 20.1276 23.3066 22.6696 23.5517 24.707C19.444 20.9999 16.742 20.2934 16.6214 20.2631C16.4553 20.2215 16.2795 20.2475 16.1326 20.3354C15.9858 20.4234 15.8798 20.5661 15.8382 20.7322C15.7965 20.8982 15.8225 21.074 15.9105 21.2209C15.9984 21.3678 16.1411 21.4737 16.3072 21.5154C16.3343 21.5218 18.9524 22.2347 22.9214 25.8805C20.0182 26.6438 15.1362 27.2393 12.7924 23.5715C11.0472 20.8393 11.6298 16.7263 12.053 14.7702Z" fill="#428358"/>
<path d="M18.844 27.7463C20.443 27.7233 22.0319 27.487 23.5685 27.0438C23.9182 26.9443 24.23 26.742 24.4633 26.4631L24.4698 26.4586C24.4743 26.4541 24.4756 26.4476 24.4795 26.4431C24.7876 26.0734 24.9367 25.5967 24.8943 25.1173C24.8543 24.6838 24.7614 23.8676 24.5749 22.9167C25.3803 22.7562 26.1447 22.4341 26.8221 21.9699C27.4995 21.5058 28.0758 20.9091 28.5162 20.216C30.2872 17.4418 29.5995 13.3683 29.2182 11.7347C29.1741 11.5607 29.0846 11.4015 28.9589 11.2733C28.8333 11.1451 28.6758 11.0525 28.5027 11.005C28.3296 10.9575 28.147 10.9567 27.9735 11.0027C27.8 11.0487 27.6417 11.1399 27.5149 11.267C26.7578 11.9475 25.8385 12.4223 24.8453 12.6457L24.4317 12.7605C21.7046 13.5186 20.3356 13.8993 19.3407 14.9838C19.0543 15.3106 18.8128 15.6742 18.6227 16.0651C17.9962 15.876 17.2891 15.678 16.482 15.4528L15.9911 15.316C14.7697 15.0384 13.6399 14.4522 12.7098 13.6134L12.704 13.6076C12.5648 13.4719 12.3922 13.3753 12.2037 13.3277C12.0151 13.2801 11.8174 13.2832 11.6304 13.3367C11.4448 13.3888 11.2767 13.49 11.1437 13.6295C11.0106 13.769 10.9176 13.9417 10.8743 14.1296C10.4182 16.0715 9.58397 20.9451 11.7072 24.2663C13.4291 26.9683 16.2072 27.7463 18.844 27.7463ZM20.2943 15.8515C21.0362 15.0425 22.2091 14.7167 24.7769 14.0031L25.193 13.887C26.2342 13.6263 27.2113 13.1561 28.0646 12.5051C28.4033 14.1754 28.7936 17.3805 27.4272 19.5225C27.0741 20.0726 26.6135 20.5456 26.073 20.9132C25.5325 21.2809 24.9234 21.5355 24.282 21.6618C24.0262 20.6201 23.608 19.6251 23.0427 18.7134C23.7749 18.3043 24.5363 17.9498 25.3207 17.6528C25.4786 17.593 25.6068 17.4737 25.6778 17.3205C25.7487 17.1673 25.7567 16.9923 25.7002 16.8333C25.6436 16.6742 25.5269 16.5436 25.3752 16.4696C25.2234 16.3956 25.0487 16.384 24.8885 16.4373C23.9512 16.7893 23.0448 17.2188 22.1788 17.7212C21.4927 17.1631 20.7079 16.7388 19.8653 16.4702C19.9846 16.2485 20.1285 16.041 20.2943 15.8515ZM12.053 14.7702C13.1017 15.6262 14.3287 16.2366 15.644 16.5567L16.1349 16.6941C19.2691 17.5696 20.7001 17.9689 21.624 18.9741C22.684 20.1276 23.3066 22.6696 23.5517 24.707C19.444 20.9999 16.742 20.2934 16.6214 20.2631C16.4553 20.2215 16.2795 20.2475 16.1326 20.3354C15.9858 20.4234 15.8798 20.5661 15.8382 20.7322C15.7965 20.8982 15.8225 21.074 15.9105 21.2209C15.9984 21.3678 16.1411 21.4737 16.3072 21.5154C16.3343 21.5218 18.9524 22.2347 22.9214 25.8805C20.0182 26.6438 15.1362 27.2393 12.7924 23.5715C11.0472 20.8393 11.6298 16.7263 12.053 14.7702Z" fill="#FFF743" fill-opacity="0.33"/>
</g>
<defs>
<clipPath id="clip0_636_1187">
<rect width="40" height="40" fill="white"/>
</clipPath>
</defs>
</svg>
