<svg width="40" height="40" viewBox="0 0 40 40" fill="none" xmlns="http://www.w3.org/2000/svg">
<path fill-rule="evenodd" clip-rule="evenodd" d="M15.0304 19.4094C16.0448 19.4094 16.87 18.4212 16.87 17.2062C16.87 15.9913 16.0448 15.003 15.0304 15.003C14.016 15.003 13.1908 15.9913 13.1908 17.2062C13.1908 18.4206 14.016 19.4094 15.0304 19.4094ZM15.0304 16.5477C15.3334 16.5477 15.5798 16.8428 15.5798 17.2057C15.5798 17.5686 15.3334 17.8636 15.0304 17.8636C14.7274 17.8636 14.481 17.5686 14.481 17.2057C14.481 16.8428 14.7274 16.5477 15.0304 16.5477ZM13.5408 22.6246C14.914 23.5739 16.5815 23.6192 17.9806 22.7703L20.886 24.7794C21.0436 24.8883 21.2329 24.9125 21.4059 24.8457L22.203 24.5385L22.3795 25.5189C22.4177 25.7319 22.5297 25.916 22.6878 26.0254C22.8455 26.1343 23.0343 26.1585 23.2078 26.0917L24.0048 25.7845L24.1813 26.7649C24.2195 26.9784 24.3315 27.162 24.4896 27.2714L25.1022 27.6948C25.201 27.7632 25.3126 27.7984 25.425 27.7984C25.4733 27.7984 25.5216 27.7921 25.5695 27.7789L28.2913 27.0294C28.4657 26.9816 28.6158 26.8485 28.7054 26.6629C28.795 26.4772 28.8161 26.2552 28.7634 26.0501L27.9444 22.8507C27.8965 22.664 27.7916 22.5057 27.6502 22.4079L20.529 17.4834C20.4433 15.6078 19.5769 13.9006 18.2041 12.9512C15.9776 11.4118 13.1201 12.3285 11.8343 14.9951C10.5485 17.6622 11.3143 21.0846 13.5408 22.6246ZM12.9515 15.7682C13.8811 13.8396 15.9478 13.1763 17.5586 14.2898C18.6345 15.034 19.2805 16.4215 19.244 17.9105C19.237 18.1945 19.3608 18.4601 19.5663 18.6021L26.785 23.5939L27.3265 25.7077L25.5273 26.2032L25.3824 26.1027L25.1163 24.6237C25.0781 24.4102 24.9661 24.2266 24.808 24.1172C24.6503 24.0084 24.4615 23.9842 24.2881 24.051L23.491 24.3581L23.3145 23.3777C23.2763 23.1647 23.1643 22.9807 23.0062 22.8713C22.8485 22.7624 22.6597 22.7382 22.4862 22.805L21.2834 23.2684L18.3086 21.2113C18.1031 21.0693 17.8493 21.0735 17.6473 21.2229C16.5885 22.0055 15.2623 22.0292 14.1864 21.2855C12.5756 20.1726 12.0218 17.6969 12.9515 15.7682ZM26.6832 30.1915L20.1983 32.3042C19.9884 32.3726 19.782 32.4152 19.5764 32.432C19.6581 32.3111 19.7341 32.1785 19.803 32.0355C20.4113 30.7742 20.056 29.1401 18.9946 28.3159C18.97 28.297 18.945 28.2802 18.9186 28.2654C17.3943 27.4055 15.9623 26.21 14.8113 25.2496C14.4094 24.9141 14.0296 24.5969 13.702 24.3423C12.3472 23.2894 10.8607 23.5687 9.58498 23.9805L4.89137 25.4958L4.76534 24.9125C4.55806 23.9531 3.73817 23.3751 2.93717 23.6234L1.12437 24.1851C0.323806 24.4333 -0.159255 25.4153 0.0480221 26.3746L2.48485 37.6511C2.58497 38.1145 2.83046 38.5042 3.1765 38.7482C3.41101 38.9134 3.67186 38.9981 3.93623 38.9981C4.06182 38.9981 4.1883 38.9791 4.31302 38.9402L6.12581 38.3785C6.5127 38.2586 6.83811 37.9646 7.04188 37.5501C7.24564 37.1357 7.30273 36.6523 7.20216 36.1889L6.93428 34.9503L7.85649 34.6542L14.4788 39.2332C15.2157 39.7428 16.0009 40 16.798 40C17.238 40 17.6815 39.9216 18.1229 39.7638L29.9825 35.5231C31.1278 35.1134 31.8497 33.3919 31.4971 31.9114C31.3271 31.1961 30.4761 28.956 26.6832 30.1915ZM5.92996 36.7664C5.91327 36.8001 5.87462 36.8606 5.8026 36.8827L3.9898 37.4444C3.91778 37.4665 3.85938 37.4365 3.83127 37.4165C3.80317 37.3965 3.75267 37.3502 3.73422 37.264L1.29739 25.987C1.26885 25.855 1.3378 25.7146 1.44802 25.6804L3.26038 25.1187C3.27839 25.1129 3.29551 25.1108 3.31176 25.1108C3.35963 25.1108 3.39783 25.1313 3.41935 25.1465C3.44746 25.1665 3.49796 25.2128 3.5164 25.2991L5.95279 36.576C5.97167 36.6623 5.94664 36.7322 5.92996 36.7664ZM29.6136 34.043L17.754 38.2838C16.8489 38.6073 15.9645 38.4768 15.1239 37.8957L8.27061 33.1563C8.12262 33.0537 7.94652 33.0264 7.78096 33.079L6.61107 33.4545L5.21458 26.9916L9.92092 25.4721C10.9722 25.1329 12.0727 24.9177 12.9998 25.6383C13.3094 25.8787 13.6633 26.1742 14.0735 26.5166C15.2535 27.5018 16.7189 28.7251 18.3249 29.6382C18.793 30.0263 18.9489 30.7169 18.6859 31.2629C18.4232 31.8077 18.0096 31.9718 17.4554 31.7509C16.592 31.2455 14.3361 29.6329 13.9593 29.372C13.6506 29.1585 13.2562 29.2853 13.0779 29.655C12.8997 30.0248 13.0055 30.4971 13.3142 30.7106C13.6831 30.9657 17.3047 33.3772 17.487 33.4745C18.5141 34.0246 19.5119 34.1293 20.5369 33.7953L27.0217 31.6826C28.7845 31.1082 30.0237 31.3586 30.2565 32.3358C30.4142 32.9975 30.0839 33.8747 29.6136 34.043ZM3.21295 26.7807C3.17563 27.163 2.88667 27.4365 2.56741 27.3918C2.24815 27.3471 2.01979 27.001 2.05712 26.6187C2.09445 26.2363 2.38341 25.9628 2.70266 26.0075C3.02192 26.0522 3.25028 26.3983 3.21295 26.7807ZM39.952 13.626L37.5156 2.34905C37.3083 1.38971 36.4884 0.811165 35.6874 1.05994L33.8751 1.62166C33.4882 1.74158 33.1628 2.03559 32.959 2.45004C32.7552 2.86449 32.6982 3.34784 32.7987 3.81121L33.0662 5.04983L32.1439 5.34594L25.5216 0.766985C24.3785 -0.0235239 23.1182 -0.207608 21.8771 0.236298L10.0175 4.47706C8.87224 4.88678 8.15028 6.60823 8.50292 8.08879C8.67331 8.80461 9.52437 11.0452 13.3173 9.80919L19.8022 7.69643C20.0121 7.62806 20.2185 7.58545 20.424 7.56862C20.3423 7.68959 20.2663 7.82213 20.1974 7.96519C19.5892 9.22696 19.9445 10.8606 21.0059 11.6847C21.0305 11.7037 21.0555 11.7205 21.0818 11.7352C22.6061 12.5952 24.0382 13.7907 25.1887 14.751C25.591 15.0866 25.9704 15.4038 26.298 15.6583C26.995 16.1995 27.7266 16.3889 28.4463 16.3889C29.1261 16.3889 29.7954 16.22 30.415 16.0202L35.1086 14.5049L35.2347 15.0882C35.4094 15.8971 36.0199 16.4352 36.6874 16.4352C36.8112 16.4352 36.9372 16.4167 37.0628 16.3778L38.8756 15.8161C39.6762 15.5673 40.1593 14.5854 39.952 13.626ZM30.0791 14.528C29.0278 14.8673 27.9273 15.0824 27.0002 14.3618C26.6906 14.1215 26.3367 13.8259 25.9265 13.4835C24.747 12.4984 23.2811 11.275 21.6751 10.362C21.207 9.97381 21.0515 9.28323 21.3146 8.73729C21.5772 8.1924 21.9909 8.02831 22.5451 8.24921C23.4084 8.75465 25.6643 10.3672 26.0411 10.6281C26.3498 10.8411 26.7442 10.7149 26.9225 10.3451C27.1008 9.97539 26.995 9.50308 26.6862 9.28954C26.3173 9.03446 22.6953 6.62296 22.5135 6.52566C21.4863 5.97551 20.4886 5.87084 19.4636 6.20482L12.9787 8.31758C11.216 8.89192 9.97669 8.64157 9.74395 7.66435C9.58629 7.0027 9.91697 6.1254 10.3869 5.9571L22.2465 1.71633C23.1515 1.39287 24.0364 1.52331 24.8765 2.10449L31.7303 6.84386C31.8787 6.94642 32.0548 6.97377 32.2199 6.92117L33.3894 6.54564L34.7859 13.0086L30.0791 14.528ZM38.5524 14.3198L36.7396 14.8815C36.6676 14.9041 36.6092 14.8736 36.5811 14.8536C36.553 14.8336 36.5025 14.7873 36.484 14.7011L34.0476 3.4241C34.0292 3.33785 34.0542 3.2679 34.0709 3.23423C34.0876 3.20057 34.1263 3.14009 34.1983 3.118L36.0106 2.55628C36.1209 2.52209 36.2381 2.60467 36.2667 2.73668L38.703 14.0137C38.7316 14.1452 38.6626 14.2856 38.5524 14.3198ZM37.9429 13.3815C37.9056 13.7638 37.6166 14.0373 37.2973 13.9926C36.9781 13.9479 36.7497 13.6018 36.787 13.2195C36.8244 12.8371 37.1133 12.5636 37.4326 12.6083C37.7519 12.6535 37.9802 12.9996 37.9429 13.3815Z" fill="#6E737F"/>
</svg>
