<svg width="40" height="40" viewBox="0 0 40 40" fill="none" xmlns="http://www.w3.org/2000/svg">
<path fill-rule="evenodd" clip-rule="evenodd" d="M34.4242 34.3901L33.5897 32.4547C32.4509 29.8144 30.1575 27.9223 27.4551 27.3929C26.3248 27.1714 25.1986 27.2083 24.1233 27.4587C23.0579 26.7497 21.9763 26.2357 20.8842 25.9136L19.63 25.621C18.8876 25.5038 18.1415 25.4818 17.3933 25.5429L16.1662 25.7244C13.9012 26.1986 12.1464 27.3889 11.1955 28.1726C9.59694 28.2513 8.1466 28.9989 6.88572 30.4007C6.13584 31.2334 5.52563 32.7844 5.52563 33.8583V34.6301C5.52563 34.9648 5.7967 35.2361 6.1317 35.2361H33.8678C34.072 35.2361 34.262 35.1334 34.3739 34.9633C34.4863 34.7928 34.5053 34.5774 34.4242 34.3901ZM6.73776 33.8583V34.024H32.9463L32.477 32.9347C31.4815 30.6279 29.5662 29.0415 27.2225 28.5825C24.9947 28.1454 22.7682 28.8308 21.1104 30.4604L21.0494 30.5208C20.8174 30.7608 20.4339 30.7664 20.1936 30.5353C19.9527 30.303 19.9462 29.9198 20.1776 29.6789L20.2611 29.5954C20.9701 28.8985 21.7702 28.3533 22.6256 27.9609C20.7202 26.8984 18.7783 26.5096 16.8354 26.8214C15.2715 27.0659 13.9536 27.7268 12.9861 28.3606C14.9995 28.8696 16.4457 30.2061 16.5211 30.2776C16.7638 30.5072 16.7745 30.8898 16.5448 31.1331C16.3164 31.3749 15.9328 31.3882 15.6884 31.1585C15.6683 31.1396 13.6583 29.2818 11.2862 29.3794C10.0101 29.433 8.83233 30.0494 7.78653 31.2115C7.23787 31.8211 6.73776 33.0827 6.73776 33.8583Z" fill="#6E737F"/>
<path fill-rule="evenodd" clip-rule="evenodd" d="M16.1661 25.7251L17.3933 25.5436C17.6014 22.6925 18.2481 20.0105 19.3289 17.5673C20.1332 15.7639 21.1429 14.1342 22.3308 12.7223C23.2517 11.6259 23.9406 11.0829 23.9477 11.0776C24.2111 10.8719 24.2584 10.4913 24.0531 10.2274C23.8483 9.96339 23.4695 9.91574 23.2037 10.1205C23.1806 10.1386 22.7609 10.4681 22.1379 11.121C22.0191 10.1941 22.3217 9.2573 23.0067 8.56513C25.7529 5.78991 28.9311 5.83342 30.5144 6.0814L29.3774 7.24351C28.6139 8.02772 28.1937 9.06258 28.1937 10.1569C28.1937 10.3025 28.2014 10.4552 28.2156 10.61C28.3322 11.6857 27.8776 12.7063 26.9999 13.3405C26.1287 13.9697 25.0261 14.08 24.0708 13.645C24.0247 13.6219 23.9779 13.5989 23.9448 13.5852C23.9399 13.5829 23.9355 13.5801 23.9312 13.5772C23.9269 13.5745 23.9227 13.5718 23.9181 13.5695C24.4325 12.9277 24.8058 12.6017 24.8195 12.59C25.0752 12.3752 25.1089 11.9937 24.8941 11.7375C24.6804 11.4815 24.2969 11.4469 24.0406 11.6614C23.8155 11.85 18.6795 16.2719 19.6299 25.6217L20.8842 25.9143C20.5602 23.2044 20.7832 20.9173 21.259 19.0472C21.8347 18.8137 23.4659 18.3669 25.7442 19.4392C25.9083 20.1007 26.2807 20.6981 26.804 21.1113C27.3077 21.509 27.9202 21.7369 28.4843 21.7369C28.8879 21.7369 29.2691 21.6203 29.5863 21.3998C29.9006 21.1817 30.1314 20.905 30.335 20.6609C30.4889 20.4762 30.6345 20.3019 30.7931 20.1785C31.2494 19.8243 31.7348 19.5532 32.1982 19.3952C32.3788 19.3332 32.5724 19.313 32.796 19.2897L32.7977 19.2896C32.9676 19.2718 33.1375 19.2532 33.3091 19.2197C33.6269 19.157 33.8394 18.8548 33.7909 18.5341C33.6583 17.6572 32.9232 16.836 32.2787 16.3602C31.5229 15.8015 30.5629 15.5183 29.4259 15.5183C29.2354 15.5183 29.0448 15.5262 28.8554 15.541C28.344 15.5813 27.59 15.684 26.9502 16.1101C26.2928 16.5478 25.8486 17.2792 25.7049 18.1018C23.9987 17.429 22.6059 17.4756 21.6787 17.6685C22.1317 16.3882 22.6851 15.353 23.2018 14.561C23.2226 14.5722 23.2432 14.5835 23.2638 14.5948C23.3228 14.6271 23.3818 14.6594 23.4458 14.6897C24.0249 14.9659 24.6204 15.119 25.28 15.119C26.1346 15.119 26.9798 14.85 27.7095 14.323C28.9447 13.4305 29.5845 11.9937 29.4218 10.4887C29.4111 10.3801 29.4058 10.2658 29.4058 10.1569C29.4058 9.38011 29.7041 8.64562 30.2451 8.08987L32.136 6.15657C32.2816 6.00772 32.3408 5.79465 32.2923 5.59194C32.2438 5.38952 32.0952 5.22587 31.8975 5.159C31.6768 5.08324 26.44 3.37218 22.1449 7.71226C20.9511 8.91869 20.5989 10.6537 21.18 12.2286C20.3109 13.3006 19.5318 14.4778 18.8625 15.7561C18.4139 14.7991 17.7522 13.9145 16.9011 13.1396L16.92 13.076C17.3432 11.612 16.8875 10.0143 15.7582 9.00606C14.494 7.8765 12.9421 7.30388 11.1459 7.30388C9.4792 7.30388 8.21677 7.81495 8.16409 7.83685C7.95635 7.92207 7.81312 8.11502 7.79123 8.33845C7.76933 8.56187 7.8729 8.77879 8.05993 8.90278L9.41054 9.79678C10.1865 10.3102 10.6523 11.2021 10.6262 12.129C10.5996 13.0135 10.8937 13.7983 11.4767 14.3991C12.0881 15.0294 12.9664 15.391 13.8856 15.391C14.8891 15.391 15.746 14.9695 16.3188 14.2517C17.231 15.1448 17.8394 16.1612 18.1361 17.2817C17.0175 19.8766 16.357 22.7138 16.1661 25.7251ZM28.9501 16.7496C28.3523 16.7964 27.9303 16.9138 27.6225 17.1189C27.2133 17.3914 26.9492 17.8967 26.8887 18.449C27.4403 18.363 28.3885 18.0767 28.6944 17.8271C28.9548 17.6152 29.336 17.6551 29.5473 17.9138C29.7586 18.173 29.7195 18.5548 29.4603 18.7664C29.0593 19.0934 28.0071 19.4983 27.1156 19.6243C27.2301 19.8301 27.3741 20.0168 27.5557 20.1602C27.8445 20.3883 28.1919 20.5248 28.4843 20.5248C28.6441 20.5248 28.7784 20.4854 28.895 20.4043C29.0729 20.2809 29.231 20.0918 29.3987 19.8914L29.4046 19.8844C29.584 19.6692 29.7876 19.4254 30.0492 19.2215C30.6102 18.7859 31.2175 18.4491 31.8058 18.2482C31.9863 18.1863 32.1615 18.1502 32.3278 18.1251C32.1236 17.828 31.8336 17.5383 31.5584 17.335C31.0157 16.9337 30.2977 16.7304 29.4259 16.7304C29.2667 16.7304 29.1081 16.7372 28.9501 16.7496ZM13.7559 11.1462C13.8031 11.1635 14.7364 11.5204 15.8417 12.2926C15.9449 11.4068 15.6209 10.5082 14.9509 9.90982C13.9158 8.98505 12.6356 8.516 11.1459 8.516C10.6665 8.516 10.2243 8.56601 9.84792 8.6326L10.0793 8.78589C11.2015 9.52867 11.8756 10.821 11.8383 12.1583C11.8218 12.7146 11.9975 13.1949 12.3467 13.5548C12.7255 13.9457 13.3008 14.1789 13.8856 14.1789C14.5217 14.1789 15.05 13.9186 15.3985 13.4654C14.3158 12.656 13.3539 12.2899 13.3345 12.2826C13.0209 12.1666 12.8605 11.8177 12.9771 11.504C13.0937 11.19 13.4399 11.0299 13.7559 11.1462Z" fill="#428358"/>
<path fill-rule="evenodd" clip-rule="evenodd" d="M16.1661 25.7251L17.3933 25.5436C17.6014 22.6925 18.2481 20.0105 19.3289 17.5673C20.1332 15.7639 21.1429 14.1342 22.3308 12.7223C23.2517 11.6259 23.9406 11.0829 23.9477 11.0776C24.2111 10.8719 24.2584 10.4913 24.0531 10.2274C23.8483 9.96339 23.4695 9.91574 23.2037 10.1205C23.1806 10.1386 22.7609 10.4681 22.1379 11.121C22.0191 10.1941 22.3217 9.2573 23.0067 8.56513C25.7529 5.78991 28.9311 5.83342 30.5144 6.0814L29.3774 7.24351C28.6139 8.02772 28.1937 9.06258 28.1937 10.1569C28.1937 10.3025 28.2014 10.4552 28.2156 10.61C28.3322 11.6857 27.8776 12.7063 26.9999 13.3405C26.1287 13.9697 25.0261 14.08 24.0708 13.645C24.0247 13.6219 23.9779 13.5989 23.9448 13.5852C23.9399 13.5829 23.9355 13.5801 23.9312 13.5772C23.9269 13.5745 23.9227 13.5718 23.9181 13.5695C24.4325 12.9277 24.8058 12.6017 24.8195 12.59C25.0752 12.3752 25.1089 11.9937 24.8941 11.7375C24.6804 11.4815 24.2969 11.4469 24.0406 11.6614C23.8155 11.85 18.6795 16.2719 19.6299 25.6217L20.8842 25.9143C20.5602 23.2044 20.7832 20.9173 21.259 19.0472C21.8347 18.8137 23.4659 18.3669 25.7442 19.4392C25.9083 20.1007 26.2807 20.6981 26.804 21.1113C27.3077 21.509 27.9202 21.7369 28.4843 21.7369C28.8879 21.7369 29.2691 21.6203 29.5863 21.3998C29.9006 21.1817 30.1314 20.905 30.335 20.6609C30.4889 20.4762 30.6345 20.3019 30.7931 20.1785C31.2494 19.8243 31.7348 19.5532 32.1982 19.3952C32.3788 19.3332 32.5724 19.313 32.796 19.2897L32.7977 19.2896C32.9676 19.2718 33.1375 19.2532 33.3091 19.2197C33.6269 19.157 33.8394 18.8548 33.7909 18.5341C33.6583 17.6572 32.9232 16.836 32.2787 16.3602C31.5229 15.8015 30.5629 15.5183 29.4259 15.5183C29.2354 15.5183 29.0448 15.5262 28.8554 15.541C28.344 15.5813 27.59 15.684 26.9502 16.1101C26.2928 16.5478 25.8486 17.2792 25.7049 18.1018C23.9987 17.429 22.6059 17.4756 21.6787 17.6685C22.1317 16.3882 22.6851 15.353 23.2018 14.561C23.2226 14.5722 23.2432 14.5835 23.2638 14.5948C23.3228 14.6271 23.3818 14.6594 23.4458 14.6897C24.0249 14.9659 24.6204 15.119 25.28 15.119C26.1346 15.119 26.9798 14.85 27.7095 14.323C28.9447 13.4305 29.5845 11.9937 29.4218 10.4887C29.4111 10.3801 29.4058 10.2658 29.4058 10.1569C29.4058 9.38011 29.7041 8.64562 30.2451 8.08987L32.136 6.15657C32.2816 6.00772 32.3408 5.79465 32.2923 5.59194C32.2438 5.38952 32.0952 5.22587 31.8975 5.159C31.6768 5.08324 26.44 3.37218 22.1449 7.71226C20.9511 8.91869 20.5989 10.6537 21.18 12.2286C20.3109 13.3006 19.5318 14.4778 18.8625 15.7561C18.4139 14.7991 17.7522 13.9145 16.9011 13.1396L16.92 13.076C17.3432 11.612 16.8875 10.0143 15.7582 9.00606C14.494 7.8765 12.9421 7.30388 11.1459 7.30388C9.4792 7.30388 8.21677 7.81495 8.16409 7.83685C7.95635 7.92207 7.81312 8.11502 7.79123 8.33845C7.76933 8.56187 7.8729 8.77879 8.05993 8.90278L9.41054 9.79678C10.1865 10.3102 10.6523 11.2021 10.6262 12.129C10.5996 13.0135 10.8937 13.7983 11.4767 14.3991C12.0881 15.0294 12.9664 15.391 13.8856 15.391C14.8891 15.391 15.746 14.9695 16.3188 14.2517C17.231 15.1448 17.8394 16.1612 18.1361 17.2817C17.0175 19.8766 16.357 22.7138 16.1661 25.7251ZM28.9501 16.7496C28.3523 16.7964 27.9303 16.9138 27.6225 17.1189C27.2133 17.3914 26.9492 17.8967 26.8887 18.449C27.4403 18.363 28.3885 18.0767 28.6944 17.8271C28.9548 17.6152 29.336 17.6551 29.5473 17.9138C29.7586 18.173 29.7195 18.5548 29.4603 18.7664C29.0593 19.0934 28.0071 19.4983 27.1156 19.6243C27.2301 19.8301 27.3741 20.0168 27.5557 20.1602C27.8445 20.3883 28.1919 20.5248 28.4843 20.5248C28.6441 20.5248 28.7784 20.4854 28.895 20.4043C29.0729 20.2809 29.231 20.0918 29.3987 19.8914L29.4046 19.8844C29.584 19.6692 29.7876 19.4254 30.0492 19.2215C30.6102 18.7859 31.2175 18.4491 31.8058 18.2482C31.9863 18.1863 32.1615 18.1502 32.3278 18.1251C32.1236 17.828 31.8336 17.5383 31.5584 17.335C31.0157 16.9337 30.2977 16.7304 29.4259 16.7304C29.2667 16.7304 29.1081 16.7372 28.9501 16.7496ZM13.7559 11.1462C13.8031 11.1635 14.7364 11.5204 15.8417 12.2926C15.9449 11.4068 15.6209 10.5082 14.9509 9.90982C13.9158 8.98505 12.6356 8.516 11.1459 8.516C10.6665 8.516 10.2243 8.56601 9.84792 8.6326L10.0793 8.78589C11.2015 9.52867 11.8756 10.821 11.8383 12.1583C11.8218 12.7146 11.9975 13.1949 12.3467 13.5548C12.7255 13.9457 13.3008 14.1789 13.8856 14.1789C14.5217 14.1789 15.05 13.9186 15.3985 13.4654C14.3158 12.656 13.3539 12.2899 13.3345 12.2826C13.0209 12.1666 12.8605 11.8177 12.9771 11.504C13.0937 11.19 13.4399 11.0299 13.7559 11.1462Z" fill="#FFF743" fill-opacity="0.33"/>
</svg>
