<svg width="40" height="40" viewBox="0 0 40 40" fill="none" xmlns="http://www.w3.org/2000/svg">
<path d="M39.9843 23.4243L36.934 15.9117C36.8632 15.7367 36.6116 15.6166 36.3286 15.6166H27.5157V10.6799C27.5157 10.4598 27.2406 10.2848 26.8947 10.2848H23.4119L23.7421 9.33946C24.489 9.22942 25.2123 8.97934 25.8176 8.59921C25.8255 8.5942 25.8255 8.5942 25.8333 8.5942L27.5157 7.52384C27.6651 7.4288 27.838 7.34377 28.0267 7.26875C28.3726 7.1287 28.6871 7.05868 28.9387 7.01866C30.9984 6.56351 32.4843 5.46313 32.9009 4.05764L34.4182 3.09231C34.6619 2.93726 34.6619 2.68717 34.4182 2.53212C34.1745 2.37707 33.7814 2.37707 33.5377 2.53212L32.0597 3.47244C31.8632 3.53246 31.7217 3.65251 31.7217 3.80256C31.4701 4.94795 30.2437 5.89328 28.5692 6.2634C28.2783 6.31342 27.8302 6.40845 27.3506 6.60352C27.0833 6.70856 26.8396 6.8336 26.6274 6.96865L24.9528 8.03401C24.9528 8.03401 24.945 8.03901 24.9371 8.03901C24.1352 8.54919 23.011 8.74426 22.1226 8.48417C23.4591 7.72391 24.5204 7.03367 25.283 6.42846C25.4953 6.2584 25.456 6.00832 25.1887 5.87327C24.9214 5.73822 24.5283 5.76323 24.316 5.93329C23.5928 6.50349 22.5786 7.16371 21.2893 7.89396C20.9513 8.08403 20.794 8.36913 20.8805 8.65423C20.8962 8.70924 20.9277 8.75426 20.9591 8.80428L19.9057 11.5752C19.9057 11.5802 19.9057 11.5802 19.9057 11.5852C19.9057 11.5902 19.8978 11.5902 19.8978 11.5952C19.8585 11.7303 19.772 11.8553 19.6541 11.9704C19.6541 11.9754 19.3396 12.2705 18.7972 12.3655C18.6399 12.3955 18.5456 12.3805 18.5142 12.3655C18.5063 12.3605 18.4591 12.3105 18.4827 12.1254C18.5377 11.6353 18.6242 11.1751 18.7186 10.7549C19.3082 8.26409 20.511 6.88362 20.5189 6.86861C21.5959 5.6582 22.9874 4.55782 24.5912 3.6325L28.8915 1.76186C28.9072 1.75185 28.923 1.74185 28.9387 1.73185C28.9544 1.72684 28.9701 1.72184 28.9858 1.71184L30.6132 0.676482C30.8569 0.521429 30.8569 0.271343 30.6132 0.11629C30.3695 -0.0387633 29.9764 -0.0387633 29.7327 0.11629L28.1447 1.12664L23.8365 3.00728C22.0676 4.02263 20.5896 5.19304 19.4497 6.47347C19.4025 6.52849 18.2547 7.86395 17.5943 10.2898H13.1289C12.783 10.2898 12.5079 10.4648 12.5079 10.6849V15.6216H3.67138C3.38836 15.6216 3.13679 15.7417 3.06604 15.9167L0.0157236 23.4293C0.00786199 23.4443 0.0157236 23.4593 0.0157236 23.4693C0.00786199 23.4893 0 23.5043 0 23.5293V26.8655C0 27.0856 0.275158 27.2606 0.62107 27.2606H3.04245V39.6049C3.04245 39.8249 3.31761 40 3.66352 40H36.3365C36.6824 40 36.9575 39.8249 36.9575 39.6049V27.2606H39.3789C39.7248 27.2606 40 27.0856 40 26.8655V23.5293C40 23.5093 39.9843 23.4943 39.9843 23.4743C39.9843 23.4543 39.9921 23.4393 39.9843 23.4243ZM22.044 9.32446C22.1777 9.34446 22.3113 9.36447 22.445 9.37447L22.1226 10.2798H21.6745L22.044 9.32446ZM13.75 11.0701H17.4057C17.3428 11.3802 17.2877 11.7053 17.2484 12.0454C17.2327 12.1954 17.1777 12.6456 17.6887 12.9407C17.9481 13.0857 18.2783 13.1608 18.6321 13.1608C18.7972 13.1608 18.9623 13.1458 19.1274 13.1158C20.0865 12.9507 20.6053 12.4805 20.6918 12.3955C20.8962 12.2054 21.0299 11.9954 21.1085 11.7653C21.1085 11.7603 21.1164 11.7553 21.1164 11.7553L21.3758 11.0751H26.2657V19.3779H13.75V11.0701ZM4.15094 16.4069H12.5V19.3729H9.94497C9.59906 19.3729 9.3239 19.548 9.3239 19.768C9.3239 19.9881 9.59906 20.1632 9.94497 20.1632H30.055C30.4009 20.1632 30.6761 19.9881 30.6761 19.768C30.6761 19.548 30.4009 19.3729 30.055 19.3729H27.5079V16.4069H35.8412L38.5692 23.1292H1.42296L4.15094 16.4069ZM35.7154 39.2097H4.28459V27.2606H35.7154V39.2097ZM38.7579 26.4653H36.3758C36.3601 26.4653 36.3522 26.4603 36.3365 26.4603C36.3208 26.4603 36.3129 26.4653 36.2972 26.4653H3.69497C3.67925 26.4653 3.67138 26.4603 3.65566 26.4603C3.63994 26.4603 3.63208 26.4653 3.61635 26.4653H1.22642V23.9195H38.75V26.4653H38.7579Z" fill="#6E737F"/>
</svg>
