<svg width="512" height="610" viewBox="0 0 512 610" fill="none" xmlns="http://www.w3.org/2000/svg">
<mask id="mask0_1889_916" style="mask-type:alpha" maskUnits="userSpaceOnUse" x="0" y="0" width="512" height="611">
<path d="M256 497.005C256 484.411 249.734 473.942 239.922 465.099C249.719 456.161 256 445.599 256 433.005C256 420.411 249.734 409.942 239.922 401.099C249.719 392.161 256 381.599 256 369.005C256 285.005 0 285.005 0 369.005C0 381.599 6.281 392.161 16.078 401.099C6.266 409.943 0 420.412 0 433.005C0 445.598 6.281 456.161 16.078 465.099C6.266 473.943 0 484.412 0 497.005C0 539.036 64.391 561.005 128 561.005C191.609 561.005 256 539.037 256 497.005ZM128 529.005C68.453 529.005 32 508.317 32 497.005C32 493.005 36.828 487.786 45.484 482.724C68.843 492.068 98.375 497.005 128 497.005C157.625 497.005 187.156 492.067 210.516 482.724C219.172 487.787 224 493.005 224 497.005C224 508.318 187.547 529.005 128 529.005ZM128 465.005C68.453 465.005 32 444.317 32 433.005C32 429.005 36.828 423.786 45.484 418.724C68.843 428.068 98.375 433.005 128 433.005C157.625 433.005 187.156 428.067 210.516 418.724C219.172 423.787 224 429.005 224 433.005C224 444.318 187.547 465.005 128 465.005ZM128 401.005C68.453 401.005 32 380.317 32 369.005C32 357.755 68.453 337.005 128 337.005C187.547 337.005 224 357.755 224 369.005C224 380.318 187.547 401.005 128 401.005ZM368 169.005C368 173.443 364.406 177.005 360 177.005H216C211.578 177.005 208 173.442 208 169.005C208 164.568 211.578 161.005 216 161.005H360C364.406 161.005 368 164.568 368 169.005ZM368 193.005C368 197.443 364.406 201.005 360 201.005H216C211.578 201.005 208 197.442 208 193.005C208 188.568 211.578 185.005 216 185.005H360C364.406 185.005 368 188.568 368 193.005ZM204.281 97.0046C195.453 81.6926 200.703 62.1296 216 53.3176C231.313 44.4426 250.875 49.6926 259.719 65.0056L260.25 65.9436C265.688 56.0046 275.875 49.0046 288 49.0046C300.125 49.0046 310.313 56.0046 315.75 65.9426L316.281 65.0046C325.125 49.6926 344.688 44.4426 360 53.3176C375.313 62.1306 380.563 81.6926 371.719 97.0056L352 153.006H224L204.281 97.0046ZM482.188 500.63C489.25 476.505 501.906 408.724 450 337.005C416 290.005 411 321.005 352 209.005H224C197.609 259.13 182.047 280.536 169.828 293.193C225.266 301.131 272 325.193 272 369.006C272 380.475 268.437 391.194 261.375 401.037C268.438 410.85 272 421.537 272 433.006C272 444.475 268.437 455.194 261.375 465.037C268.438 474.85 272 485.537 272 497.006C272 527.194 249.141 548.069 217.328 561.006H509.062C510.843 555.975 512 550.631 512 545.006C512 524.943 499.656 507.787 482.188 500.63ZM451.469 491.63L443.375 519.318C443.375 519.318 440 433.005 386 370.005C334.312 309.724 332.875 241.005 332.875 241.005C364.875 299.349 381.5 315.599 400.844 331.38C408.469 337.599 414.469 342.505 424.063 355.755C467.25 415.412 457.625 470.662 451.469 491.63Z" fill="#2B5743"/>
</mask>
<g mask="url(#mask0_1889_916)">
<rect x="-384" y="-352" width="1664" height="1712" fill="#428358"/>
<rect x="-384" y="-352" width="1664" height="1712" fill="#FFF743" fill-opacity="0.33"/>
</g>
</svg>
