<svg xmlns="http://www.w3.org/2000/svg" xmlns:xlink="http://www.w3.org/1999/xlink" width="500" zoomAndPan="magnify" viewBox="0 0 375 374.999991" height="500" preserveAspectRatio="xMidYMid meet" version="1.0"><defs><clipPath id="e49be780c2"><path d="M 280 262 L 320 262 L 320 321.472656 L 280 321.472656 Z M 280 262 " clip-rule="nonzero"/></clipPath><clipPath id="bc7ed7e627"><path d="M 334 192 L 374 192 L 374 321.472656 L 334 321.472656 Z M 334 192 " clip-rule="nonzero"/></clipPath><clipPath id="5aa2d7c73f"><path d="M 221 227 L 261 227 L 261 321.472656 L 221 321.472656 Z M 221 227 " clip-rule="nonzero"/></clipPath><clipPath id="aa602d9232"><path d="M 167 269 L 207 269 L 207 321.472656 L 167 321.472656 Z M 167 269 " clip-rule="nonzero"/></clipPath><clipPath id="0a42498ca2"><path d="M 173 143.722656 L 368 143.722656 L 368 224 L 173 224 Z M 173 143.722656 " clip-rule="nonzero"/></clipPath><clipPath id="bfe6b8c9f6"><path d="M 261 54 L 335 54 L 335 129 L 261 129 Z M 261 54 " clip-rule="nonzero"/></clipPath><clipPath id="89eec9efa6"><path d="M 163.007812 -9.847656 L 351.375 60.289062 L 281.238281 248.652344 L 92.871094 178.515625 Z M 163.007812 -9.847656 " clip-rule="nonzero"/></clipPath><clipPath id="97f8dc2d34"><path d="M 163.007812 -9.847656 L 351.375 60.289062 L 281.238281 248.652344 L 92.871094 178.515625 Z M 163.007812 -9.847656 " clip-rule="nonzero"/></clipPath><clipPath id="d59eca07e7"><path d="M 163.007812 -9.847656 L 351.375 60.289062 L 281.238281 248.652344 L 92.871094 178.515625 Z M 163.007812 -9.847656 " clip-rule="nonzero"/></clipPath><clipPath id="e0b40c9216"><path d="M 92 74 L 313 74 L 313 185 L 92 185 Z M 92 74 " clip-rule="nonzero"/></clipPath><clipPath id="92d46f0e24"><path d="M 163.007812 -9.847656 L 351.375 60.289062 L 281.238281 248.652344 L 92.871094 178.515625 Z M 163.007812 -9.847656 " clip-rule="nonzero"/></clipPath><clipPath id="6af6d5fbe1"><path d="M 163.007812 -9.847656 L 351.375 60.289062 L 281.238281 248.652344 L 92.871094 178.515625 Z M 163.007812 -9.847656 " clip-rule="nonzero"/></clipPath><clipPath id="3d7b032fff"><path d="M 163.007812 -9.847656 L 351.375 60.289062 L 281.238281 248.652344 L 92.871094 178.515625 Z M 163.007812 -9.847656 " clip-rule="nonzero"/></clipPath><clipPath id="a4e9d8d544"><path d="M 3 109.699219 L 99 109.699219 L 99 260 L 3 260 Z M 3 109.699219 " clip-rule="nonzero"/></clipPath><clipPath id="bcaefe9e7d"><path d="M 35.082031 170 L 53.996094 170 L 53.996094 375 L 35.082031 375 Z M 35.082031 170 " clip-rule="nonzero"/></clipPath><clipPath id="18a6f3994a"><path d="M 228 138.089844 L 249.621094 138.089844 L 249.621094 163 L 228 163 Z M 228 138.089844 " clip-rule="nonzero"/></clipPath></defs><g clip-path="url(#e49be780c2)"><path fill="#000000" d="M 283.042969 262.171875 L 317.128906 262.171875 C 317.472656 262.171875 317.808594 262.234375 318.125 262.367188 C 318.445312 262.5 318.726562 262.6875 318.972656 262.933594 C 319.214844 263.175781 319.402344 263.457031 319.535156 263.777344 C 319.667969 264.097656 319.734375 264.429688 319.734375 264.773438 L 319.734375 318.875 C 319.734375 319.222656 319.667969 319.554688 319.535156 319.871094 C 319.402344 320.191406 319.214844 320.472656 318.972656 320.71875 C 318.726562 320.960938 318.445312 321.148438 318.125 321.28125 C 317.808594 321.414062 317.472656 321.480469 317.128906 321.480469 L 283.042969 321.480469 C 282.699219 321.480469 282.367188 321.414062 282.046875 321.28125 C 281.726562 321.148438 281.445312 320.960938 281.203125 320.71875 C 280.957031 320.472656 280.769531 320.191406 280.636719 319.871094 C 280.503906 319.554688 280.4375 319.222656 280.4375 318.875 L 280.4375 264.773438 C 280.4375 264.429688 280.503906 264.097656 280.636719 263.777344 C 280.769531 263.457031 280.957031 263.175781 281.203125 262.933594 C 281.445312 262.6875 281.726562 262.5 282.046875 262.367188 C 282.367188 262.234375 282.699219 262.171875 283.042969 262.171875 Z M 283.042969 262.171875 " fill-opacity="1" fill-rule="nonzero"/></g><g clip-path="url(#bc7ed7e627)"><path fill="#000000" d="M 337.214844 192.738281 L 371.300781 192.738281 C 371.644531 192.738281 371.976562 192.800781 372.296875 192.933594 C 372.617188 193.066406 372.898438 193.253906 373.140625 193.5 C 373.386719 193.742188 373.574219 194.023438 373.707031 194.34375 C 373.839844 194.664062 373.90625 194.996094 373.90625 195.339844 L 373.90625 318.875 C 373.90625 319.222656 373.839844 319.554688 373.707031 319.871094 C 373.574219 320.191406 373.386719 320.472656 373.140625 320.71875 C 372.898438 320.960938 372.617188 321.148438 372.296875 321.28125 C 371.976562 321.414062 371.644531 321.480469 371.300781 321.480469 L 337.214844 321.480469 C 336.871094 321.480469 336.535156 321.414062 336.21875 321.28125 C 335.898438 321.148438 335.617188 320.960938 335.371094 320.71875 C 335.128906 320.472656 334.941406 320.191406 334.808594 319.871094 C 334.675781 319.554688 334.609375 319.222656 334.609375 318.875 L 334.609375 195.339844 C 334.609375 194.996094 334.675781 194.664062 334.808594 194.34375 C 334.941406 194.023438 335.128906 193.742188 335.371094 193.5 C 335.617188 193.253906 335.898438 193.066406 336.21875 192.933594 C 336.535156 192.800781 336.871094 192.738281 337.214844 192.738281 Z M 337.214844 192.738281 " fill-opacity="1" fill-rule="nonzero"/></g><g clip-path="url(#5aa2d7c73f)"><path fill="#000000" d="M 223.988281 227.453125 L 258.074219 227.453125 C 258.417969 227.453125 258.753906 227.519531 259.070312 227.652344 C 259.390625 227.785156 259.671875 227.972656 259.917969 228.214844 C 260.160156 228.460938 260.347656 228.742188 260.480469 229.058594 C 260.613281 229.378906 260.679688 229.710938 260.679688 230.058594 L 260.679688 318.875 C 260.679688 319.222656 260.613281 319.554688 260.480469 319.871094 C 260.347656 320.191406 260.160156 320.472656 259.917969 320.71875 C 259.671875 320.960938 259.390625 321.148438 259.070312 321.28125 C 258.753906 321.414062 258.417969 321.480469 258.074219 321.480469 L 223.988281 321.480469 C 223.644531 321.480469 223.3125 321.414062 222.992188 321.28125 C 222.671875 321.148438 222.390625 320.960938 222.148438 320.71875 C 221.902344 320.472656 221.714844 320.191406 221.582031 319.871094 C 221.449219 319.554688 221.382812 319.222656 221.382812 318.875 L 221.382812 230.058594 C 221.382812 229.710938 221.449219 229.378906 221.582031 229.058594 C 221.714844 228.742188 221.902344 228.460938 222.148438 228.214844 C 222.390625 227.972656 222.671875 227.785156 222.992188 227.652344 C 223.3125 227.519531 223.644531 227.453125 223.988281 227.453125 Z M 223.988281 227.453125 " fill-opacity="1" fill-rule="nonzero"/></g><g clip-path="url(#aa602d9232)"><path fill="#000000" d="M 169.816406 269.113281 L 203.902344 269.113281 C 204.25 269.113281 204.582031 269.179688 204.902344 269.3125 C 205.21875 269.445312 205.5 269.632812 205.746094 269.875 C 205.988281 270.121094 206.179688 270.402344 206.308594 270.71875 C 206.441406 271.039062 206.507812 271.371094 206.507812 271.71875 L 206.507812 318.875 C 206.507812 319.222656 206.441406 319.554688 206.308594 319.871094 C 206.179688 320.191406 205.988281 320.472656 205.746094 320.71875 C 205.5 320.960938 205.21875 321.148438 204.902344 321.28125 C 204.582031 321.414062 204.25 321.480469 203.902344 321.480469 L 169.816406 321.480469 C 169.472656 321.480469 169.140625 321.414062 168.820312 321.28125 C 168.503906 321.148438 168.21875 320.960938 167.976562 320.71875 C 167.730469 320.472656 167.542969 320.191406 167.410156 319.871094 C 167.277344 319.554688 167.214844 319.222656 167.214844 318.875 L 167.214844 271.71875 C 167.214844 271.371094 167.277344 271.039062 167.410156 270.71875 C 167.542969 270.402344 167.730469 270.121094 167.976562 269.875 C 168.21875 269.632812 168.503906 269.445312 168.820312 269.3125 C 169.140625 269.179688 169.472656 269.113281 169.816406 269.113281 Z M 169.816406 269.113281 " fill-opacity="1" fill-rule="nonzero"/></g><g clip-path="url(#0a42498ca2)"><path fill="#000000" d="M 186.859375 223.203125 C 194.042969 223.203125 199.886719 217.363281 199.886719 210.183594 C 199.886719 208.503906 199.539062 206.902344 198.957031 205.429688 L 230.765625 188.804688 C 233.148438 191.878906 236.84375 193.898438 241.027344 193.898438 C 245.296875 193.898438 249.0625 191.804688 251.4375 188.621094 L 287.34375 203.050781 C 287.160156 203.921875 287.054688 204.820312 287.054688 205.75 C 287.054688 212.925781 292.898438 218.765625 300.082031 218.765625 C 307.265625 218.765625 313.109375 212.925781 313.109375 205.75 C 313.109375 205.0625 313.007812 204.40625 312.910156 203.75 L 346.65625 167.261719 C 348.800781 168.808594 351.414062 169.75 354.253906 169.75 C 361.4375 169.75 367.28125 163.910156 367.28125 156.730469 C 367.28125 149.550781 361.4375 143.710938 354.253906 143.710938 C 347.070312 143.710938 341.226562 149.550781 341.226562 156.730469 C 341.226562 159.179688 341.945312 161.445312 343.128906 163.402344 L 310.789062 198.363281 C 308.4375 194.96875 304.519531 192.730469 300.082031 192.730469 C 295.683594 192.730469 291.800781 194.933594 289.441406 198.28125 L 253.664062 183.902344 C 253.894531 182.925781 254.050781 181.921875 254.050781 180.878906 C 254.050781 173.699219 248.207031 167.859375 241.023438 167.859375 C 233.839844 167.859375 227.996094 173.699219 227.996094 180.878906 C 227.996094 182.003906 228.1875 183.082031 228.460938 184.125 L 196.109375 201.035156 C 193.746094 198.644531 190.472656 197.164062 186.855469 197.164062 C 179.671875 197.164062 173.828125 203.003906 173.828125 210.179688 C 173.828125 217.359375 179.671875 223.199219 186.855469 223.199219 Z M 186.859375 223.203125 " fill-opacity="1" fill-rule="nonzero"/></g><g clip-path="url(#bfe6b8c9f6)"><g clip-path="url(#89eec9efa6)"><g clip-path="url(#97f8dc2d34)"><g clip-path="url(#d59eca07e7)"><path fill="#7ac539" d="M 325.992188 128.089844 L 261.535156 67.554688 L 334.898438 54.175781 Z M 325.992188 128.089844 " fill-opacity="1" fill-rule="nonzero"/></g></g></g></g><g clip-path="url(#e0b40c9216)"><g clip-path="url(#92d46f0e24)"><g clip-path="url(#6af6d5fbe1)"><g clip-path="url(#3d7b032fff)"><path fill="#7ac539" d="M 92.910156 178.578125 C 92.910156 178.578125 201.476562 183.25 279.59375 74.296875 L 311.957031 84.835938 L 312.328125 110.746094 C 312.328125 110.746094 220.171875 208.742188 92.910156 178.578125 " fill-opacity="1" fill-rule="nonzero"/></g></g></g></g><g clip-path="url(#a4e9d8d544)"><path fill="#f2f2f2" d="M 98.320312 109.699219 L 77.539062 216.6875 L 3.4375 259.253906 L 24.214844 152.269531 L 98.320312 109.699219 " fill-opacity="1" fill-rule="evenodd"/></g><path fill="#4e4f51" d="M 99.371094 111.960938 L 78.589844 218.949219 L 4.488281 261.511719 L 25.265625 154.527344 L 99.371094 111.960938 " fill-opacity="1" fill-rule="evenodd"/><path fill="#f2f2f2" d="M 4.609375 349.933594 C 4.390625 349.933594 4.171875 349.917969 3.945312 349.882812 C 1.652344 349.515625 0.0898438 347.363281 0.457031 345.066406 L 31.300781 151.105469 C 31.664062 148.808594 33.820312 147.246094 36.109375 147.613281 C 38.402344 147.976562 39.964844 150.132812 39.597656 152.429688 L 8.753906 346.390625 C 8.425781 348.460938 6.640625 349.933594 4.609375 349.933594 " fill-opacity="1" fill-rule="nonzero"/><path fill="#38322e" d="M 6.476562 351.113281 C 6.261719 351.113281 6.039062 351.097656 5.8125 351.0625 C 3.523438 350.695312 1.957031 348.539062 2.324219 346.246094 L 33.164062 152.28125 C 33.527344 149.988281 35.6875 148.425781 37.976562 148.789062 C 40.269531 149.15625 41.832031 151.3125 41.46875 153.601562 L 10.625 347.566406 C 10.292969 349.636719 8.507812 351.113281 6.476562 351.113281 " fill-opacity="1" fill-rule="nonzero"/><path fill="#f2f2f2" d="M 55.574219 320.703125 C 55.359375 320.703125 55.136719 320.6875 54.910156 320.648438 C 52.621094 320.289062 51.054688 318.132812 51.421875 315.835938 L 82.265625 121.875 C 82.632812 119.582031 84.785156 118.011719 87.078125 118.382812 C 89.367188 118.75 90.929688 120.902344 90.566406 123.195312 L 59.722656 317.160156 C 59.394531 319.230469 57.609375 320.703125 55.574219 320.703125 " fill-opacity="1" fill-rule="nonzero"/><path fill="#38322e" d="M 57.207031 321.863281 C 56.984375 321.863281 56.761719 321.84375 56.539062 321.808594 C 54.246094 321.441406 52.6875 319.285156 53.046875 316.996094 L 83.890625 123.03125 C 84.257812 120.734375 86.414062 119.171875 88.707031 119.535156 C 90.996094 119.902344 92.5625 122.058594 92.195312 124.351562 L 61.351562 318.316406 C 61.023438 320.386719 59.238281 321.863281 57.207031 321.863281 " fill-opacity="1" fill-rule="nonzero"/><path fill="#f2f2f2" d="M 46.992188 374.195312 C 44.773438 374.195312 42.917969 372.449219 42.800781 370.199219 L 32.679688 174.066406 C 32.558594 171.75 34.339844 169.769531 36.660156 169.652344 C 38.96875 169.515625 40.953125 171.3125 41.074219 173.636719 L 51.195312 369.769531 C 51.316406 372.089844 49.535156 374.066406 47.214844 374.183594 C 47.140625 374.1875 47.066406 374.195312 46.992188 374.195312 " fill-opacity="1" fill-rule="nonzero"/><g clip-path="url(#bcaefe9e7d)"><path fill="#38322e" d="M 49.515625 375.1875 C 47.292969 375.1875 45.4375 373.445312 45.320312 371.199219 L 35.199219 175.0625 C 35.082031 172.746094 36.863281 170.769531 39.179688 170.648438 C 41.488281 170.515625 43.472656 172.3125 43.59375 174.632812 L 53.714844 370.769531 C 53.835938 373.085938 52.054688 375.0625 49.738281 375.183594 C 49.664062 375.1875 49.589844 375.1875 49.515625 375.1875 " fill-opacity="1" fill-rule="nonzero"/></g><path fill="#f2f2f2" d="M 97.539062 344.429688 C 95.320312 344.429688 93.464844 342.691406 93.34375 340.441406 L 83.226562 144.308594 C 83.105469 141.992188 84.886719 140.011719 87.203125 139.894531 C 89.511719 139.757812 91.5 141.554688 91.621094 143.878906 L 101.742188 340.011719 C 101.863281 342.328125 100.082031 344.308594 97.761719 344.425781 C 97.6875 344.429688 97.613281 344.429688 97.539062 344.429688 " fill-opacity="1" fill-rule="nonzero"/><path fill="#38322e" d="M 99.902344 345.539062 C 97.683594 345.539062 95.828125 343.792969 95.710938 341.546875 L 85.589844 145.414062 C 85.472656 143.097656 87.253906 141.117188 89.566406 140.996094 C 91.886719 140.871094 93.867188 142.660156 93.984375 144.980469 L 104.109375 341.117188 C 104.226562 343.4375 102.445312 345.414062 100.125 345.53125 C 100.050781 345.535156 99.976562 345.539062 99.902344 345.539062 " fill-opacity="1" fill-rule="nonzero"/><path fill="#818085" d="M 104.835938 236.300781 L 24.214844 283.234375 L 36.070312 290.136719 L 116.796875 243.253906 L 104.835938 236.300781 " fill-opacity="1" fill-rule="evenodd"/><path fill="#4e4f51" d="M 116.796875 243.226562 L 36.074219 290.101562 L 36.074219 299.796875 L 116.796875 252.917969 L 116.796875 243.226562 " fill-opacity="1" fill-rule="evenodd"/><path fill="#38322e" d="M 24.25 283.261719 L 36.109375 290.125 L 36.109375 299.816406 L 24.25 292.957031 L 24.25 283.261719 " fill-opacity="1" fill-rule="evenodd"/><path fill="#e0e6f0" d="M 99.546875 111.203125 L 104.082031 241.320312 L 29.976562 284.117188 L 25.441406 154.003906 L 99.546875 111.203125 " fill-opacity="1" fill-rule="evenodd"/><path fill="#f1cd25" d="M 39.179688 238.878906 C 39.179688 238.613281 39.261719 238.34375 39.421875 238.074219 C 39.582031 237.789062 39.78125 237.574219 40.015625 237.429688 L 47.730469 232.972656 L 47.761719 232.960938 L 47.960938 232.839844 L 47.960938 222.824219 C 47.960938 222.554688 48.046875 222.265625 48.226562 221.960938 C 48.371094 221.695312 48.570312 221.496094 48.820312 221.371094 L 53.972656 218.394531 L 53.972656 208.351562 C 53.972656 208.078125 54.054688 207.792969 54.214844 207.488281 C 54.371094 207.222656 54.570312 207.023438 54.804688 206.902344 L 58.507812 204.753906 C 58.742188 204.609375 58.945312 204.578125 59.125 204.671875 C 59.285156 204.777344 59.367188 204.964844 59.367188 205.234375 C 59.367188 205.5 59.285156 205.769531 59.125 206.039062 C 58.945312 206.324219 58.742188 206.539062 58.507812 206.683594 L 55.660156 208.351562 L 55.660156 218.394531 C 55.660156 218.660156 55.574219 218.929688 55.394531 219.199219 C 55.234375 219.480469 55.039062 219.699219 54.804688 219.84375 L 49.648438 222.824219 L 49.648438 232.839844 C 49.648438 233.105469 49.570312 233.382812 49.410156 233.671875 C 49.246094 233.9375 49.050781 234.144531 48.820312 234.289062 L 40.871094 238.878906 L 40.871094 262.59375 C 40.871094 262.859375 40.78125 263.136719 40.605469 263.425781 C 40.566406 263.480469 40.542969 263.53125 40.523438 263.585938 C 40.363281 263.800781 40.191406 263.964844 40.015625 264.070312 C 39.78125 264.210938 39.582031 264.230469 39.421875 264.125 C 39.261719 264.035156 39.179688 263.851562 39.179688 263.585938 L 39.179688 238.878906 " fill-opacity="1" fill-rule="evenodd"/><path fill="#d50c75" d="M 67.011719 207.980469 C 62.417969 211.746094 58.675781 216.542969 55.777344 222.371094 C 52.832031 228.21875 51.359375 233.828125 51.359375 239.199219 L 71 227.863281 L 69.609375 251.265625 C 74.226562 249 78.449219 245.207031 82.273438 239.886719 C 86.082031 234.597656 88.625 229.019531 89.882812 223.144531 C 91.148438 217.226562 90.855469 212.351562 89.015625 208.515625 C 87.15625 204.652344 84.160156 202.675781 80.027344 202.570312 C 75.878906 202.476562 71.542969 204.28125 67.011719 207.980469 " fill-opacity="1" fill-rule="evenodd"/><path fill="#6495d5" d="M 64.597656 210.125 C 60.636719 213.996094 57.449219 218.601562 55.035156 223.9375 C 52.582031 229.28125 51.359375 234.371094 51.359375 239.199219 L 71 227.863281 L 86.453125 204.996094 C 83.886719 202.675781 80.59375 201.984375 76.570312 202.9375 C 72.550781 203.886719 68.558594 206.28125 64.597656 210.125 " fill-opacity="1" fill-rule="evenodd"/><path fill="#f1cd25" d="M 48.203125 245.394531 C 48.203125 251.113281 49.859375 255.160156 53.160156 257.539062 C 56.429688 259.941406 60.519531 260.082031 65.429688 257.964844 L 67.84375 234.0625 L 48.203125 245.394531 " fill-opacity="1" fill-rule="evenodd"/><path fill="#818085" d="M 55.113281 199.917969 L 55.113281 201.527344 L 35.191406 213.132812 L 35.191406 211.523438 Z M 49.960938 207.027344 L 49.960938 208.632812 L 35.191406 217.238281 L 35.191406 215.632812 Z M 49.960938 211.347656 L 49.960938 212.953125 L 35.191406 221.5625 L 35.191406 219.953125 Z M 49.960938 215.417969 L 49.960938 217.023438 L 35.191406 225.632812 L 35.191406 224.027344 L 49.960938 215.417969 " fill-opacity="1" fill-rule="evenodd"/><path fill="#6495d5" d="M 73.597656 160.84375 L 81.625 156.546875 L 83.167969 176.878906 L 75.136719 181.171875 L 73.597656 160.84375 " fill-opacity="1" fill-rule="evenodd"/><path fill="#6495d5" d="M 61.082031 159.472656 L 63.183594 187.15625 L 55.167969 191.445312 L 53.066406 163.761719 L 61.082031 159.472656 " fill-opacity="1" fill-rule="evenodd"/><path fill="#6495d5" d="M 39.710938 159.214844 L 42.738281 199.164062 L 34.710938 203.453125 L 31.675781 163.511719 L 39.710938 159.214844 " fill-opacity="1" fill-rule="evenodd"/><path fill="#6495d5" d="M 71.015625 158.0625 L 62.992188 162.355469 L 64.839844 186.753906 L 72.855469 182.460938 L 71.015625 158.0625 " fill-opacity="1" fill-rule="evenodd"/><path fill="#6495d5" d="M 50.238281 158.132812 L 42.21875 162.425781 L 44.882812 197.617188 L 52.898438 193.320312 L 50.238281 158.132812 " fill-opacity="1" fill-rule="evenodd"/><path fill="#818085" d="M 92.984375 128.378906 L 92.984375 129.976562 L 78.359375 138.542969 L 78.359375 136.945312 Z M 92.984375 132.664062 L 92.984375 134.261719 L 78.359375 142.820312 L 78.359375 141.222656 Z M 78.359375 146.847656 L 78.359375 145.25 L 92.984375 136.75 L 92.984375 138.347656 L 78.359375 146.847656 " fill-opacity="1" fill-rule="evenodd"/><path fill="#818085" d="M 72.964844 140.101562 L 72.964844 141.703125 L 58.339844 150.265625 L 58.339844 148.667969 Z M 72.964844 144.386719 L 72.964844 145.984375 L 58.339844 154.542969 L 58.339844 152.949219 Z M 58.339844 158.574219 L 58.339844 156.976562 L 72.964844 148.476562 L 72.964844 150.070312 L 58.339844 158.574219 " fill-opacity="1" fill-rule="evenodd"/><path fill="#818085" d="M 96.769531 179.539062 L 96.769531 181.136719 L 82.136719 189.695312 L 82.136719 188.097656 Z M 96.769531 183.816406 L 96.769531 185.414062 L 82.136719 193.980469 L 82.136719 192.382812 Z M 82.136719 198.003906 L 82.136719 196.40625 L 96.769531 187.90625 L 96.769531 189.503906 L 82.136719 198.003906 " fill-opacity="1" fill-rule="evenodd"/><path fill="#94542d" d="M 140.058594 298.910156 L 140.058594 336.261719 L 92.875 363.570312 L 92.875 326.222656 L 140.058594 298.910156 " fill-opacity="1" fill-rule="evenodd"/><path fill="#cc9a3e" d="M 92.757812 326.410156 L 140.128906 298.988281 L 132.5625 294.609375 L 85.457031 321.921875 L 92.757812 326.410156 " fill-opacity="1" fill-rule="evenodd"/><path fill="#f1cd25" d="M 127.265625 304.476562 L 133.445312 300.910156 L 127.230469 297.3125 L 121.050781 300.875 L 127.265625 304.476562 " fill-opacity="1" fill-rule="evenodd"/><path fill="#724422" d="M 120.179688 306.246094 L 120.179688 302.535156 C 120.179688 302.492188 120.179688 302.453125 120.179688 302.425781 C 120.074219 300.527344 119.570312 299.304688 118.671875 298.757812 C 117.738281 297.734375 116.386719 297.636719 114.613281 298.464844 C 114.554688 298.5 114.488281 298.535156 114.410156 298.582031 L 107.785156 302.578125 C 105.550781 303.453125 104.484375 305.542969 104.59375 308.84375 C 104.59375 308.863281 104.59375 308.882812 104.59375 308.914062 L 104.59375 312.246094 C 104.59375 312.824219 104.789062 313.316406 105.191406 313.738281 C 105.601562 314.152344 106.097656 314.355469 106.671875 314.355469 C 107.234375 314.355469 107.722656 314.152344 108.136719 313.738281 C 108.554688 313.316406 108.757812 312.824219 108.757812 312.246094 L 108.757812 308.84375 C 108.757812 308.816406 108.757812 308.796875 108.757812 308.78125 C 108.714844 307.582031 108.980469 306.769531 109.558594 306.355469 C 109.660156 306.328125 109.742188 306.289062 109.800781 306.246094 L 115.988281 302.535156 C 115.988281 302.566406 115.988281 302.601562 115.988281 302.648438 L 115.988281 306.246094 C 115.988281 306.824219 116.191406 307.320312 116.605469 307.734375 C 117.023438 308.152344 117.519531 308.355469 118.09375 308.355469 C 118.65625 308.355469 119.144531 308.152344 119.558594 307.734375 C 119.96875 307.320312 120.179688 306.824219 120.179688 306.246094 " fill-opacity="1" fill-rule="evenodd"/><path fill="#f1cd25" d="M 96.84375 322.191406 L 103.023438 318.625 L 96.8125 315.03125 L 90.628906 318.597656 L 96.84375 322.191406 " fill-opacity="1" fill-rule="evenodd"/><path fill="#724422" d="M 85.492188 321.804688 L 85.492188 359.15625 L 93.070312 363.546875 L 93.070312 326.195312 L 85.492188 321.804688 " fill-opacity="1" fill-rule="evenodd"/><path fill="#dcdbd9" d="M 226.789062 156.539062 C 227.664062 155.738281 228.460938 155.339844 229.1875 155.339844 C 233.6875 155.484375 235.972656 158.460938 236.046875 164.273438 C 230.820312 169.433594 227.953125 172.191406 227.441406 172.558594 C 227.011719 172.777344 225.410156 173.9375 222.652344 176.046875 C 220.835938 177.425781 219.203125 178.476562 217.753906 179.203125 C 216.667969 179.714844 215.285156 180.695312 213.613281 182.148438 C 211.730469 183.746094 210.351562 184.796875 209.480469 185.308594 C 208.171875 186.035156 206.828125 186.359375 205.449219 186.289062 C 203.925781 186.433594 202.621094 186.105469 201.527344 185.308594 C 199.863281 184.214844 197.609375 183.199219 194.78125 182.257812 C 191.585938 181.167969 189.226562 180.367188 187.699219 179.859375 C 186.613281 179.421875 185.050781 178.515625 183.019531 177.132812 C 181.132812 175.972656 179.570312 175.136719 178.335938 174.628906 C 175.941406 173.757812 174.160156 173.105469 173 172.664062 C 170.96875 171.792969 169.40625 170.742188 168.320312 169.507812 C 169.261719 166.746094 170.859375 164.347656 173.109375 162.316406 C 174.011719 161.46875 174.957031 160.738281 175.941406 160.132812 L 183.890625 160.132812 C 184.089844 160.304688 184.308594 160.414062 184.542969 160.460938 C 188.535156 161.550781 192.277344 163.078125 195.757812 165.039062 C 199.460938 167.144531 202.652344 169.578125 205.335938 172.339844 C 207.808594 170.59375 210.855469 168.488281 214.488281 166.019531 C 218.550781 163.257812 221.5625 161.222656 223.523438 159.917969 C 224.03125 159.625 224.613281 159.117188 225.265625 158.390625 C 225.339844 158.246094 225.410156 158.101562 225.484375 157.957031 C 226.210938 157.15625 226.644531 156.683594 226.789062 156.539062 " fill-opacity="1" fill-rule="evenodd"/><g clip-path="url(#18a6f3994a)"><path fill="#fccfbf" d="M 245.40625 139.546875 C 245.882812 138.992188 246.507812 138.859375 247.285156 139.136719 C 247.90625 139.390625 248.480469 139.839844 249.007812 140.476562 C 249.78125 143.679688 249.828125 146.722656 249.132812 149.605469 C 248.25 152.894531 246.613281 155.421875 244.21875 157.207031 C 243.335938 157.828125 241.796875 158.699219 239.59375 159.816406 C 237.535156 160.859375 236.066406 161.695312 235.1875 162.320312 C 233.683594 162.949219 232.136719 162.625 230.558594 161.335938 C 228.917969 160.007812 228.140625 158.707031 228.230469 157.445312 L 228.414062 155.847656 C 228.765625 152.1875 229.164062 149.273438 229.613281 147.105469 C 230.3125 143.960938 231.28125 141.179688 232.523438 138.773438 C 233.640625 139.199219 234.292969 139.785156 234.476562 140.539062 C 234.585938 141.144531 234.484375 142.050781 234.175781 143.25 C 233.800781 144.675781 233.574219 145.621094 233.5 146.105469 C 233.480469 147.15625 233.863281 148 234.65625 148.640625 C 236.445312 147.855469 238.347656 146.53125 240.363281 144.660156 C 242.511719 142.351562 244.191406 140.648438 245.40625 139.546875 " fill-opacity="1" fill-rule="evenodd"/></g><path fill="#4e4f51" d="M 162.515625 287.261719 C 164.496094 282.15625 166.46875 276.734375 168.433594 270.988281 C 173.238281 257.070312 175.636719 244.476562 175.636719 233.199219 C 175.636719 230.503906 175.207031 227.445312 174.355469 224.023438 C 172.683594 224.550781 170.898438 224.902344 168.996094 225.085938 C 166.152344 225.355469 163.351562 225.15625 160.605469 224.496094 C 157.78125 223.828125 155.238281 222.714844 152.972656 221.15625 C 151.921875 220.613281 151.257812 219.695312 150.96875 218.398438 C 150.855469 217.855469 150.785156 216.667969 150.761719 214.835938 C 148.335938 219.308594 146.667969 224.324219 145.746094 229.890625 C 144.902344 235.019531 144.734375 240.351562 145.246094 245.875 C 144.980469 250.484375 144.910156 257.421875 145.039062 266.6875 C 144.941406 275 144.199219 281.875 142.816406 287.3125 C 140.8125 292.964844 139.820312 299.691406 139.828125 307.488281 C 139.828125 310.265625 139.964844 313.691406 140.226562 317.757812 C 140.375 320.042969 140.605469 323.449219 140.921875 327.980469 C 140.992188 329.347656 140.851562 331.773438 140.476562 335.25 C 140.144531 338.3125 140.113281 340.730469 140.390625 342.5 C 140.449219 343.007812 140.742188 343.40625 141.273438 343.699219 C 141.5 343.828125 141.988281 344.007812 142.742188 344.246094 C 145.15625 344.808594 147.113281 345.050781 148.613281 344.984375 C 150.855469 344.867188 152.605469 344.121094 153.882812 342.738281 C 154.949219 341.761719 155.398438 340.195312 155.222656 338.039062 C 155.617188 335.09375 155.84375 331.449219 155.914062 327.09375 C 155.9375 322.160156 155.976562 318.46875 156.046875 316.015625 C 156.152344 311.769531 156.460938 308.125 156.957031 305.082031 C 157.597656 301.191406 158.625 297.675781 160.046875 294.535156 C 160.273438 293.964844 160.636719 292.71875 161.140625 290.796875 C 161.542969 289.21875 161.996094 288.003906 162.507812 287.148438 C 162.511719 287.1875 162.511719 287.222656 162.515625 287.261719 " fill-opacity="1" fill-rule="evenodd"/><path fill="#38322e" d="M 174.355469 224.023438 C 175.207031 227.445312 175.636719 230.503906 175.636719 233.199219 C 175.636719 244.476562 173.238281 257.070312 168.4375 270.988281 C 166.46875 276.734375 164.496094 282.15625 162.515625 287.261719 L 162.515625 287.265625 C 162.515625 287.28125 162.519531 287.296875 162.519531 287.3125 C 162.648438 288.925781 162.832031 291.046875 163.074219 293.683594 C 163.191406 295.003906 163.328125 296.449219 163.480469 298.023438 C 163.792969 302.238281 163.800781 305.867188 163.507812 308.910156 C 163.332031 310.90625 163.269531 312.34375 163.332031 313.222656 C 163.4375 314.859375 163.886719 316.191406 164.671875 317.226562 C 167.347656 319.652344 170.683594 320.824219 174.679688 320.746094 C 178.792969 320.664062 181.984375 319.242188 184.257812 316.472656 C 184.523438 315.339844 184.40625 313.636719 183.90625 311.363281 C 183.363281 308.878906 183.144531 307.105469 183.242188 306.027344 C 183.546875 303.132812 183.601562 298.394531 183.40625 291.816406 C 183.230469 285.679688 183.386719 280.949219 183.878906 277.621094 C 185.496094 274.734375 186.667969 271 187.390625 266.425781 C 188.863281 260.199219 189.722656 256.460938 189.96875 255.210938 C 190.8125 250.945312 191.234375 247.144531 191.234375 243.804688 C 190.578125 234.765625 189.023438 226.800781 186.582031 219.917969 C 186.25 219.191406 186.085938 218.320312 186.097656 217.304688 C 186.097656 216.96875 186.164062 216.054688 186.304688 214.570312 C 186.511719 212.265625 186.121094 210.566406 185.140625 209.472656 C 185.09375 209.730469 184.9375 211.152344 184.667969 213.742188 C 184.492188 215.476562 184.199219 216.863281 183.789062 217.910156 C 182.023438 219.898438 179.984375 221.484375 177.671875 222.664062 C 177.589844 222.710938 177.503906 222.75 177.417969 222.792969 C 176.835938 223.074219 176.246094 223.339844 175.636719 223.578125 L 174.839844 223.859375 C 174.679688 223.914062 174.519531 223.964844 174.355469 224.015625 L 174.355469 224.023438 " fill-opacity="1" fill-rule="evenodd"/><path fill="#dcdbd9" d="M 177.027344 151.527344 C 178.546875 151.957031 179.871094 152.621094 181.007812 153.519531 C 182.195312 156.316406 184.417969 158.9375 187.691406 161.382812 C 188.332031 161.714844 188.921875 162.058594 189.46875 162.414062 C 188.832031 163.054688 188.128906 163.859375 187.375 164.832031 C 185.761719 166.730469 184.789062 168.007812 184.457031 168.671875 C 183.367188 164.785156 181.886719 160.96875 180.015625 157.222656 C 179.066406 155.300781 178.070312 153.402344 177.027344 151.527344 " fill-opacity="1" fill-rule="evenodd"/><path fill="#e0e6f0" d="M 146.746094 161.558594 C 149.46875 163.21875 152.183594 164.914062 154.886719 166.644531 C 158.007812 168.6875 160.972656 170.902344 163.773438 173.296875 C 165.046875 174.4375 166.53125 174.769531 168.214844 174.292969 C 168.28125 172.707031 168.371094 171.117188 168.464844 169.527344 C 168.484375 169.265625 168.535156 169.019531 168.601562 168.78125 C 168.652344 168.542969 168.710938 168.304688 168.78125 168.070312 C 169.117188 167.097656 169.730469 166.515625 170.632812 166.328125 C 170.820312 166.398438 171.007812 166.46875 171.199219 166.542969 C 171.390625 166.679688 171.566406 166.847656 171.730469 167.039062 C 172.0625 167.371094 172.359375 167.738281 172.621094 168.140625 C 173.117188 168.898438 173.566406 169.691406 173.972656 170.523438 C 174.160156 170.929688 174.324219 171.339844 174.46875 171.765625 C 174.65625 171.601562 174.800781 171.425781 174.894531 171.234375 C 175.296875 170.308594 175.449219 169.371094 175.355469 168.421875 C 175.097656 165.292969 174.3125 162.238281 173.011719 159.246094 C 171.730469 156.304688 170.023438 153.691406 167.894531 151.390625 C 168.558594 151.316406 169.21875 151.246094 169.882812 151.175781 C 172.277344 150.886719 174.65625 151.007812 177.027344 151.527344 C 178.070312 153.402344 179.066406 155.300781 180.015625 157.222656 C 181.886719 160.96875 183.367188 164.785156 184.457031 168.671875 C 184.625 170.664062 184.8125 172.667969 185.027344 174.6875 C 185.285156 177.101562 185.59375 179.484375 185.949219 181.832031 C 186.070312 182.617188 186.113281 183.398438 186.089844 184.183594 C 185.976562 187.453125 185.6875 190.738281 185.242188 194.03125 C 184.695312 198.136719 184.601562 202.203125 184.953125 206.230469 C 185.121094 208.035156 185.203125 209.863281 185.203125 211.710938 C 185.203125 214.386719 184.859375 217.007812 184.171875 219.570312 C 183.960938 220.375 183.570312 221.042969 183 221.5625 C 177.335938 226.585938 170.738281 228.722656 163.203125 227.964844 C 158.226562 227.558594 153.960938 225.722656 150.402344 222.449219 C 150.09375 222.167969 149.917969 221.859375 149.871094 221.527344 C 149.445312 217.945312 148.84375 214.402344 148.058594 210.894531 C 147.347656 207.6875 146.425781 204.558594 145.285156 201.503906 C 143.414062 196.453125 140.40625 192.304688 136.257812 189.054688 L 135.828125 189.015625 C 135.285156 187 134.824219 185.179688 134.445312 183.558594 C 134.066406 181.941406 133.898438 180.90625 133.945312 180.445312 C 133.996094 179.988281 133.996094 178.734375 133.945312 176.695312 C 133.902344 174.644531 134.625 172.027344 136.113281 168.851562 C 136.640625 168.636719 137.167969 168.433594 137.714844 168.246094 C 141.339844 166.777344 144.347656 164.550781 146.746094 161.558594 " fill-opacity="1" fill-rule="evenodd"/><path fill="#d50c75" d="M 169.1875 171.109375 C 168.53125 173.019531 169.050781 174.40625 170.75 175.273438 C 171.464844 177.421875 172.59375 180.664062 174.132812 184.996094 C 175.332031 188.796875 175.976562 192.15625 176.078125 195.070312 C 176.382812 197.433594 176.449219 201.175781 176.28125 206.296875 C 176.117188 211.191406 176.242188 214.929688 176.664062 217.511719 C 176.832031 217.945312 177.140625 218.328125 177.589844 218.664062 C 177.882812 218.871094 178.332031 219.113281 178.929688 219.386719 C 181.167969 216.816406 181.996094 214.410156 181.417969 212.160156 C 180.953125 209.808594 180.640625 206.859375 180.460938 203.316406 C 180.316406 199.304688 180.171875 196.308594 180.035156 194.316406 C 179.808594 190.871094 179.40625 187.9375 178.828125 185.511719 C 178.082031 182.429688 176.964844 179.691406 175.476562 177.296875 C 174.214844 176.285156 173.433594 174.710938 173.132812 172.585938 C 172.953125 170.136719 172.71875 168.332031 172.425781 167.179688 C 170.855469 168.105469 169.777344 169.414062 169.1875 171.109375 " fill-opacity="1" fill-rule="evenodd"/><path fill="#818085" d="M 148.613281 344.984375 C 147.113281 345.054688 145.15625 344.808594 142.742188 344.246094 C 143.082031 345.988281 143.558594 348.613281 144.171875 352.121094 C 144.75 355.222656 145.363281 357.816406 146.011719 359.902344 C 147.140625 362.101562 149.027344 363.628906 151.675781 364.484375 C 154.058594 365.265625 156.53125 365.363281 159.09375 364.78125 C 159.917969 364.644531 160.542969 364.183594 160.960938 363.40625 C 161.332031 362.71875 161.484375 361.933594 161.417969 361.058594 C 161.25 358.359375 160.242188 355.222656 158.386719 351.648438 C 157.316406 349.695312 156.523438 348.230469 156 347.25 C 155.078125 345.511719 154.371094 344.007812 153.882812 342.738281 C 152.605469 344.121094 150.855469 344.867188 148.613281 344.984375 Z M 189.792969 329.222656 C 192.125 329.910156 194.128906 330.277344 195.792969 330.3125 C 197.953125 330.363281 199.941406 329.90625 201.753906 328.941406 C 202.070312 326.765625 201.703125 325.207031 200.652344 324.273438 C 198.9375 322.558594 196.308594 321.074219 192.765625 319.8125 C 191.804688 319.480469 190.355469 318.976562 188.425781 318.320312 C 186.753906 317.722656 185.367188 317.105469 184.257812 316.472656 C 181.980469 319.242188 178.792969 320.664062 174.679688 320.746094 C 170.683594 320.824219 167.347656 319.652344 164.671875 317.226562 C 164.210938 318.046875 163.992188 318.914062 164.023438 319.828125 C 164.050781 320.773438 164.339844 321.625 164.875 322.382812 C 166.082031 324.085938 168.050781 325.132812 170.777344 325.511719 C 171.5625 325.632812 172.746094 325.722656 174.324219 325.78125 C 175.914062 325.851562 177.054688 325.933594 177.753906 326.03125 C 179.410156 326.121094 181.421875 326.527344 183.789062 327.257812 C 186.457031 328.164062 188.453125 328.820312 189.792969 329.222656 " fill-opacity="1" fill-rule="evenodd"/><path fill="#38322e" d="M 146.011719 359.90625 C 146.480469 362.742188 148.285156 364.71875 151.414062 365.832031 C 154.167969 366.816406 156.972656 366.902344 159.832031 366.097656 C 160.847656 365.867188 161.441406 365.1875 161.609375 364.042969 C 161.71875 363.382812 161.652344 362.390625 161.417969 361.058594 C 161.484375 361.933594 161.332031 362.71875 160.960938 363.40625 C 160.542969 364.1875 159.917969 364.644531 159.09375 364.785156 C 156.53125 365.363281 154.058594 365.265625 151.675781 364.488281 C 149.027344 363.628906 147.140625 362.101562 146.011719 359.90625 Z M 186.65625 329.933594 C 188.609375 330.644531 190.140625 331.128906 191.25 331.382812 C 192.964844 331.792969 194.566406 331.957031 196.046875 331.871094 C 198.097656 331.828125 199.367188 331.742188 199.839844 331.617188 C 201.273438 331.234375 201.914062 330.34375 201.753906 328.941406 C 199.945312 329.90625 197.953125 330.367188 195.792969 330.320312 C 194.128906 330.277344 192.125 329.910156 189.792969 329.222656 C 188.457031 328.820312 186.457031 328.167969 183.789062 327.257812 C 181.421875 326.53125 179.410156 326.121094 177.753906 326.03125 C 177.054688 325.9375 175.914062 325.851562 174.324219 325.78125 C 172.746094 325.722656 171.5625 325.632812 170.777344 325.515625 C 168.050781 325.132812 166.082031 324.085938 164.875 322.382812 C 164.5625 323.785156 164.398438 324.679688 164.390625 325.074219 C 164.359375 326.125 164.722656 326.894531 165.480469 327.378906 C 166.855469 328.234375 168.625 328.816406 170.792969 329.121094 C 173.324219 329.34375 175.207031 329.53125 176.445312 329.664062 C 176.578125 329.207031 176.691406 328.855469 176.769531 328.617188 C 176.90625 328.203125 177.089844 327.898438 177.3125 327.703125 C 178.753906 327.695312 180.339844 327.925781 182.0625 328.394531 C 183.007812 328.652344 184.539062 329.164062 186.65625 329.933594 " fill-opacity="1" fill-rule="evenodd"/><path fill="#f2f2f2" d="M 167.894531 151.390625 C 170.023438 153.691406 171.730469 156.304688 173.011719 159.246094 C 174.3125 162.238281 175.097656 165.292969 175.355469 168.421875 C 175.449219 169.371094 175.296875 170.308594 174.894531 171.234375 C 174.800781 171.425781 174.65625 171.601562 174.46875 171.765625 C 174.324219 171.339844 174.160156 170.929688 173.972656 170.523438 C 173.566406 169.691406 173.117188 168.898438 172.621094 168.140625 C 172.359375 167.738281 172.0625 167.371094 171.730469 167.039062 C 171.566406 166.847656 171.390625 166.679688 171.199219 166.542969 C 171.007812 166.46875 170.820312 166.398438 170.632812 166.328125 C 169.730469 166.515625 169.117188 167.097656 168.78125 168.070312 C 168.710938 168.304688 168.652344 168.542969 168.601562 168.78125 C 168.535156 169.019531 168.484375 169.265625 168.464844 169.527344 C 168.371094 171.117188 168.28125 172.707031 168.214844 174.292969 C 166.53125 174.769531 165.046875 174.4375 163.773438 173.296875 C 160.972656 170.902344 158.007812 168.6875 154.886719 166.644531 C 152.183594 164.914062 149.46875 163.21875 146.746094 161.558594 C 147.351562 159.515625 148.617188 157.425781 150.546875 155.300781 L 150.617188 155.40625 C 152.089844 153.746094 154.804688 152.597656 158.753906 151.957031 C 160.984375 151.527344 163.15625 151.398438 165.261719 151.566406 C 165.808594 151.566406 166.292969 151.566406 166.71875 151.566406 C 167.121094 151.492188 167.511719 151.433594 167.894531 151.390625 " fill-opacity="1" fill-rule="evenodd"/><path fill="#fccfbf" d="M 160.71875 136.957031 C 159.957031 136.949219 158.859375 136.929688 157.425781 136.894531 C 157.296875 137.828125 156.9375 138.886719 156.347656 140.070312 C 156.019531 140.753906 155.484375 141.761719 154.753906 143.089844 C 153.527344 145.53125 153.351562 147.714844 154.21875 149.628906 L 153.007812 150.066406 C 153.480469 152.9375 155.441406 155.148438 158.902344 156.695312 C 161.546875 157.875 164.648438 158.546875 168.214844 158.71875 C 169.558594 158.371094 170.433594 157.429688 170.84375 155.902344 C 171.09375 154.015625 171.289062 152.640625 171.425781 151.785156 C 172.394531 144.929688 171.84375 138.949219 169.769531 133.84375 C 168.542969 135.5 166.648438 136.492188 164.09375 136.816406 C 163.191406 136.925781 162.074219 136.976562 160.71875 136.957031 " fill-opacity="1" fill-rule="evenodd"/><path fill="#724422" d="M 159.417969 136.832031 C 158.902344 136.507812 158.183594 136.269531 157.265625 136.125 C 155.992188 135.886719 153.714844 135.582031 150.421875 135.207031 C 148.050781 134.671875 146.179688 134.25 144.8125 133.933594 C 144.707031 134.234375 144.617188 134.535156 144.527344 134.851562 C 144.175781 136.242188 144.035156 137.703125 144.105469 139.238281 C 144.160156 139.980469 144.25 140.734375 144.390625 141.503906 C 144.417969 141.6875 144.453125 141.875 144.492188 142.070312 C 145.390625 146.363281 147.527344 149.757812 150.914062 152.261719 C 150.820312 151.644531 150.46875 150.960938 149.855469 150.207031 C 149.574219 149.734375 149.054688 149.097656 148.304688 148.296875 C 147.128906 146.785156 146.960938 145.371094 147.8125 144.050781 C 149.269531 143.34375 150.445312 143.859375 151.339844 145.605469 C 152.140625 147.875 152.796875 149.332031 153.3125 149.992188 L 154.515625 149.570312 C 153.621094 147.636719 153.808594 145.464844 155.078125 143.058594 C 155.785156 141.691406 156.324219 140.675781 156.699219 140.015625 C 157.265625 138.789062 157.617188 137.726562 157.757812 136.832031 L 159.03125 136.832031 C 159.167969 136.832031 159.296875 136.832031 159.417969 136.832031 " fill-opacity="1" fill-rule="evenodd"/><path fill="#94542d" d="M 159.417969 136.832031 C 160.074219 136.851562 160.601562 136.878906 161.003906 136.902344 C 162.371094 136.902344 163.523438 136.859375 164.460938 136.761719 C 166.957031 136.429688 168.816406 135.441406 170.039062 133.789062 C 170.507812 132.988281 170.722656 132.164062 170.671875 131.3125 C 170.621094 130.417969 170.296875 129.6875 169.6875 129.121094 C 168.132812 127.65625 166.296875 126.574219 164.183594 125.867188 C 162.0625 125.0625 159.925781 124.6875 157.757812 124.734375 C 152.871094 124.828125 149.175781 126.644531 146.683594 130.183594 C 145.664062 131.640625 144.949219 133.199219 144.527344 134.851562 C 144.617188 134.535156 144.714844 134.234375 144.8125 133.933594 C 146.179688 134.25 148.050781 134.671875 150.421875 135.207031 C 153.714844 135.582031 155.996094 135.886719 157.265625 136.125 C 158.183594 136.269531 158.902344 136.507812 159.417969 136.832031 " fill-opacity="1" fill-rule="evenodd"/><path fill="#c2866c" d="M 147.175781 145.820312 C 148.082031 149.632812 149.351562 151.699219 150.988281 152.007812 C 151.066406 152.414062 151.183594 152.941406 151.34375 153.601562 C 151.011719 155.910156 151.835938 157.613281 153.808594 158.695312 C 154.609375 159.125 156.609375 159.761719 159.804688 160.605469 C 161.21875 161.035156 162.769531 161.765625 164.460938 162.800781 L 168.765625 165.558594 C 168.910156 164.476562 168.9375 163.25 168.835938 161.878906 C 168.792969 161.128906 168.675781 159.898438 168.484375 158.203125 C 164.914062 158.058594 161.804688 157.378906 159.175781 156.148438 C 155.738281 154.636719 153.761719 152.445312 153.242188 149.570312 C 152.773438 148.910156 152.113281 147.472656 151.269531 145.253906 C 150.378906 143.507812 149.222656 142.964844 147.8125 143.625 C 147.488281 144.105469 147.296875 144.605469 147.246094 145.113281 C 147.199219 145.332031 147.175781 145.566406 147.175781 145.820312 " fill-opacity="1" fill-rule="evenodd"/><path fill="#f2f2f2" d="M 139.226562 168.648438 C 142.761719 168.675781 144.695312 171.050781 145.03125 175.769531 C 145.371094 180.488281 143.683594 184.710938 139.964844 188.441406 C 137.648438 190.476562 135.949219 191.894531 134.867188 192.703125 C 132.972656 194.207031 131.1875 195.507812 129.503906 196.589844 C 128.558594 197.117188 126.96875 197.996094 124.726562 199.21875 C 123.988281 199.605469 123.339844 199.976562 122.78125 200.324219 C 119.277344 202.425781 115.496094 203.515625 111.429688 203.582031 C 109.539062 203.65625 107.875 203.039062 106.4375 201.742188 C 105.703125 200.9375 105.019531 200.132812 104.390625 199.328125 C 103.933594 198.832031 103.53125 198.292969 103.179688 197.695312 C 102.902344 197.273438 102.605469 196.800781 102.289062 196.273438 C 101.269531 194.171875 100.730469 191.964844 100.660156 189.648438 C 100.589844 189.371094 100.519531 189.074219 100.449219 188.757812 C 100.378906 188.617188 100.242188 188.441406 100.027344 188.234375 L 99.714844 185.179688 C 99.328125 182.550781 99.398438 180.765625 99.925781 179.820312 C 100.414062 178.804688 101.464844 178.261719 103.078125 178.191406 C 104.582031 178.121094 105.773438 178.523438 106.648438 179.398438 C 107 179.75 107.402344 180.328125 107.859375 181.136719 C 109.011719 183.554688 110.90625 185.007812 113.53125 185.496094 C 113.742188 185.566406 113.988281 185.640625 114.265625 185.707031 C 117.773438 185.425781 121.222656 183.941406 124.621094 181.238281 C 124.898438 180.957031 126.179688 179.472656 128.453125 176.769531 C 129.960938 174.878906 131.398438 173.546875 132.765625 172.777344 C 133.816406 171.828125 135.160156 170.882812 136.8125 169.933594 C 137.070312 169.769531 137.839844 169.359375 139.121094 168.703125 L 139.226562 168.648438 " fill-opacity="1" fill-rule="evenodd"/><path fill="#fccfbf" d="M 89.929688 156.875 C 89.191406 158.492188 89.675781 160.207031 91.382812 162.027344 C 91.867188 162.515625 92.617188 163.253906 93.636719 164.257812 C 94.476562 165.152344 95.035156 165.933594 95.320312 166.597656 C 93.050781 168.316406 91.417969 169.789062 90.425781 171.019531 C 88.898438 173.019531 88.269531 175.015625 88.554688 177.011719 C 91.433594 178.933594 93.113281 180.046875 93.597656 180.355469 C 95.585938 181.582031 97.378906 182.507812 98.984375 183.121094 C 100.898438 183.351562 102.679688 183.109375 104.335938 182.390625 C 106.324219 181.519531 106.960938 180.179688 106.246094 178.359375 C 105.332031 174.027344 103.304688 169.929688 100.171875 166.0625 C 97.496094 162.757812 94.082031 159.699219 89.929688 156.875 " fill-opacity="1" fill-rule="evenodd"/></svg>