<svg width="548" height="526" viewBox="0 0 548 526" fill="none" xmlns="http://www.w3.org/2000/svg">
<path d="M350.442 288.368C342.486 274.129 330.649 258.201 313.581 238.825C317.63 235.031 320.183 229.608 320.183 223.571C320.183 215.704 315.865 208.847 309.526 205.333L315.966 198.767C319.861 194.797 322.008 189.501 322.008 183.866C322.008 178.224 319.861 172.934 315.966 168.965C309.961 162.842 300.831 161.189 293.198 164.508C291.23 159.523 287.449 155.535 282.773 153.273V148.738C298.082 148.683 312.693 142.828 323.934 132.232C335.157 121.647 342.033 107.287 343.292 91.8024C343.667 87.1576 340.483 82.9991 335.974 82.2392C332.676 81.686 329.319 81.4063 325.985 81.4063C310.593 81.4063 295.905 87.2731 284.61 97.9185C283.978 98.5143 283.37 99.1222 282.767 99.7363V96.7816C284.157 95.2495 285.487 93.6506 286.715 91.9909C295.983 79.4669 300.241 63.9761 298.702 48.3759C297.175 32.8669 290.073 18.6224 278.7 8.27493C275.289 5.16826 270.113 5.25337 266.803 8.46947C264.382 10.8223 262.139 13.3879 260.136 16.0933C250.868 28.6172 246.61 44.108 248.149 59.7082C249.544 73.8311 255.568 86.8962 265.217 96.9397V99.7302C264.614 99.1161 264.006 98.5021 263.374 97.9124C252.085 87.267 237.391 81.4002 221.999 81.4002C218.665 81.4002 215.308 81.6799 212.01 82.2331C207.501 82.9931 204.317 87.1515 204.693 91.7963C205.951 107.281 212.827 121.641 224.05 132.226C235.286 142.822 249.896 148.677 265.211 148.732V153.273C260.541 155.529 256.76 159.523 254.792 164.508C247.153 161.189 238.023 162.842 232.018 168.965C228.123 172.934 225.976 178.23 225.976 183.866C225.976 189.507 228.123 194.797 232.018 198.767L238.458 205.333C232.113 208.853 227.801 215.71 227.801 223.571C227.801 229.608 230.36 235.031 234.403 238.825C217.341 258.195 205.498 274.129 197.542 288.368C183.313 313.835 183.051 342.02 196.815 365.694C211.849 391.556 240.736 407.449 272.492 407.449C272.987 407.449 273.488 407.443 273.983 407.436C306.317 407.929 335.885 391.958 351.151 365.694C364.933 342.02 364.671 313.835 350.442 288.368ZM324.125 99.3228C318.877 116.984 302.978 129.976 284.431 130.803C289.673 113.142 305.578 100.15 324.125 99.3228ZM223.877 99.3228C242.424 100.144 258.329 113.142 263.571 130.803C245.03 129.982 229.125 116.984 223.877 99.3228ZM248.173 226.435C246.652 226.435 245.364 225.128 245.364 223.577C245.364 222.027 246.652 220.72 248.173 220.72H299.835C301.356 220.72 302.644 222.027 302.644 223.577C302.644 225.128 301.356 226.435 299.835 226.435H248.173ZM273.059 28.4105C283.733 43.3177 284.33 64.0856 273.804 79.6736C263.135 64.7665 262.533 43.9986 273.059 28.4105ZM244.44 181.61C245.453 180.577 247.135 180.394 248.346 181.184C252.508 183.908 257.518 184.364 262.092 182.437C266.66 180.51 269.886 176.576 270.942 171.646C271.252 170.211 272.57 169.129 274.001 169.129C275.438 169.129 276.75 170.211 277.06 171.646C278.116 176.57 281.342 180.504 285.91 182.437C290.484 184.37 295.494 183.914 299.656 181.184C300.867 180.394 302.549 180.577 303.562 181.61C304.344 182.406 304.463 183.367 304.463 183.866C304.463 184.364 304.344 185.319 303.562 186.121L287.174 202.828H260.839L244.446 186.121C243.664 185.325 243.545 184.364 243.545 183.866C243.539 183.361 243.658 182.406 244.44 181.61ZM336.076 356.575C324.196 377.008 301.076 389.562 275.492 389.562C275.045 389.562 274.591 389.556 274.144 389.55C274.043 389.55 273.947 389.55 273.846 389.55C273.399 389.556 272.945 389.562 272.498 389.562C246.92 389.562 223.794 377.008 211.92 356.575C201.305 338.318 201.621 317.24 212.803 297.22C220.973 282.592 233.878 265.715 253.242 244.321H294.754C314.118 265.709 327.017 282.592 335.193 297.22C346.375 317.234 346.691 338.318 336.076 356.575ZM302.477 330.809C303.228 337.126 301.547 342.914 297.611 347.559C294.068 351.735 288.713 354.775 282.553 356.258V357.353C282.553 362.295 278.623 366.296 273.78 366.296C268.932 366.296 265.008 362.289 265.008 357.353V356.1C255.097 353.383 247.576 346.136 245.167 336.281C243.998 331.49 246.855 326.633 251.56 325.441C256.271 324.243 261.024 327.161 262.199 331.958C263.523 337.375 269.105 339.327 273.756 339.388C273.81 339.388 273.888 339.388 273.953 339.388C274.108 339.388 274.251 339.388 274.401 339.381C278.587 339.278 282.678 337.831 284.354 335.855C284.914 335.199 285.248 334.451 285.075 332.967C284.878 331.344 284.431 327.538 272.433 325.532C251.113 321.963 247.362 309.476 247.022 302.345C246.479 291 253.635 281.425 265.02 277.941V276.519C265.02 271.576 268.95 267.575 273.792 267.575C278.641 267.575 282.565 271.582 282.565 276.519V277.862C289.87 280.026 296.645 285.133 300.324 294.07C302.203 298.624 300.097 303.871 295.631 305.78C291.158 307.689 286.012 305.555 284.139 300.995C281.402 294.356 274.573 293.997 270.971 294.83C269.403 295.195 264.31 296.745 264.531 301.481C264.585 302.63 264.751 306.126 275.259 307.883C291.838 310.655 300.998 318.37 302.477 330.809ZM94.0865 456.651C100.432 449.823 104.338 440.613 104.338 430.49C104.338 409.491 87.5803 392.408 66.9822 392.408C46.3841 392.408 29.6265 409.491 29.6265 430.49C29.6265 440.619 33.5326 449.823 39.8778 456.651C19.4586 466.117 4.58551 485.997 2.05696 510.102C1.7886 512.625 2.58772 515.142 4.25751 517.033C5.92134 518.918 8.29484 520 10.7816 520H123.183C125.67 520 128.043 518.924 129.707 517.033C131.371 515.148 132.17 512.625 131.907 510.102C129.373 485.997 114.506 466.117 94.0865 456.651ZM47.1712 430.49C47.1712 419.358 56.0569 410.3 66.9762 410.3C77.8955 410.3 86.7812 419.358 86.7812 430.49C86.7812 441.622 77.9014 450.681 66.9822 450.681H66.9762C56.0629 450.674 47.1712 441.622 47.1712 430.49ZM21.5697 502.108C27.8255 482.434 45.8891 468.573 66.9702 468.573C66.9762 468.573 66.9762 468.573 66.9822 468.573C66.9881 468.573 66.9881 468.573 66.9941 468.573C88.0693 468.579 106.133 482.44 112.395 502.108H21.5697ZM10.7757 182.461H123.177C125.664 182.461 128.037 181.385 129.701 179.494C131.365 177.61 132.164 175.087 131.901 172.564C129.373 148.458 114.5 128.584 94.0806 119.118C100.426 112.291 104.332 103.08 104.332 92.9575C104.332 71.9586 87.5743 54.875 66.9762 54.875C46.3781 54.875 29.6205 71.9586 29.6205 92.9575C29.6205 103.086 33.5266 112.291 39.8719 119.118C19.4526 128.584 4.57954 148.464 2.051 172.57C1.78264 175.093 2.58175 177.61 4.25155 179.5C5.91538 181.379 8.28887 182.461 10.7757 182.461ZM47.1712 92.9514C47.1712 81.8197 56.0569 72.7611 66.9762 72.7611C77.8955 72.7611 86.7812 81.8197 86.7812 92.9514C86.7812 104.083 77.9014 113.142 66.9822 113.142H66.9762C56.0629 113.136 47.1712 104.083 47.1712 92.9514ZM66.9702 131.034C66.9762 131.034 66.9762 131.034 66.9822 131.034C66.9881 131.034 66.9881 131.034 66.9941 131.034C88.0693 131.04 106.133 144.902 112.395 164.569H21.5697C27.8255 144.895 45.8891 131.04 66.9702 131.034ZM508.13 456.651C514.475 449.823 518.381 440.613 518.381 430.49C518.381 409.491 501.624 392.408 481.026 392.408C460.428 392.408 443.67 409.491 443.67 430.49C443.67 440.619 447.576 449.823 453.921 456.651C433.502 466.117 418.629 485.997 416.101 510.102C415.832 512.625 416.631 515.142 418.301 517.033C419.965 518.918 422.338 520 424.825 520H537.226C539.713 520 542.087 518.924 543.75 517.033C545.414 515.142 546.213 512.625 545.951 510.102C543.416 485.997 528.549 466.117 508.13 456.651ZM461.215 430.49C461.215 419.358 470.1 410.3 481.02 410.3C491.939 410.3 500.825 419.358 500.825 430.49C500.825 441.622 491.945 450.681 481.026 450.681H481.014C470.1 450.674 461.215 441.622 461.215 430.49ZM435.613 502.108C441.869 482.434 459.939 468.573 481.014 468.573C481.02 468.573 481.02 468.573 481.026 468.573C481.032 468.573 481.032 468.573 481.038 468.573C502.113 468.579 520.177 482.44 526.438 502.108H435.613ZM424.819 182.461H537.22C539.707 182.461 542.081 181.385 543.744 179.494C545.408 177.604 546.207 175.087 545.945 172.564C543.416 148.458 528.543 128.578 508.124 119.112C514.469 112.285 518.375 103.074 518.375 92.9514C518.375 71.9525 501.618 54.8689 481.02 54.8689C460.422 54.8689 443.664 71.9525 443.664 92.9514C443.664 103.08 447.57 112.285 453.915 119.112C433.496 128.578 418.623 148.458 416.095 172.564C415.826 175.087 416.625 177.604 418.295 179.494C419.959 181.379 422.332 182.461 424.819 182.461ZM461.215 92.9514C461.215 81.8197 470.1 72.7611 481.02 72.7611C491.939 72.7611 500.825 81.8197 500.825 92.9514C500.825 104.083 491.945 113.142 481.026 113.142H481.014C470.1 113.136 461.215 104.083 461.215 92.9514ZM481.014 131.034C481.02 131.034 481.02 131.034 481.026 131.034C481.032 131.034 481.032 131.034 481.038 131.034C502.113 131.04 520.177 144.902 526.438 164.569H435.613C441.869 144.895 459.933 131.04 481.014 131.034ZM184.196 375.403C186.104 377.348 187.029 380.084 186.701 382.82L182.824 414.933C182.234 419.833 177.857 423.328 173.044 422.721C168.231 422.119 164.814 417.656 165.405 412.75L166.168 406.433L130.888 442.4C129.176 444.145 126.928 445.02 124.686 445.02C122.437 445.02 120.195 444.145 118.483 442.4C115.054 438.904 115.054 433.244 118.483 429.749L153.764 393.782L147.568 394.56C142.755 395.168 138.378 391.678 137.787 386.772C137.197 381.872 140.614 377.403 145.427 376.801L176.926 372.85C179.592 372.515 182.282 373.451 184.196 375.403ZM165.405 225.043C164.814 220.143 168.231 215.674 173.044 215.072C177.851 214.464 182.234 217.954 182.824 222.86L186.701 254.972C187.029 257.708 186.104 260.444 184.196 262.39C182.538 264.08 180.302 265.01 177.994 265.01C177.636 265.01 177.278 264.986 176.92 264.943L145.421 260.991C140.608 260.389 137.191 255.927 137.781 251.021C138.372 246.121 142.755 242.625 147.562 243.233L153.758 244.011L118.477 208.044C115.048 204.548 115.048 198.888 118.477 195.393C121.907 191.897 127.459 191.903 130.888 195.393L166.168 231.359L165.405 225.043ZM382.597 412.744C383.188 417.644 379.771 422.113 374.958 422.714C370.145 423.322 365.768 419.833 365.178 414.926L361.301 382.814C360.973 380.078 361.898 377.342 363.806 375.397C365.72 373.451 368.404 372.509 371.082 372.844L402.581 376.795C407.394 377.397 410.811 381.86 410.22 386.766C409.63 391.666 405.253 395.162 400.44 394.554L394.244 393.776L429.525 429.742C432.954 433.238 432.954 438.898 429.525 442.394C427.813 444.139 425.565 445.014 423.322 445.014C421.074 445.014 418.832 444.139 417.12 442.394L381.84 406.427L382.597 412.744ZM363.806 262.383C361.898 260.438 360.973 257.702 361.301 254.966L365.178 222.854C365.768 217.954 370.145 214.464 374.958 215.066C379.771 215.668 383.188 220.13 382.597 225.037L381.834 231.353L417.114 195.386C420.543 191.891 426.095 191.891 429.525 195.386C432.954 198.882 432.954 204.542 429.525 208.038L394.244 244.005L400.44 243.227C405.253 242.625 409.63 246.108 410.22 251.015C410.811 255.915 407.394 260.383 402.581 260.985L371.082 264.937C370.724 264.979 370.366 265.004 370.008 265.004C367.7 265.004 365.464 264.074 363.806 262.383Z" fill="black"/>
</svg>
