<svg xmlns="http://www.w3.org/2000/svg" width="25" height="25" viewBox="0 0 25 25">
  <path id="Path_6365" data-name="Path 6365" d="M22.321,32H2.679A2.679,2.679,0,0,0,0,34.679V54.321A2.679,2.679,0,0,0,2.679,57H22.321A2.679,2.679,0,0,0,25,54.321V34.679A2.679,2.679,0,0,0,22.321,32Zm0,22.321H2.679V34.679H22.321Zm-2-13.489-9.631,9.554a.67.67,0,0,1-.947,0L4.676,45.275a.67.67,0,0,1,0-.947l1.268-1.258a.67.67,0,0,1,.947,0l3.337,3.364,7.888-7.825a.67.67,0,0,1,.947,0l1.258,1.268a.67.67,0,0,1,0,.947Z" transform="translate(0 -32)" fill="#68BF7B"/>
</svg>
