<svg width="123" height="40" xmlns="http://www.w3.org/2000/svg" xml:space="preserve" version="1.1">

 <g>
  <title>Layer 1</title>
  <g id="svg_1">
   <polygon id="svg_2" fill="#072654" points="11.19,9.03 7.94,21.47 0,21.47 1.61,15.35 11.19,9.03" class="st1"/>
   <path id="svg_3" fill="#072654" d="m28.09,5.08c1.86,0.01 3.17,0.42 3.91,1.25s0.92,2.01 0.51,3.56c-0.27,1.06 -0.82,2.03 -1.59,2.8c-0.8,0.8 -1.78,1.38 -2.87,1.68c0.83,0.19 1.34,0.78 1.5,1.79l0.03,0.22l0.6,5.09l-3.7,0l-0.62,-5.48c-0.01,-0.18 -0.06,-0.36 -0.15,-0.52c-0.09,-0.16 -0.22,-0.29 -0.37,-0.39c-0.31,-0.16 -0.65,-0.24 -1,-0.25l-0.21,0l-2.28,0l-1.74,6.63l-3.46,0l4.3,-16.38l7.14,0l0,0zm94.79,4.29l-4.4,6.34l-5.19,7.52l-0.04,0.04l-1.16,1.68l-0.04,0.06l-0.05,0.08l-1,1.44l-3.44,0l4.02,-5.67l-1.82,-11.09l3.57,0l0.9,7.23l4.36,-6.19l0.06,-0.09l0.07,-0.1l0.07,-0.09l0.54,-1.15l3.55,0l0,-0.01zm-30.48,0.88c0.66,0.56 1.09,1.33 1.24,2.19c0.18,1.07 0.1,2.18 -0.21,3.22c-0.29,1.15 -0.78,2.23 -1.46,3.19c-0.62,0.88 -1.42,1.61 -2.35,2.13c-0.88,0.48 -1.85,0.73 -2.85,0.73c-0.71,0.03 -1.41,-0.15 -2.02,-0.51c-0.47,-0.28 -0.83,-0.71 -1.03,-1.22l-0.06,-0.2l-1.77,6.75l-3.43,0l3.51,-13.4l0.02,-0.06l0.01,-0.06l0.86,-3.25l3.35,0l-0.57,1.88l-0.01,0.08c0.49,-0.7 1.15,-1.27 1.91,-1.64c0.76,-0.4 1.6,-0.6 2.45,-0.6c0.85,-0.05 1.71,0.23 2.41,0.77l0,0zm-4.14,1.86c-0.4,-0.01 -0.8,0.07 -1.18,0.22c-0.37,0.15 -0.71,0.38 -1,0.66c-0.68,0.7 -1.15,1.59 -1.36,2.54c-0.3,1.11 -0.28,1.95 0.02,2.53c0.3,0.58 0.87,0.88 1.72,0.88c0.81,0.02 1.59,-0.29 2.18,-0.86c0.66,-0.69 1.12,-1.55 1.33,-2.49c0.29,-1.09 0.27,-1.96 -0.03,-2.57s-0.86,-0.91 -1.68,-0.91l0,0zm15.4,-2.12c0.46,0.29 0.82,0.72 1.02,1.23l0.07,0.19l0.44,-1.66l3.36,0l-3.08,11.7l-3.37,0l0.45,-1.73c-0.51,0.61 -1.15,1.09 -1.87,1.42c-0.7,0.32 -1.45,0.49 -2.21,0.49c-0.88,0.04 -1.76,-0.21 -2.48,-0.74c-0.66,-0.52 -1.1,-1.28 -1.24,-2.11c-0.18,-1.06 -0.12,-2.14 0.19,-3.17c0.3,-1.15 0.8,-2.24 1.49,-3.21c0.63,-0.89 1.44,-1.64 2.38,-2.18c0.86,-0.5 1.84,-0.77 2.83,-0.77c0.72,-0.02 1.42,0.16 2.02,0.54l0,0zm-1.74,2.15c-0.41,0 -0.82,0.08 -1.19,0.24c-0.38,0.16 -0.72,0.39 -1.01,0.68c-0.67,0.71 -1.15,1.59 -1.36,2.55c-0.28,1.08 -0.28,1.9 0.04,2.49c0.31,0.59 0.89,0.87 1.75,0.87c0.4,0.01 0.8,-0.07 1.18,-0.22s0.71,-0.38 1,-0.66c0.59,-0.63 1.02,-1.38 1.26,-2.22l0.08,-0.31c0.3,-1.11 0.29,-1.96 -0.03,-2.53c-0.31,-0.59 -0.88,-0.89 -1.72,-0.89l0,0zm-20.79,-2.51l0.22,0.09l-0.86,3.19c-0.49,-0.26 -1.03,-0.39 -1.57,-0.39c-0.82,-0.03 -1.62,0.24 -2.27,0.75c-0.56,0.48 -0.97,1.12 -1.18,1.82l-0.07,0.27l-1.6,6.11l-3.42,0l3.1,-11.7l3.37,0l-0.44,1.72c0.42,-0.58 0.96,-1.05 1.57,-1.4c0.68,-0.39 1.44,-0.59 2.22,-0.59c0.31,-0.02 0.63,0.02 0.93,0.13l0,0zm-12.63,0.56c0.76,0.48 1.31,1.24 1.52,2.12c0.25,1.06 0.21,2.18 -0.11,3.22c-0.3,1.18 -0.83,2.28 -1.58,3.22c-0.71,0.91 -1.61,1.63 -2.64,2.12c-1.05,0.49 -2.19,0.74 -3.35,0.73c-1.22,0 -2.22,-0.24 -3,-0.73c-0.77,-0.48 -1.32,-1.24 -1.54,-2.12c-0.24,-1.06 -0.2,-2.18 0.11,-3.22c0.3,-1.17 0.83,-2.27 1.58,-3.22c0.71,-0.9 1.62,-1.63 2.66,-2.12c1.06,-0.49 2.22,-0.75 3.39,-0.73c1.03,-0.05 2.06,0.21 2.96,0.73l0,0zm-3.66,1.91c-0.81,-0.01 -1.59,0.3 -2.18,0.86c-0.61,0.58 -1.07,1.43 -1.36,2.57c-0.6,2.29 -0.02,3.43 1.74,3.43c0.8,0.02 1.57,-0.29 2.15,-0.85c0.6,-0.57 1.04,-1.43 1.34,-2.58c0.3,-1.13 0.31,-1.98 0.01,-2.57c-0.29,-0.59 -0.86,-0.86 -1.7,-0.86l0,0zm-6.95,-2.34l-0.6,2.32l-7.55,6.67l6.06,0l-0.72,2.73l-10.03,0l0.63,-2.41l7.43,-6.57l-5.65,0l0.72,-2.73l9.71,0l0,-0.01zm-16.93,0.23c0.46,0.29 0.82,0.72 1.02,1.23l0.07,0.19l0.44,-1.66l3.37,0l-3.07,11.7l-3.37,0l0.45,-1.73c-0.51,0.6 -1.14,1.08 -1.85,1.41s-1.48,0.5 -2.27,0.5c-0.88,0.04 -1.74,-0.22 -2.45,-0.74c-0.66,-0.52 -1.1,-1.28 -1.24,-2.11c-0.18,-1.06 -0.12,-2.14 0.19,-3.17c0.29,-1.15 0.8,-2.24 1.49,-3.21c0.63,-0.89 1.44,-1.64 2.37,-2.18c0.86,-0.5 1.84,-0.76 2.83,-0.76c0.72,-0.02 1.42,0.16 2.02,0.53l0,0zm-1.73,2.15c-0.41,0 -0.81,0.08 -1.19,0.24c-0.38,0.16 -0.72,0.39 -1.01,0.68c-0.68,0.71 -1.15,1.59 -1.36,2.55c-0.28,1.08 -0.27,1.9 0.04,2.49c0.31,0.59 0.89,0.87 1.75,0.87c0.4,0.01 0.8,-0.07 1.18,-0.22c0.37,-0.15 0.72,-0.38 1,-0.66c0.59,-0.62 1.03,-1.38 1.26,-2.22l0.08,-0.31c0.29,-1.11 0.26,-1.94 -0.03,-2.53c-0.31,-0.59 -0.89,-0.89 -1.72,-0.89l0,0zm-12.38,-4.33l-3.21,0l-1.13,4.28l3.21,0c1.01,0 1.81,-0.17 2.35,-0.52c0.57,-0.37 0.98,-0.95 1.13,-1.63c0.2,-0.72 0.11,-1.27 -0.27,-1.62c-0.38,-0.33 -1.07,-0.51 -2.08,-0.51l0,0z" class="st1"/>
   <polygon id="svg_4" fill="#3395FF" points="18.4,0 12.76,21.47 8.89,21.47 12.7,6.93 6.86,10.78 7.9,6.95 18.4,0" class="st0"/>
  </g>
 </g>
</svg>