<svg xmlns="http://www.w3.org/2000/svg" xmlns:xlink="http://www.w3.org/1999/xlink" width="500" zoomAndPan="magnify" viewBox="0 0 375 374.999991" height="500" preserveAspectRatio="xMidYMid meet" version="1.0"><defs><clipPath id="edab5ec4d8"><path d="M 39.402344 30.175781 L 375 30.175781 L 375 365.773438 L 39.402344 365.773438 Z M 39.402344 30.175781 " clip-rule="nonzero"/></clipPath><clipPath id="51b46dabab"><path d="M 207.199219 30.175781 C 114.527344 30.175781 39.402344 105.300781 39.402344 197.976562 C 39.402344 290.648438 114.527344 365.773438 207.199219 365.773438 C 299.875 365.773438 375 290.648438 375 197.976562 C 375 105.300781 299.875 30.175781 207.199219 30.175781 " clip-rule="nonzero"/></clipPath></defs><g clip-path="url(#edab5ec4d8)"><g clip-path="url(#51b46dabab)"><path fill="#07ae4d" d="M 39.402344 30.175781 L 375 30.175781 L 375 365.773438 L 39.402344 365.773438 Z M 39.402344 30.175781 " fill-opacity="1" fill-rule="nonzero"/></g></g><path fill="#000000" d="M 156.261719 282.742188 L 120.9375 282.742188 C 118.953125 282.742188 117.339844 284.355469 117.339844 286.335938 L 117.339844 342.332031 C 117.339844 344.316406 118.953125 345.925781 120.9375 345.925781 L 156.261719 345.925781 C 158.25 345.925781 159.863281 344.316406 159.863281 342.332031 L 159.863281 286.335938 C 159.863281 284.355469 158.25 282.742188 156.261719 282.742188 Z M 152.660156 338.738281 L 124.539062 338.738281 L 124.539062 289.929688 L 152.660156 289.929688 Z M 152.660156 338.738281 " fill-opacity="1" fill-rule="nonzero"/><path fill="#000000" d="M 212.398438 210.882812 L 177.078125 210.882812 C 175.089844 210.882812 173.476562 212.492188 173.476562 214.476562 L 173.476562 342.332031 C 173.476562 344.316406 175.089844 345.925781 177.078125 345.925781 L 212.398438 345.925781 C 214.386719 345.925781 216 344.316406 216 342.332031 L 216 214.476562 C 216 212.492188 214.386719 210.882812 212.398438 210.882812 Z M 208.800781 338.738281 L 180.675781 338.738281 L 180.675781 218.066406 L 208.800781 218.066406 Z M 208.800781 338.738281 " fill-opacity="1" fill-rule="nonzero"/><path fill="#000000" d="M 95.0625 246.8125 L 59.738281 246.8125 C 57.75 246.8125 56.136719 248.421875 56.136719 250.40625 L 56.136719 342.332031 C 56.136719 344.316406 57.75 345.925781 59.738281 345.925781 L 95.0625 345.925781 C 97.046875 345.925781 98.660156 344.316406 98.660156 342.332031 L 98.660156 250.40625 C 98.660156 248.421875 97.046875 246.8125 95.0625 246.8125 Z M 91.460938 338.738281 L 63.339844 338.738281 L 63.339844 254 L 91.460938 254 Z M 91.460938 338.738281 " fill-opacity="1" fill-rule="nonzero"/><path fill="#000000" d="M 38.921875 289.929688 L 3.601562 289.929688 C 1.613281 289.929688 0 291.539062 0 293.523438 L 0 342.332031 C 0 344.316406 1.613281 345.925781 3.601562 345.925781 L 38.921875 345.925781 C 40.910156 345.925781 42.523438 344.316406 42.523438 342.332031 L 42.523438 293.523438 C 42.523438 291.539062 40.910156 289.929688 38.921875 289.929688 Z M 35.324219 338.738281 L 7.199219 338.738281 L 7.199219 297.117188 L 35.324219 297.117188 Z M 35.324219 338.738281 " fill-opacity="1" fill-rule="nonzero"/><path fill="#000000" d="M 21.261719 244.210938 C 29.203125 244.210938 35.660156 237.765625 35.660156 229.839844 C 35.660156 228.269531 35.34375 226.785156 34.875 225.367188 L 66.539062 208.839844 C 69.179688 211.902344 73.042969 213.882812 77.398438 213.882812 C 81.867188 213.882812 85.816406 211.796875 88.460938 208.601562 L 124.421875 223.035156 C 124.308594 223.757812 124.199219 224.488281 124.199219 225.25 C 124.199219 233.175781 130.660156 239.625 138.601562 239.625 C 146.542969 239.625 153 233.175781 153 225.25 C 153 224.652344 152.894531 224.078125 152.824219 223.496094 L 187 186.601562 C 189.238281 188.035156 191.886719 188.890625 194.742188 188.890625 C 202.683594 188.890625 209.140625 182.445312 209.140625 174.519531 C 209.140625 166.59375 202.683594 160.148438 194.742188 160.148438 C 186.800781 160.148438 180.34375 166.59375 180.34375 174.519531 C 180.34375 176.976562 181.023438 179.257812 182.117188 181.285156 L 149.734375 216.246094 C 147.09375 213 143.109375 210.878906 138.605469 210.878906 C 134.003906 210.878906 129.945312 213.085938 127.308594 216.445312 L 91.539062 202.089844 C 91.695312 201.25 91.804688 200.394531 91.804688 199.511719 C 91.804688 191.582031 85.34375 185.136719 77.402344 185.136719 C 69.460938 185.136719 63.003906 191.582031 63.003906 199.511719 C 63.003906 200.507812 63.109375 201.484375 63.300781 202.421875 L 30.972656 219.292969 C 28.40625 216.9375 25.015625 215.464844 21.265625 215.464844 C 13.324219 215.464844 6.863281 221.910156 6.863281 229.835938 C 6.863281 237.761719 13.324219 244.207031 21.265625 244.207031 Z M 194.738281 167.332031 C 198.710938 167.332031 201.9375 170.554688 201.9375 174.519531 C 201.9375 178.484375 198.710938 181.707031 194.738281 181.707031 C 190.769531 181.707031 187.539062 178.484375 187.539062 174.519531 C 187.539062 170.554688 190.769531 167.332031 194.738281 167.332031 Z M 138.601562 218.066406 C 142.570312 218.066406 145.800781 221.289062 145.800781 225.25 C 145.800781 229.214844 142.570312 232.4375 138.601562 232.4375 C 134.628906 232.4375 131.398438 229.214844 131.398438 225.25 C 131.398438 221.289062 134.628906 218.066406 138.601562 218.066406 Z M 77.398438 192.324219 C 81.371094 192.324219 84.601562 195.546875 84.601562 199.511719 C 84.601562 203.472656 81.371094 206.695312 77.398438 206.695312 C 73.429688 206.695312 70.199219 203.472656 70.199219 199.511719 C 70.199219 195.546875 73.429688 192.324219 77.398438 192.324219 Z M 21.261719 222.652344 C 25.230469 222.652344 28.460938 225.875 28.460938 229.839844 C 28.460938 233.800781 25.230469 237.023438 21.261719 237.023438 C 17.289062 237.023438 14.0625 233.800781 14.0625 229.839844 C 14.0625 225.875 17.289062 222.652344 21.261719 222.652344 Z M 21.261719 222.652344 " fill-opacity="1" fill-rule="nonzero"/></svg>