<svg xmlns="http://www.w3.org/2000/svg" xmlns:xlink="http://www.w3.org/1999/xlink" width="500" zoomAndPan="magnify" viewBox="0 0 375 374.999991" height="500" preserveAspectRatio="xMidYMid meet" version="1.0"><defs><clipPath id="c364a08a45"><path d="M 58.515625 8.933594 L 375 8.933594 L 375 325.417969 L 58.515625 325.417969 Z M 58.515625 8.933594 " clip-rule="nonzero"/></clipPath><clipPath id="b6c6462342"><path d="M 216.757812 8.933594 C 129.363281 8.933594 58.515625 79.78125 58.515625 167.175781 C 58.515625 254.570312 129.363281 325.417969 216.757812 325.417969 C 304.152344 325.417969 375 254.570312 375 167.175781 C 375 79.78125 304.152344 8.933594 216.757812 8.933594 " clip-rule="nonzero"/></clipPath><clipPath id="9263d59b92"><path d="M 31 67.546875 L 289 67.546875 L 289 366.046875 L 31 366.046875 Z M 31 67.546875 " clip-rule="nonzero"/></clipPath></defs><g clip-path="url(#c364a08a45)"><g clip-path="url(#b6c6462342)"><path fill="#07ae4d" d="M 58.515625 8.933594 L 375 8.933594 L 375 325.417969 L 58.515625 325.417969 Z M 58.515625 8.933594 " fill-opacity="1" fill-rule="nonzero"/></g></g><g clip-path="url(#9263d59b92)"><path fill="#e7bb52" d="M 284.90625 106.007812 C 284.765625 105.996094 284.613281 105.980469 284.472656 105.96875 C 281.863281 105.449219 253.011719 99.683594 223.167969 91.71875 C 189.125 80.714844 159.144531 67.539062 159.144531 67.539062 C 159.144531 67.539062 130.476562 80.347656 97.398438 91.25 C 67.269531 99.457031 37.699219 105.445312 35.082031 105.96875 C 34.9375 105.980469 34.789062 105.996094 34.648438 106.007812 C 34.648438 106.007812 0.0546875 286.695312 159.65625 366.042969 L 159.777344 365.789062 L 159.898438 366.042969 C 319.5 286.695312 284.90625 106.007812 284.90625 106.007812 " fill-opacity="1" fill-rule="nonzero"/></g><path fill="#bd9748" d="M 270.859375 118.445312 C 270.726562 118.4375 270.597656 118.421875 270.46875 118.410156 C 268.15625 117.953125 242.542969 112.832031 216.050781 105.761719 C 185.832031 95.996094 159.214844 84.296875 159.214844 84.296875 C 159.214844 84.296875 133.765625 95.667969 104.402344 105.34375 C 77.65625 112.632812 51.40625 117.945312 49.082031 118.410156 C 48.957031 118.421875 48.828125 118.4375 48.699219 118.445312 C 48.699219 118.445312 17.988281 278.847656 159.671875 349.285156 L 159.777344 349.058594 L 159.886719 349.285156 C 301.570312 278.847656 270.859375 118.445312 270.859375 118.445312 " fill-opacity="1" fill-rule="nonzero"/><path fill="#fbcf57" d="M 263.578125 124.890625 C 263.457031 124.882812 263.335938 124.871094 263.214844 124.859375 C 261.054688 124.429688 237.117188 119.644531 212.363281 113.039062 C 184.125 103.910156 159.25 92.980469 159.25 92.980469 C 159.25 92.980469 135.46875 103.605469 108.03125 112.648438 C 83.035156 119.457031 58.507812 124.425781 56.339844 124.859375 C 56.21875 124.871094 56.097656 124.882812 55.976562 124.890625 C 55.976562 124.890625 27.28125 274.78125 159.675781 340.601562 L 159.777344 340.390625 L 159.878906 340.601562 C 292.273438 274.78125 263.578125 124.890625 263.578125 124.890625 " fill-opacity="1" fill-rule="nonzero"/><path fill="#ecbf54" d="M 263.214844 124.859375 C 261.054688 124.429688 237.117188 119.644531 212.363281 113.039062 C 184.125 103.910156 159.25 92.980469 159.25 92.980469 C 159.25 92.980469 135.46875 103.605469 108.03125 112.648438 C 83.035156 119.457031 58.507812 124.425781 56.339844 124.859375 C 56.21875 124.871094 56.097656 124.882812 55.976562 124.890625 L 159.597656 203.652344 L 263.214844 124.859375 " fill-opacity="1" fill-rule="nonzero"/><path fill="#f6d88f" d="M 55.976562 124.890625 C 55.976562 124.890625 27.28125 274.78125 159.675781 340.601562 L 159.597656 203.652344 L 55.976562 124.890625 " fill-opacity="1" fill-rule="nonzero"/></svg>