<svg xmlns="http://www.w3.org/2000/svg" xmlns:xlink="http://www.w3.org/1999/xlink" width="500" zoomAndPan="magnify" viewBox="0 0 375 374.999991" height="500" preserveAspectRatio="xMidYMid meet" version="1.0"><defs><clipPath id="68de041392"><path d="M 4.15625 0 L 287.957031 0 L 287.957031 283.800781 L 4.15625 283.800781 Z M 4.15625 0 " clip-rule="nonzero"/></clipPath><clipPath id="6e242c9dd3"><path d="M 146.054688 0 C 67.6875 0 4.15625 63.53125 4.15625 141.902344 C 4.15625 220.269531 67.6875 283.800781 146.054688 283.800781 C 224.425781 283.800781 287.957031 220.269531 287.957031 141.902344 C 287.957031 63.53125 224.425781 0 146.054688 0 " clip-rule="nonzero"/></clipPath><clipPath id="f253ecc3d1"><path d="M 295 246 L 329 246 L 329 374.957031 L 295 374.957031 Z M 295 246 " clip-rule="nonzero"/></clipPath><clipPath id="37a4066175"><path d="M 254 219 L 289 219 L 289 374.957031 L 254 374.957031 Z M 254 219 " clip-rule="nonzero"/></clipPath></defs><g clip-path="url(#68de041392)"><g clip-path="url(#6e242c9dd3)"><path fill="#07ae4d" d="M 4.15625 0 L 287.957031 0 L 287.957031 283.800781 L 4.15625 283.800781 Z M 4.15625 0 " fill-opacity="1" fill-rule="nonzero"/></g></g><path fill="#000000" d="M 176.96875 142.984375 L 158.09375 108.441406 C 162.894531 110.574219 167.675781 112.976562 172.355469 115.691406 C 189.003906 125.347656 202.648438 137.582031 211.605469 149.847656 L 185.855469 148.550781 C 182.121094 148.371094 178.75 146.253906 176.96875 142.984375 Z M 176.96875 142.984375 " fill-opacity="1" fill-rule="nonzero"/><path fill="#000000" d="M 151.78125 74.5 C 156.984375 71.640625 163.496094 73.578125 166.339844 78.773438 L 167.457031 80.820312 C 161.941406 78.550781 156.449219 76.679688 150.980469 75.171875 C 151.273438 74.972656 151.460938 74.675781 151.78125 74.5 Z M 151.78125 74.5 " fill-opacity="1" fill-rule="nonzero"/><path fill="#000000" d="M 274.097656 87.855469 C 272.21875 85.609375 269.574219 84.230469 266.65625 83.972656 C 266.328125 83.941406 266 83.929688 265.675781 83.929688 C 261.199219 83.929688 257.429688 86.597656 255.726562 90.46875 L 251.152344 90.0625 C 250.054688 85.652344 246.375 82.167969 241.59375 81.742188 C 241.261719 81.714844 240.9375 81.699219 240.613281 81.699219 C 238.453125 81.699219 236.542969 82.464844 234.847656 83.53125 C 236.804688 71.503906 245.910156 61.355469 258.574219 58.792969 C 274.917969 55.488281 290.851562 66.042969 294.160156 82.367188 C 294.953125 86.289062 294.910156 90.179688 294.210938 93.886719 L 276.230469 92.289062 C 275.835938 90.6875 275.1875 89.160156 274.097656 87.855469 Z M 274.097656 87.855469 " fill-opacity="1" fill-rule="nonzero"/><path fill="#000000" d="M 240.628906 103.617188 C 246.347656 103.617188 251.039062 99.320312 251.546875 93.628906 C 251.558594 93.511719 251.503906 93.40625 251.511719 93.289062 L 254.847656 93.585938 C 254.835938 93.703125 254.769531 93.796875 254.757812 93.914062 C 254.21875 99.929688 258.6875 105.265625 264.710938 105.800781 C 265.039062 105.828125 265.367188 105.84375 265.691406 105.84375 C 271.410156 105.84375 276.101562 101.550781 276.609375 95.855469 C 276.621094 95.738281 276.566406 95.632812 276.574219 95.515625 L 293.347656 97.007812 C 290.234375 107.289062 281.835938 115.628906 270.558594 117.90625 C 257.457031 120.558594 244.738281 114.21875 238.457031 103.226562 C 238.863281 103.308594 239.226562 103.535156 239.648438 103.570312 C 239.976562 103.601562 240.304688 103.617188 240.628906 103.617188 Z M 240.628906 103.617188 " fill-opacity="1" fill-rule="nonzero"/><g clip-path="url(#f253ecc3d1)"><path fill="#000000" d="M 301.53125 246.988281 L 328.367188 262.554688 L 328.367188 358.277344 C 328.367188 367.433594 320.9375 374.847656 311.777344 374.847656 C 302.613281 374.847656 295.183594 367.433594 295.183594 358.277344 L 295.183594 249.796875 C 295.222656 249.792969 295.261719 249.796875 295.300781 249.789062 C 297.648438 249.457031 299.691406 248.375 301.53125 246.988281 Z M 301.53125 246.988281 " fill-opacity="1" fill-rule="nonzero"/></g><path fill="#000000" d="M 322.257812 221.453125 C 324.019531 220.25 325.800781 219.050781 327.582031 217.863281 C 327.660156 217.8125 327.738281 217.757812 327.816406 217.707031 L 327.914062 218.199219 C 328.066406 218.941406 327.925781 219.652344 327.917969 220.382812 C 328.027344 221.144531 328.367188 221.820312 328.367188 222.613281 L 328.367188 224.996094 Z M 322.257812 221.453125 " fill-opacity="1" fill-rule="nonzero"/><g clip-path="url(#37a4066175)"><path fill="#000000" d="M 255.777344 358.277344 L 255.777344 227.691406 L 254.117188 219.488281 L 279.625 234.285156 C 279.625 235.539062 279.480469 236.75 279.667969 238.066406 C 280.417969 243.3125 284.148438 247.480469 288.960938 249.121094 L 288.960938 358.277344 C 288.960938 367.433594 281.53125 374.847656 272.371094 374.847656 C 263.210938 374.847656 255.777344 367.433594 255.777344 358.277344 Z M 255.777344 358.277344 " fill-opacity="1" fill-rule="nonzero"/></g><path fill="#000000" d="M 250.785156 212.902344 C 247.210938 210.832031 245.148438 207.164062 244.957031 203.328125 L 229.699219 194.472656 C 229.660156 194.535156 229.632812 194.601562 229.597656 194.660156 C 222.902344 206.175781 209.007812 212.449219 190.332031 212.449219 C 189.617188 212.449219 188.898438 212.441406 188.175781 212.421875 C 169.140625 211.941406 147.472656 205.1875 127.164062 193.410156 C 106.855469 181.628906 90.246094 166.175781 80.398438 149.902344 C 70.167969 133.003906 68.363281 117.117188 75.3125 105.164062 L 82.644531 92.558594 C 89.59375 80.609375 104.335938 74.296875 124.066406 74.800781 C 143.101562 75.28125 164.769531 82.03125 185.078125 93.8125 C 205.386719 105.59375 221.996094 121.042969 231.847656 137.320312 C 242.070312 154.21875 243.878906 170.105469 236.929688 182.058594 C 236.820312 182.242188 236.691406 182.417969 236.582031 182.601562 L 251.855469 191.460938 C 255.285156 189.726562 259.5 189.699219 263.070312 191.769531 L 293.003906 209.132812 C 286.378906 215.085938 281.324219 221.8125 279.910156 229.800781 Z M 174.378906 112.214844 C 153.507812 100.105469 131.933594 93.957031 114.472656 93.957031 C 102.441406 93.957031 92.378906 96.890625 85.828125 102.792969 C 83.921875 111.589844 86.503906 122.324219 93.46875 133.828125 C 102.746094 149.15625 118.511719 163.78125 137.863281 175.007812 C 173.136719 195.46875 210.402344 198.894531 226.445312 184.402344 C 231.097656 163.304688 209.648438 132.675781 174.378906 112.214844 Z M 174.378906 112.214844 " fill-opacity="1" fill-rule="nonzero"/><path fill="#000000" d="M 307.105469 234.730469 C 307.339844 234.226562 308.152344 232.800781 310.644531 230.410156 C 312.847656 228.300781 315.613281 226.148438 318.617188 223.992188 L 356.347656 245.875 C 361.957031 249.128906 363.863281 256.308594 360.605469 261.910156 L 360.113281 262.757812 C 356.855469 268.359375 349.667969 270.261719 344.058594 267.007812 L 304.5625 244.097656 C 306.519531 241.355469 307.445312 238.074219 307.105469 234.730469 Z M 307.105469 234.730469 " fill-opacity="1" fill-rule="nonzero"/><path fill="#000000" d="M 325.878906 215.292969 C 319.550781 219.515625 313.007812 223.878906 308.507812 228.1875 C 304.582031 231.949219 303.910156 234.101562 303.980469 234.613281 C 304.816406 240.472656 300.734375 245.902344 294.867188 246.738281 C 294.351562 246.8125 293.84375 246.847656 293.339844 246.847656 C 288.082031 246.847656 283.488281 242.984375 282.722656 237.632812 C 280.207031 219.972656 298.136719 208.011719 313.949219 197.460938 C 318.640625 194.332031 325.40625 189.820312 328.089844 187.054688 C 322.253906 168.265625 316.097656 157.269531 310.96875 150.792969 L 308.011719 152.035156 C 310.953125 155.613281 314.390625 161.207031 317.945312 169.003906 L 321.847656 188.253906 C 318.863281 190.472656 315.113281 192.976562 312.285156 194.863281 C 306.878906 198.472656 301.304688 202.265625 296.257812 206.371094 L 265.09375 188.292969 C 262.691406 186.902344 259.960938 186.164062 257.199219 186.164062 C 255.488281 186.164062 253.78125 186.445312 252.160156 186.988281 L 246.910156 183.945312 L 244.542969 172.265625 C 246.367188 161.183594 243.289062 148.453125 235.289062 135.238281 C 234.085938 133.246094 232.476562 131.324219 231.082031 129.363281 L 248.1875 130.222656 L 297.480469 120.253906 C 297.726562 120.207031 297.957031 120.285156 298.203125 120.253906 C 298.28125 120.246094 298.34375 120.199219 298.425781 120.191406 C 299.101562 120.140625 300.152344 120.125 301.496094 120.253906 C 301.546875 120.265625 301.601562 120.265625 301.65625 120.277344 C 307.632812 120.894531 319.320312 124.644531 331.226562 142.292969 C 337.515625 151.617188 343.859375 164.753906 349.441406 183.484375 C 353.441406 196.902344 340.050781 205.835938 325.878906 215.292969 Z M 325.878906 215.292969 " fill-opacity="1" fill-rule="nonzero"/><path fill="#000000" d="M 241.320312 84.816406 C 245.65625 85.199219 248.859375 89.023438 248.472656 93.355469 C 248.085938 97.6875 244.257812 100.886719 239.921875 100.5 C 235.585938 100.117188 232.382812 96.292969 232.769531 91.960938 C 233.152344 87.628906 236.984375 84.429688 241.320312 84.816406 Z M 241.320312 84.816406 " fill-opacity="1" fill-rule="nonzero"/><path fill="#000000" d="M 266.382812 87.042969 C 270.71875 87.425781 273.921875 91.25 273.535156 95.582031 C 273.152344 99.917969 269.320312 103.113281 264.984375 102.730469 C 260.648438 102.34375 257.445312 98.519531 257.832031 94.1875 C 258.214844 89.855469 262.042969 86.65625 266.382812 87.042969 Z M 266.382812 87.042969 " fill-opacity="1" fill-rule="nonzero"/><path fill="#000000" d="M 141.214844 163.875 C 171.023438 183.042969 203.753906 185.753906 216.152344 170.570312 C 215.804688 171.28125 215.425781 171.976562 214.992188 172.648438 C 203.839844 189.953125 169.652344 187.8125 138.640625 167.867188 C 107.625 147.921875 91.523438 117.726562 102.679688 100.425781 C 102.992188 99.941406 103.34375 99.496094 103.691406 99.050781 C 103.832031 98.871094 103.949219 98.679688 104.09375 98.503906 C 104.019531 98.660156 104.019531 98.84375 103.945312 99 C 95.742188 116.597656 111.664062 144.871094 141.214844 163.875 Z M 141.214844 163.875 " fill-opacity="1" fill-rule="nonzero"/></svg>