<svg width="48" height="40" viewBox="0 0 48 40" fill="none" xmlns="http://www.w3.org/2000/svg">
<path d="M42.5339 4.28492C43.2705 4.28492 43.8677 3.81616 43.8677 3.23792C43.8677 2.65968 43.2705 2.19092 42.5339 2.19092C41.7973 2.19092 41.2002 2.65968 41.2002 3.23792C41.2002 3.81616 41.7973 4.28492 42.5339 4.28492Z" fill="black" fill-opacity="0.8"/>
<path d="M46.6662 2.094C47.4028 2.094 48 1.62524 48 1.047C48 0.468758 47.4028 0 46.6662 0C45.9297 0 45.3325 0.468758 45.3325 1.047C45.3325 1.62524 45.9297 2.094 46.6662 2.094Z" fill="black" fill-opacity="0.8"/>
<path d="M45.7317 6.38013C46.4683 6.38013 47.0654 5.91137 47.0654 5.33313C47.0654 4.75489 46.4683 4.28613 45.7317 4.28613C44.9951 4.28613 44.3979 4.75489 44.3979 5.33313C44.3979 5.91137 44.9951 6.38013 45.7317 6.38013Z" fill="black" fill-opacity="0.8"/>
<path d="M38.5824 3.28477C35.1888 3.67677 32.4042 5.52677 31.2921 8.04277L28.0527 6.41777C27.3343 6.05677 26.3738 6.22277 25.9126 6.78677L23.5127 9.73477C23.2859 10.0128 22.8554 10.1568 22.4439 10.0888C12.3499 8.46177 2.45077 13.5818 0.376931 21.5038C-1.1708 27.4158 2.13995 33.5718 8.61623 36.8218C10.5397 37.7888 12.6607 38.4648 14.9193 38.8278C19.807 39.6168 24.7955 38.8648 28.9661 36.7068C33.1316 34.5528 35.9799 31.2518 36.9875 27.4118C38.0525 23.3438 36.8601 19.0908 33.7163 15.7458C33.4679 15.4798 33.45 15.1128 33.6793 14.8348L36.0805 11.8868C36.5379 11.3238 36.3289 10.5698 35.6105 10.2088L32.1851 8.48877C33.1137 6.16277 35.6436 4.44277 38.7365 4.08577C39.0181 4.05377 39.2142 3.84677 39.1722 3.62477C39.1251 3.40577 38.8614 3.25377 38.5824 3.28477ZM21.8248 14.4578C21.7688 14.6768 21.4949 14.8178 21.2159 14.7708C15.8594 13.9068 10.4417 15.8328 7.73472 19.5608C7.59332 19.7548 7.27868 19.8248 7.03155 19.7118C7.02391 19.7078 7.01626 19.7048 7.00862 19.7008C6.77805 19.5848 6.70162 19.3468 6.83793 19.1598C9.76652 15.1248 15.6288 13.0428 21.4236 13.9758C21.7064 14.0228 21.8834 14.2378 21.8248 14.4578Z" fill="black" fill-opacity="0.8"/>
</svg>
